<?xml version="1.0" encoding="utf-8"?>
<!-- Generator: Adobe Illustrator 24.1.0, SVG Export Plug-In . SVG Version: 6.00 Build 0) -->
<svg version="1.1" id="Layer_1" xmlns="http://www.w3.org/2000/svg" xmlns:xlink="http://www.w3.org/1999/xlink" x="0px" y="0px" viewBox="0 0 1080 1080" style="enable-background:new 0 0 1080 1080;" xml:space="preserve">
	<style type="text/css">
		.st0{fill:#5B3483;}
	</style>
	<g>
		<path class="st0" d="M695.34,801.46l-53.57-60.98c-15.52,5.45-31.73,9.72-48.35,12.7l-5.35-29.82
		c18.28-3.28,35.99-8.27,52.66-14.82l9.9-3.89l51.09,58.16l26.32-15.19l-24.7-73.45l8.32-6.62c16.22-12.87,31.09-27.7,44.2-44.07
		l6.62-8.27l73.3,24.72l15.14-26.29l-57.98-51.18l3.93-9.9c7.68-19.35,13.13-39.55,16.17-60.04l1.57-10.54l75.61-15.1v-30.81
		l-75.61-15.22l-1.57-10.53c-3.04-20.48-8.47-40.66-16.15-59.97l-3.93-9.89l57.95-51.26L835.78,263l-73.32,24.63l-6.61-8.27
		c-13-16.26-27.87-31.1-44.2-44.13l-8.29-6.61l24.67-73.36l-26.35-15.2l-51.14,58.15l-9.9-3.9c-19.34-7.62-39.51-13.02-59.93-16.06
		l-10.53-1.56l-15.31-76.01h-30.6l-15.3,75.98l-10.52,1.56c-20.32,3.01-40.5,8.43-60,16.08l-9.9,3.89l-51.07-58.13l-26.48,15.22
		l24.78,73.43l-8.28,6.62c-16.39,13.11-31.21,27.93-44.05,44.06l-6.61,8.3L243.44,263l-15.19,26.24l58,51.31l-3.88,9.86
		c-7.64,19.46-13.03,39.6-16.02,59.87l-1.54,10.54l-75.95,15.26l0.06,30.81l75.89,15.2l1.54,10.56
		c2.99,20.24,8.38,40.38,16.05,59.85l3.88,9.88l-58.04,51.26l15.2,26.31l73.38-24.75l6.63,8.29c13.05,16.37,27.88,31.18,44.05,44.04
		l8.33,6.62l-24.82,73.48l26.47,15.21l51.04-58.16l9.92,3.91c16.64,6.56,34.32,11.53,52.51,14.75l-5.3,29.83
		c-16.56-2.94-32.75-7.19-48.28-12.65l-53.49,60.93l-69.54-39.96l26.03-77.07c-12.07-10.31-23.39-21.64-33.81-33.8l-76.96,25.96
		l-40.02-69.25l60.86-53.74c-5.34-15.07-9.46-30.46-12.32-45.95l-79.47-15.92l-0.17-80.45l79.64-15.99
		c2.85-15.51,6.97-30.9,12.3-45.96L189.6,295.5l40.03-69.11l76.93,25.87c10.31-12.05,21.63-23.36,33.8-33.8l-26.01-77.06
		l69.53-39.97l53.54,60.93c15.08-5.34,30.49-9.46,46.03-12.35l16.03-79.63h80.19l16.05,79.67c15.59,2.89,30.99,7.02,46,12.33
		l53.6-60.96l69.34,39.99l-25.87,76.95c12.16,10.41,23.52,21.75,33.92,33.87l76.94-25.84l39.88,69.13l-60.7,53.69
		c5.36,15.03,9.51,30.47,12.42,46.11l79.26,15.95v80.46l-79.26,15.83c-2.91,15.66-7.07,31.12-12.44,46.17l60.71,53.58l-39.88,69.28
		l-76.95-25.95c-10.46,12.19-21.82,23.51-33.93,33.85l25.9,76.99L695.34,801.46z" />
		<path class="st0" d="M539.3,686.24c-129.25,0-234.41-105.33-234.41-234.81c0-129.44,105.16-234.75,234.41-234.75
		c129.53,0,234.91,105.3,234.91,234.75C774.21,580.91,668.83,686.24,539.3,686.24z M539.3,246.98
		c-112.55,0-204.12,91.72-204.12,204.45c0,112.77,91.57,204.52,204.12,204.52c112.83,0,204.61-91.75,204.61-204.52
		C743.91,338.7,652.13,246.98,539.3,246.98z" />
		<path class="st0" d="M539.52,1009.45c-17.72,0-34.38-6.9-46.92-19.43c-12.54-12.51-19.44-29.17-19.44-46.92V665.05h30.3V943.1
		c0,9.65,3.74,18.7,10.55,25.49c6.82,6.82,15.89,10.57,25.52,10.57c9.64,0,18.7-3.75,25.53-10.57c6.81-6.8,10.55-15.86,10.55-25.49
		V665.05h30.29V943.1c0,17.73-6.9,34.39-19.43,46.92C573.91,1002.56,557.24,1009.45,539.52,1009.45z" />
		<path class="st0" d="M539.37,631.32c-99.02,0-179.59-80.69-179.59-179.89c0-99.17,80.57-179.85,179.59-179.85
		c99.24,0,179.99,80.68,179.99,179.85C719.36,550.63,638.61,631.32,539.37,631.32z M539.37,301.87
		c-82.32,0-149.29,67.09-149.29,149.56c0,82.48,66.97,149.6,149.29,149.6c82.54,0,149.69-67.12,149.69-149.6
		C689.06,368.96,621.91,301.87,539.37,301.87z" />
		<path class="st0" d="M446,451.43h-30.3c0-68.33,55.48-123.92,123.67-123.92v30.3C487.88,357.81,446,399.81,446,451.43z" />
	</g>
</svg>
