<?xml version="1.0" encoding="utf-8"?>
<!-- Generator: Adobe Illustrator 24.1.0, SVG Export Plug-In . SVG Version: 6.00 Build 0) -->
<svg version="1.1" id="Layer_1" xmlns="http://www.w3.org/2000/svg" xmlns:xlink="http://www.w3.org/1999/xlink" x="0px" y="0px" viewBox="0 0 1080 1080" style="enable-background:new 0 0 1080 1080;" xml:space="preserve">
	<style type="text/css">
		.st0{fill:#5B3483;}
	</style>
	<g>
		<g>
			<path class="st0" d="M904.04,985.92H170.58v-230.1l71.67-71.67l84.87,84.87l88.34-88.29l43.13,43.08l118.63-118.57l58,57.93
			l54.81-54.87l27.63,27.7l122.36-102.48l64.01,64.01V985.92z M200.72,955.77H873.9V610.01l-35.66-35.65L715.85,676.85l-25.82-25.88
			l-54.77,54.83l-58.02-57.95L458.61,766.42l-43.14-43.08l-88.36,88.3l-84.86-84.87l-41.53,41.53V955.77z" />
			<g>
				<rect x="247.6" y="305.98" class="st0" width="352.42" height="30.14" />
				<rect x="247.6" y="371.05" class="st0" width="176.21" height="30.14" />
			</g>
			<polygon class="st0" points="200.71,491.04 170.56,491.04 170.56,194.38 904.03,194.38 904.03,285.75 873.89,285.75 
			873.89,224.52 200.71,224.52 		" />
			<path class="st0" d="M904.03,224.53H170.56V93.92h733.46V224.53z M200.71,194.39h673.18v-70.33H200.71V194.39z" />
			<g>
				<rect x="247.6" y="144.16" class="st0" width="30.14" height="30.14" />
				<rect x="307.88" y="144.16" class="st0" width="30.15" height="30.14" />
				<rect x="368.17" y="144.16" class="st0" width="30.14" height="30.14" />
			</g>
		</g>
		<g>
			<polygon class="st0" points="79.07,733.67 57.76,712.37 242.24,527.92 327.14,612.79 415.45,524.47 458.61,567.6 577.27,448.98 
			635.21,506.93 690.03,452.09 717.68,479.79 840.05,377.26 898.86,436.09 995.52,339.45 1016.83,360.77 898.84,478.72 
			838.25,418.08 715.86,520.64 690.02,494.74 635.21,549.56 577.26,491.6 458.62,610.2 415.46,567.09 327.14,655.41 242.24,570.54 
					" />
			<polygon class="st0" points="1021.25,433.69 991.11,433.69 991.11,365.18 922.56,365.18 922.56,335.05 1021.25,335.05 		" />
		</g>
	</g>
</svg>
