<?xml version="1.0" encoding="utf-8"?>
<!-- Generator: Adobe Illustrator 24.1.0, SVG Export Plug-In . SVG Version: 6.00 Build 0) -->
<svg version="1.1" id="Layer_1" xmlns="http://www.w3.org/2000/svg" xmlns:xlink="http://www.w3.org/1999/xlink" x="0px" y="0px" viewBox="0 0 1080 1080" style="enable-background:new 0 0 1080 1080;" xml:space="preserve">
	<style type="text/css">
		.st0{fill:#5B3483;}
	</style>
	<g>
		<g>
			<path class="st0" d="M942.08,734.8H136.93V206.83h805.15V734.8z M167.25,704.47h744.51V237.14H167.25V704.47z" />
			<g>
				<g>
					<path class="st0" d="M400.94,188.17H236.1V94.02h164.84V188.17z M266.42,157.85h104.2v-33.51h-104.2V157.85z" />
					<rect x="303.36" y="71.95" class="st0" width="30.32" height="37.23" />
				</g>
				<g>
					<path class="st0" d="M621.92,188.17H457.09V94.02h164.84V188.17z M487.41,157.85h104.2v-33.51h-104.2V157.85z" />
					<rect x="524.35" y="71.95" class="st0" width="30.32" height="37.23" />
				</g>
				<g>
					<path class="st0" d="M842.91,188.17H678.08V94.02h164.83V188.17z M708.4,157.85h104.2v-33.51H708.4V157.85z" />
					<rect x="745.33" y="71.95" class="st0" width="30.32" height="37.23" />
				</g>
			</g>
			<polygon class="st0" points="593.1,1007.89 562.78,1007.89 562.78,734.8 516.23,734.8 516.23,1007.89 485.92,1007.89 
			485.92,704.47 593.1,704.47 		" />
			<g>
				<rect x="135.25" y="768.53" class="st0" width="808.52" height="30.32" />
				<rect x="309.79" y="719.64" class="st0" width="30.32" height="64.06" />
				<rect x="738.9" y="719.64" class="st0" width="30.32" height="64.06" />
			</g>
			<g>
				<rect x="606.75" y="125.94" class="st0" width="86.51" height="30.32" />
				<polygon class="st0" points="982.51,237.11 96.51,237.11 96.51,125.94 251.27,125.94 251.27,156.26 126.83,156.26 126.83,206.79 
				952.19,206.79 952.19,156.26 827.75,156.26 827.75,125.94 982.51,125.94 			" />
				<rect x="385.75" y="125.94" class="st0" width="86.51" height="30.32" />
			</g>
		</g>
		<g>
			<path class="st0" d="M739.95,620.72H339.06V320.9h400.89V620.72z M369.38,590.4h340.25V351.21H369.38V590.4z" />
			<g>
				<path class="st0" d="M617.36,545.86h-49.91c-8.37,0-15.16-6.79-15.16-15.16V410.92c0-8.37,6.79-15.16,15.16-15.16h49.91
				c12.04,0,23.37,4.69,31.9,13.2c8.53,8.55,13.21,19.87,13.21,31.9v59.89c0,12.05-4.69,23.37-13.2,31.89
				C640.73,541.18,629.4,545.86,617.36,545.86z M582.61,515.55h34.75c3.95,0,7.66-1.55,10.46-4.34c2.79-2.79,4.32-6.5,4.32-10.45
				v-59.89c0-3.95-1.54-7.66-4.33-10.46c-2.79-2.78-6.5-4.32-10.45-4.32h-34.75V515.55z" />
				<g>
					<path class="st0" d="M526.71,545.86H496.4v-105c0-3.95-1.54-7.66-4.33-10.45c-2.8-2.8-6.51-4.33-10.46-4.33h-19.96
					c-3.94,0-7.66,1.54-10.46,4.34c-2.79,2.79-4.33,6.5-4.33,10.45v105h-30.32v-105c0-12.05,4.69-23.37,13.21-31.89
					c8.53-8.53,19.85-13.21,31.89-13.21h19.96c12.05,0,23.37,4.69,31.89,13.21c8.52,8.52,13.21,19.85,13.21,31.89V545.86z" />
					<rect x="416.55" y="455.65" class="st0" width="110.17" height="30.32" />
				</g>
			</g>
			<rect x="266.63" y="457.33" class="st0" width="26.95" height="26.95" />
			<rect x="785.43" y="457.33" class="st0" width="26.95" height="26.95" />
		</g>
	</g>
</svg>
