<?xml version="1.0" encoding="utf-8"?>
<!-- Generator: Adobe Illustrator 24.1.0, SVG Export Plug-In . SVG Version: 6.00 Build 0) -->
<svg version="1.1" id="Layer_1" xmlns="http://www.w3.org/2000/svg" xmlns:xlink="http://www.w3.org/1999/xlink" x="0px" y="0px" viewBox="0 0 1080 1080" style="enable-background:new 0 0 1080 1080;" xml:space="preserve">
	<style type="text/css">
		.st0{fill:#5B3483;}
	</style>
	<g>
		<g>
			<path class="st0" d="M917.43,818.73H161.58V364.2c0-10.11,3.95-19.62,11.12-26.79c7.17-7.17,16.68-11.12,26.79-11.12h143.49v27.21
			H199.49c-2.84,0-5.52,1.11-7.55,3.15c-2.61,2.61-3.16,5.55-3.16,7.56v427.33h701.43V364.2c0-2.02-0.55-4.98-3.16-7.62
			c-1.97-1.95-4.7-3.08-7.55-3.08H736.03v-27.21h143.49c10.06,0,19.57,3.93,26.8,11.06c7.21,7.3,11.12,16.8,11.12,26.85V818.73z" />
			<g>
				<polygon class="st0" points="859,805.11 831.79,805.11 831.79,411.94 736.03,411.94 736.03,384.73 859,384.73 			" />
				<polygon class="st0" points="247.25,805.11 220.03,805.11 220.03,384.73 342.99,384.73 342.99,411.94 247.25,411.94 			" />
			</g>
			<path class="st0" d="M945.48,883.55H133.53c-12.24,0-23.79-4.77-32.52-13.43c-8.72-8.7-13.5-20.27-13.5-32.59V791.5h904v46.02
			c0,12.32-4.79,23.88-13.47,32.56C969.3,878.78,957.75,883.55,945.48,883.55z M114.72,818.71v18.82c0,5.05,1.95,9.77,5.49,13.31
			c3.57,3.54,8.31,5.51,13.33,5.51h811.94c5.03,0,9.77-1.96,13.34-5.52c3.52-3.52,5.48-8.25,5.48-13.29v-18.82H114.72z" />
		</g>
		<g>
			<path class="st0" d="M749.63,483.5H329.38V196.28h420.26V483.5z M356.59,456.3h365.83v-232.8H356.59V456.3z" />
			<polygon class="st0" points="539.51,356.2 335.48,221.23 350.49,198.54 539.51,323.58 728.52,198.54 743.53,221.23 		" />
			<polygon class="st0" points="728.52,481.25 610.33,403.05 625.34,380.37 743.53,458.55 		" />
			<rect x="331.22" y="417.2" transform="matrix(0.8341 -0.5516 0.5516 0.8341 -170.9338 293.2683)" class="st0" width="141.71" height="27.21" />
		</g>
		<g>
			<rect x="395.89" y="555.87" class="st0" width="27.21" height="108.85" />
			<rect x="655.91" y="555.87" class="st0" width="27.21" height="108.85" />
			<rect x="525.9" y="610.29" class="st0" width="27.21" height="108.85" />
		</g>
	</g>
</svg>
