<?xml version="1.0" encoding="utf-8"?>
<!-- Generator: Adobe Illustrator 24.1.0, SVG Export Plug-In . SVG Version: 6.00 Build 0)  -->
<svg version="1.1" id="Layer_1" xmlns="http://www.w3.org/2000/svg" xmlns:xlink="http://www.w3.org/1999/xlink" x="0px" y="0px"
	 viewBox="0 0 150 150" style="enable-background:new 0 0 150 150;" xml:space="preserve">
<style type="text/css">
	.st0{fill:#5B3483;}
</style>
<g>
	<g>
		<path class="st0" d="M5.88,23.08c0.43-1.45,0.76-2.95,1.31-4.36c1.61-4.13,5.79-8.4,12.48-8.38c33.53,0.1,67.06,0.14,100.59-0.03
			c8.38-0.04,13.27,6.56,13.89,12.84c0.11,1.12,0.14,2.25,0.14,3.37c0.01,18.41,0,36.82,0.04,55.22c0,0.72,0.28,1.67,0.78,2.12
			c3.23,2.88,2.98,7.34,0.16,9.74c-0.1,0.08-0.15,0.22-0.2,0.3c0.57,1.4,1.08,2.79,1.72,4.12c0.18,0.37,0.73,0.75,1.14,0.79
			c4.02,0.38,6.19,2.69,6.2,6.7c0,1.44,0.02,2.88-0.01,4.32c-0.07,3.4-2.56,6-5.95,6.09c-0.93,0.02-1.42,0.27-1.59,1.18
			c-0.06,0.3-0.17,0.62-0.32,0.88c-0.99,1.71-1.29,3.11,0.28,4.92c1.67,1.93,1.17,5.01-0.59,6.96c-1.26,1.4-2.6,2.75-4,4.02
			c-2.39,2.17-5.85,2.14-8.2-0.09c-0.72-0.69-1.29-0.8-2.06-0.28c-0.04,0.02-0.08,0.04-0.12,0.05c-2.24,0.67-3.86,1.55-4.12,4.43
			c-0.22,2.45-2.92,4.07-5.5,4.14c-1.66,0.04-3.33,0.03-5,0.01c-3.38-0.05-5.92-2.35-6.13-5.74c-0.07-1.16-0.53-1.53-1.52-1.94
			c-2.01-0.84-3.65-1.72-5.8,0.23c-1.78,1.61-4.84,0.95-6.71-0.75c-1.4-1.27-2.75-2.6-4.01-4c-2.18-2.42-2.15-5.83,0.1-8.19
			c0.69-0.73,0.77-1.27,0.27-2.07c-0.33-0.53-0.52-1.14-0.76-1.73c-0.79-2-0.79-2-3.01-2c-6.75,0-13.5,0.01-20.25,0
			c-1.72,0-2.84-0.86-3.06-2.25c-0.28-1.81,0.93-3.15,2.92-3.16c4.64-0.02,9.27-0.01,13.91-0.01c0.48,0,0.97,0,1.62,0
			c0-1.74-0.01-3.34,0-4.95c0.02-4.11,2.18-6.4,6.28-6.78c0.41-0.04,0.94-0.44,1.12-0.81c0.61-1.29,1.1-2.65,1.66-4.06
			c-0.28-0.31-0.62-0.66-0.94-1.04c-2.05-2.41-2.01-5.8,0.14-8.12c1.16-1.25,2.39-2.45,3.62-3.64c2.49-2.39,5.96-2.47,8.5-0.12
			c0.69,0.64,1.22,0.79,1.97,0.25c0.25-0.18,0.56-0.32,0.86-0.39c1.96-0.48,3.09-1.37,3.27-3.72c0.18-2.42,2.5-4.22,4.95-4.43
			c1.92-0.16,3.87-0.17,5.8-0.09c3.47,0.14,5.77,2.38,6.02,5.86c0.06,0.91,0.33,1.33,1.21,1.6c1.07,0.32,2.06,0.9,3.12,1.26
			c0.37,0.13,1.01,0.1,1.25-0.14c1.48-1.45,3.22-2.08,5.36-1.96c0-9.11,0-18.17,0-27.34c-39.09,0-78.17,0-117.41,0
			c0,0.52,0,1,0,1.48c0,15.71-0.03,31.41,0.04,47.12c0.01,1.71,0.33,3.53,0.96,5.11c1.3,3.25,3.75,5,7.43,4.93
			c4.77-0.09,9.54-0.03,14.31-0.02c2.07,0,3.3,1.04,3.28,2.73c-0.02,1.68-1.26,2.69-3.34,2.69c-4.64,0.01-9.28-0.17-13.91,0.04
			c-8.27,0.38-12.94-5.96-13.95-11.84c-0.05-0.3-0.17-0.59-0.26-0.88C5.88,76.55,5.88,49.82,5.88,23.08z M11.38,46.27
			c39.16,0,78.24,0,117.45,0c0-1.2,0-2.31,0-3.43c-0.01-6.17,0.09-12.33-0.07-18.5c-0.14-5.36-3.57-8.53-8.87-8.53
			c-4.41,0-8.82,0-13.23,0c-29.03,0-58.06,0.01-87.09-0.02c-2.54,0-4.56,0.86-6.1,2.85c-1.55,2-2.16,4.31-2.16,6.81
			c0,6.53,0,13.05,0,19.58C11.31,45.42,11.35,45.82,11.38,46.27z M132.09,125.85c-0.23-0.29-0.4-0.55-0.61-0.77
			c-0.5-0.52-1.02-1.02-1.52-1.53c-1.32-1.35-1.35-2.29-0.52-4c0.96-1.97,1.87-3.98,2.56-6.05c0.83-2.46,1.3-2.94,3.91-2.94
			c3.13,0,2.8,0.23,2.81-2.85c0.01-3.29,0-3.29-3.31-3.38c-1.9-0.05-2.6-0.73-3.25-2.6c-0.74-2.11-1.57-4.2-2.56-6.2
			c-1.04-2.1-1.04-2.9,0.59-4.54c2.11-2.13,2.11-2.13,0.01-4.24c-2.25-2.25-2.25-2.25-4.53-0.05c-1.48,1.44-2.4,1.47-4.22,0.59
			c-2.09-1-4.25-1.9-6.45-2.66c-1.95-0.67-2.61-1.37-2.63-3.5c-0.04-3.01-0.04-3.01-2.99-3.01c-3.22,0-3.22,0-3.25,3.17
			c-0.02,2.05-0.65,2.72-2.58,3.38c-2.07,0.71-4.12,1.53-6.08,2.51c-2.16,1.08-2.94,1.08-4.65-0.6c-2.37-2.33-1.77-2.32-4.16,0.04
			c-2.28,2.25-2.27,2.26-0.07,4.52c1.51,1.55,1.52,2.37,0.58,4.33c-0.97,2.01-1.82,4.09-2.55,6.2c-0.67,1.95-1.39,2.62-3.5,2.65
			c-3.08,0.04-3.1,0.04-3.08,3.06c0.02,3.65-0.41,3.13,3.14,3.17c2.13,0.02,2.79,0.63,3.46,2.65c0.68,2.03,1.48,4.04,2.44,5.96
			c1.12,2.23,1.1,3-0.64,4.75c-2.34,2.35-2.26,1.73,0.02,4.04c2.31,2.34,2.32,2.33,4.71,0.03c1.37-1.32,2.3-1.37,4-0.54
			c1.97,0.96,3.98,1.88,6.05,2.58c2.52,0.84,3.02,1.34,3.03,4.01c0.01,3.07-0.29,2.73,2.75,2.74c3.44,0.01,3.44,0,3.49-3.38
			c0-0.13,0-0.27,0.01-0.4c0.03-1.39,0.77-2.19,2.05-2.69c2.46-0.96,4.91-1.94,7.31-3.02c1.32-0.59,2.43-0.49,3.46,0.49
			c0.62,0.59,1.23,1.19,1.82,1.81c0.49,0.51,0.94,0.61,1.48,0.05c0.97-1,1.97-1.97,2.94-2.97
			C131.77,126.42,131.9,126.14,132.09,125.85z"/>
		<path class="st0" d="M66.79,81.18c-2.23-2.5-4.37-4.91-6.51-7.33c-0.86-0.97-1.07-2.08-0.45-3.23c0.6-1.11,1.61-1.61,2.83-1.33
			c0.61,0.14,1.26,0.53,1.69,0.99c2.52,2.75,5,5.53,7.45,8.34c1.37,1.58,1.4,3.46,0.05,5.02c-2.47,2.86-4.98,5.67-7.52,8.46
			c-1.15,1.26-2.83,1.36-3.96,0.33c-1.15-1.04-1.21-2.66-0.06-3.98C62.41,86.06,64.55,83.69,66.79,81.18z"/>
		<path class="st0" d="M27.35,81.21c1.94,2.18,3.85,4.33,5.75,6.47c0.33,0.37,0.68,0.73,0.96,1.13c0.85,1.21,0.67,2.73-0.39,3.65
			c-1.05,0.91-2.65,0.91-3.67-0.13c-1.23-1.25-2.35-2.6-3.52-3.91c-1.38-1.54-2.78-3.07-4.12-4.64c-1.46-1.7-1.46-3.55,0.01-5.24
			c2.43-2.78,4.88-5.53,7.36-8.27c1.17-1.29,2.79-1.42,3.95-0.4c1.2,1.05,1.24,2.71,0.04,4.08c-1.84,2.1-3.71,4.17-5.56,6.26
			C27.9,80.5,27.66,80.83,27.35,81.21z"/>
		<path class="st0" d="M52.44,70.29c-0.52,2.16-1.11,4.65-1.71,7.14c-1.2,5.03-2.39,10.05-3.58,15.08
			c-0.03,0.13-0.08,0.26-0.12,0.39c-0.49,1.69-1.82,2.58-3.3,2.22c-1.52-0.37-2.36-1.74-1.96-3.45c1.11-4.82,2.27-9.62,3.42-14.43
			c0.65-2.71,1.27-5.43,1.98-8.12c0.37-1.4,1.7-2.18,2.99-1.95C51.53,67.42,52.46,68.55,52.44,70.29z"/>
		<path class="st0" d="M46.69,110.55c1.56-0.03,2.77,1.14,2.78,2.67c0.01,1.52-1.21,2.75-2.73,2.74c-1.44-0.01-2.68-1.2-2.74-2.63
			C43.94,111.84,45.17,110.58,46.69,110.55z"/>
		<path class="st0" d="M99,40.34c-4.14,0-8.28,0.08-12.42-0.02c-4.63-0.11-8.33-3.67-8.82-8.29c-0.45-4.27,2.41-8.43,6.66-9.59
			c0.9-0.25,1.86-0.37,2.79-0.37c7.83-0.03,15.66-0.05,23.48,0c3.95,0.02,6.96,1.77,8.61,5.41c1.55,3.42,1.04,6.69-1.33,9.6
			c-1.81,2.22-4.26,3.25-7.11,3.27c-3.96,0.03-7.92,0.01-11.88,0.01C99,40.35,99,40.34,99,40.34z M99.04,27.53
			c-4,0-8.01-0.04-12.01,0.02c-2.27,0.03-3.86,1.63-3.85,3.68c0.01,2.06,1.61,3.67,3.87,3.68c7.92,0.04,15.83,0.02,23.75,0.01
			c1.55,0,2.8-0.65,3.51-2.08c1.26-2.52-0.52-5.23-3.53-5.28C106.87,27.47,102.96,27.52,99.04,27.53z"/>
		<path class="st0" d="M63.95,31.27c-0.03,4.99-4.13,9.07-9.12,9.07c-5.03,0-9.19-4.19-9.14-9.21c0.06-5,4.17-9.08,9.14-9.08
			C59.87,22.06,63.97,26.21,63.95,31.27z M58.52,31.18c-0.01-2.02-1.71-3.67-3.75-3.64c-2,0.03-3.58,1.62-3.59,3.63
			c-0.02,2.05,1.63,3.73,3.65,3.73C56.83,34.9,58.53,33.18,58.52,31.18z"/>
		<path class="st0" d="M22.04,31.25c-0.02-5.07,4.09-9.21,9.13-9.2c5,0.02,9.07,4.09,9.09,9.1c0.02,5.08-4.07,9.2-9.13,9.19
			C26.13,40.33,22.06,36.27,22.04,31.25z M34.81,31.25c0.02-2.05-1.61-3.71-3.65-3.71c-1.98,0-3.62,1.59-3.67,3.56
			c-0.05,2.03,1.58,3.74,3.59,3.8C33.08,34.95,34.79,33.27,34.81,31.25z"/>
		<path class="st0" d="M92.73,107.4c0-9.2,7.45-16.63,16.65-16.61c9.18,0.02,16.66,7.52,16.62,16.67
			c-0.04,9.07-7.54,16.56-16.62,16.58C100.24,124.06,92.74,116.57,92.73,107.4z M98.19,107.46c0.03,6.15,5.05,11.16,11.18,11.14
			c6.12-0.02,11.16-5.06,11.17-11.18c0.01-6.19-5.05-11.2-11.28-11.17C103.1,96.27,98.17,101.27,98.19,107.46z"/>
	</g>
</g>
</svg>
