<?xml version="1.0" encoding="utf-8"?>
<!-- Generator: Adobe Illustrator 24.1.0, SVG Export Plug-In . SVG Version: 6.00 Build 0)  -->
<svg version="1.1" id="Layer_1" xmlns="http://www.w3.org/2000/svg" xmlns:xlink="http://www.w3.org/1999/xlink" x="0px" y="0px"
	 viewBox="0 0 150 150" style="enable-background:new 0 0 150 150;" xml:space="preserve">
<style type="text/css">
	.st0{fill:#5B3483;}
</style>
<g>
	<g>
		<path class="st0" d="M5.65,24.67c0.09-0.34,0.19-0.68,0.26-1.03c0.56-2.79,2.92-4.8,5.78-4.86c2.01-0.04,4.02-0.01,6.03-0.01
			c30.35,0,60.7,0,91.05,0c2.15,0,3.13,0.64,3.1,2.05c-0.03,1.37-0.96,1.97-3.05,1.97c-31.96,0-63.92,0-95.88,0
			c-2.63,0-3.13,0.49-3.13,3.12c0,25.12,0,50.24,0,75.36c0,0.48,0,0.97,0,1.65c0.65,0,1.17,0,1.69,0c10.55,0,21.1,0,31.65,0
			c0.4,0,0.81-0.01,1.21,0.01c1.33,0.06,2.09,0.75,2.13,1.92c0.04,1.2-0.76,2.04-2.13,2.08c-1.83,0.06-3.66,0.02-5.5,0.02
			c-0.48,0-0.96,0-1.52,0c0,6.77,0,13.4,0,20.18c0.56,0,1.08,0,1.61,0c23.2,0,46.4,0,69.6,0c0.4,0,0.81-0.02,1.21,0.01
			c1.27,0.07,2.09,0.84,2.11,1.96c0.03,1.18-0.82,1.99-2.16,2.05c-0.4,0.02-0.8,0-1.21,0c-31.6,0-63.2,0-94.81,0
			c-5.25,0-6.57-0.97-8.06-5.9C5.65,91.73,5.65,58.2,5.65,24.67z M9.91,107.03c-0.03,0.42-0.08,0.76-0.08,1.11
			c0,5.45-0.01,10.9,0,16.36c0,1.99,0.68,2.64,2.67,2.64c6.48,0.01,12.96,0,19.44,0c0.39,0,0.78-0.04,1.24-0.06
			c0-6.71,0-13.34,0-20.04C25.4,107.03,17.69,107.03,9.91,107.03z"/>
		<path class="st0" d="M138.99,106.96c-0.64,0-1.21,0-1.78,0c-27.76,0-55.51,0-83.27,0c-0.58,0-1.18,0.03-1.73-0.09
			c-1.11-0.24-1.69-1-1.59-2.14c0.1-1.07,0.75-1.69,1.84-1.77c0.49-0.04,0.98-0.02,1.47-0.02c27.76,0,55.51,0,83.27,0
			c0.57,0,1.14,0,1.88,0c0-0.64,0-1.12,0-1.6c0-25.16,0-50.33,0-75.49c0-2.53-0.53-3.04-3.08-3.04c-5.68,0-11.35,0-17.03,0
			c-0.36,0-0.72,0.02-1.07-0.01c-1.15-0.1-1.96-0.93-1.97-1.98c-0.01-1.05,0.8-1.9,1.94-2.02c0.27-0.03,0.54-0.01,0.8-0.01
			c5.99,0,11.98,0.09,17.97-0.04c3.34-0.07,6.42,2.66,6.41,6.35c-0.1,33.3-0.1,66.6,0,99.9c0.01,3.28-2.77,6.23-6.14,6.2
			c-6.17-0.07-12.34-0.01-18.5-0.02c-1.54,0-2.48-0.8-2.47-2.03c0.02-1.23,0.95-1.98,2.51-1.99c5.94-0.01,11.89,0,17.83,0
			c2.17,0,2.8-0.62,2.8-2.78c0.01-5.36,0-10.73,0-16.09C139.08,107.88,139.03,107.49,138.99,106.96z"/>
		<path class="st0" d="M70.29,61.61c0,2.75,0.01,5.12,0,7.48c-0.01,2-0.67,2.71-2.62,2.72c-4.65,0.02-9.3,0.02-13.94,0
			c-1.6-0.01-2.47-0.75-2.48-2.02c-0.01-1.24,0.82-2,2.32-2.01c3.71-0.03,7.42-0.01,11.13-0.01c0.48,0,0.96,0,1.57,0
			c0-2.83,0.14-5.51-0.04-8.16c-0.16-2.43,0.5-4.4,2.04-6.26c1.61-1.95,2.99-4.1,4.69-6.47c-1.48,0-2.72,0.16-3.9-0.03
			c-3.18-0.53-5.48,0.59-7.13,3.32c-0.55,0.91-1.34,1.67-2.07,2.46c-0.85,0.93-2.01,1.05-2.87,0.37c-0.91-0.72-1.02-1.94-0.17-2.97
			c1.76-2.14,3.54-4.27,5.4-6.31c0.42-0.46,1.22-0.81,1.85-0.82c4.2-0.07,8.4-0.08,12.6,0c0.68,0.01,1.46,0.4,2.01,0.85
			c2.75,2.21,5.41,4.53,8.17,6.74c0.54,0.43,1.32,0.72,2.01,0.76c2.1,0.1,4.2,0.02,6.3,0.04c1.59,0.01,2.49,0.74,2.51,1.99
			c0.03,1.31-0.86,2.04-2.56,2.04c-2.23,0.01-4.47-0.07-6.7,0.03c-1.48,0.06-2.64-0.35-3.75-1.35c-2.36-2.1-4.84-4.07-7.38-6.2
			c-2.14,2.98-4.22,5.86-6.04,8.39c2,2.18,3.82,4.26,5.74,6.25c1.55,1.61,3.26,3.06,4.78,4.7c0.52,0.56,0.93,1.46,0.95,2.21
			c0.1,3.71,0.06,7.42,0.03,11.13c-0.01,1.46-0.81,2.37-1.98,2.37c-1.17,0.01-2.01-0.91-2.03-2.35c-0.03-3.17,0.04-6.35-0.05-9.52
			c-0.02-0.7-0.37-1.56-0.86-2.06C75.45,66.51,72.98,64.2,70.29,61.61z"/>
		<path class="st0" d="M108.13,119.07c-6.97,0-13.95,0.02-20.92-0.02c-0.94,0-1.47,0.18-1.96,1.11c-1.22,2.32-3.26,3.52-5.9,3.48
			c-2.6-0.04-4.54-1.3-5.72-3.57c-0.43-0.83-0.89-1.02-1.73-1.01c-7.78,0.03-15.56,0.02-23.33,0.02c-0.4,0-0.81,0.02-1.21-0.03
			c-1.15-0.14-1.93-1-1.91-2.05c0.02-1.07,0.82-1.86,1.99-1.94c0.4-0.03,0.8-0.01,1.21-0.01c7.69,0,15.38-0.02,23.07,0.02
			c0.95,0.01,1.46-0.22,1.94-1.12c1.22-2.31,3.23-3.53,5.89-3.5c2.6,0.03,4.56,1.25,5.73,3.53c0.45,0.87,0.95,1.08,1.85,1.08
			c13.86-0.02,27.71-0.02,41.57-0.02c0.45,0,0.9-0.02,1.34,0.01c1.19,0.09,1.95,0.85,1.96,1.95c0.02,1.09-0.72,1.91-1.89,2.05
			c-0.4,0.05-0.8,0.02-1.21,0.02C121.99,119.07,115.06,119.07,108.13,119.07z M79.51,114.48c-1.45-0.02-2.57,1.05-2.6,2.49
			c-0.03,1.47,1.14,2.67,2.6,2.65c1.38-0.02,2.56-1.21,2.56-2.59C82.07,115.64,80.93,114.5,79.51,114.48z"/>
		<path class="st0" d="M32.13,89.39c-0.38,0.59-0.63,1.17-1.04,1.6c-1.7,1.76-3.44,3.5-5.2,5.21c-1.13,1.1-2.15,1.1-3.26,0.02
			c-1.79-1.75-3.55-3.51-5.3-5.3c-1.02-1.05-1.03-2.13-0.02-3.18c1.78-1.82,3.57-3.62,5.4-5.39c1.01-0.98,2.05-1,3.07-0.01
			c1.86,1.8,3.69,3.63,5.48,5.49C31.64,88.22,31.81,88.8,32.13,89.39z M21.76,89.21c0.84,0.94,1.68,1.89,2.37,2.66
			c0.96-0.9,1.87-1.74,2.79-2.61c-0.88-0.89-1.75-1.76-2.69-2.7C23.36,87.5,22.51,88.4,21.76,89.21z"/>
		<path class="st0" d="M132.49,89.33c-0.31,0.56-0.49,1.13-0.86,1.52c-1.76,1.83-3.56,3.63-5.38,5.4c-1.07,1.04-2.1,1.04-3.17,0
			c-1.82-1.77-3.62-3.57-5.39-5.39c-1-1.03-1-2.04-0.01-3.07c1.8-1.86,3.63-3.69,5.49-5.48c0.96-0.93,2-0.94,2.97-0.01
			c1.89,1.83,3.75,3.7,5.57,5.59C132.06,88.24,132.2,88.78,132.49,89.33z M124.68,91.93c0.89-0.87,1.77-1.74,2.52-2.48
			c-0.84-0.96-1.67-1.92-2.44-2.8c-0.98,0.94-1.87,1.79-2.78,2.67C122.9,90.2,123.79,91.06,124.68,91.93z"/>
		<path class="st0" d="M82.35,42.73c-3.88-0.01-6.98-3.13-6.95-7c0.02-3.79,3.12-6.89,6.92-6.93c3.82-0.04,7.02,3.12,7.02,6.96
			C89.35,39.63,86.23,42.74,82.35,42.73z M82.4,38.69c1.6-0.01,2.89-1.28,2.91-2.87c0.02-1.62-1.33-2.98-2.97-2.96
			c-1.58,0.02-2.89,1.31-2.91,2.89C79.41,37.37,80.74,38.7,82.4,38.69z"/>
		<path class="st0" d="M36.87,91.34c-1.52,0.02-2.47-0.74-2.51-1.98c-0.03-1.24,0.92-2.06,2.41-2.07c1.54-0.02,2.46,0.71,2.48,1.98
			C39.29,90.55,38.39,91.33,36.87,91.34z"/>
		<path class="st0" d="M61.88,91.34c-1.52-0.01-2.42-0.79-2.4-2.07c0.02-1.26,0.94-2,2.48-1.99c1.48,0.01,2.45,0.84,2.42,2.07
			C64.35,90.58,63.38,91.36,61.88,91.34z"/>
		<path class="st0" d="M70.34,91.34c-1.55,0.02-2.46-0.69-2.5-1.96c-0.04-1.29,0.84-2.07,2.37-2.09c1.54-0.02,2.47,0.71,2.51,1.96
			C72.76,90.53,71.85,91.32,70.34,91.34z"/>
		<path class="st0" d="M78.58,91.34c-1.52-0.02-2.42-0.8-2.39-2.08c0.03-1.26,0.96-1.99,2.5-1.97c1.53,0.02,2.41,0.79,2.38,2.08
			C81.04,90.64,80.13,91.36,78.58,91.34z"/>
		<path class="st0" d="M86.95,87.29c1.53-0.02,2.46,0.72,2.48,1.98c0.03,1.28-0.88,2.06-2.39,2.07c-1.5,0.02-2.48-0.76-2.51-1.98
			C84.5,88.13,85.46,87.31,86.95,87.29z"/>
		<path class="st0" d="M112.06,91.34c-1.52-0.01-2.42-0.78-2.41-2.06c0.02-1.27,0.93-2.01,2.46-2c1.5,0.01,2.45,0.81,2.43,2.05
			C114.52,90.59,113.57,91.35,112.06,91.34z"/>
		<path class="st0" d="M45.2,91.35c-1.49,0.01-2.48-0.79-2.49-2.01c-0.01-1.22,0.97-2.04,2.45-2.04c1.5-0.01,2.47,0.77,2.48,2.01
			C47.66,90.54,46.7,91.34,45.2,91.35z"/>
		<path class="st0" d="M53.53,91.34c-1.49-0.01-2.46-0.82-2.45-2.05c0.01-1.23,0.99-2.01,2.49-2c1.48,0.01,2.47,0.83,2.45,2.05
			C56.01,90.56,55.02,91.35,53.53,91.34z"/>
		<path class="st0" d="M95.3,91.34c-1.48-0.02-2.46-0.86-2.42-2.08c0.04-1.21,1.03-1.99,2.53-1.97c1.48,0.02,2.45,0.85,2.41,2.08
			C97.79,90.6,96.81,91.36,95.3,91.34z"/>
		<path class="st0" d="M103.71,91.35c-1.5,0-2.46-0.8-2.45-2.04c0.01-1.23,0.97-2.02,2.48-2.01c1.48,0.01,2.47,0.82,2.46,2.04
			C106.18,90.55,105.2,91.35,103.71,91.35z"/>
		<path class="st0" d="M15.3,116.96c0-1.16-0.03-2.32,0.01-3.48c0.04-1.19,0.81-1.97,1.89-2.02c1.13-0.05,2.07,0.74,2.1,1.97
			c0.06,2.41,0.06,4.82,0,7.23c-0.03,1.23-0.96,2-2.1,1.95c-1.08-0.05-1.84-0.83-1.88-2.02C15.27,119.37,15.3,118.17,15.3,116.96z"
			/>
		<path class="st0" d="M27.41,117.06c0,1.16,0.03,2.32-0.01,3.48c-0.04,1.28-0.82,2.06-1.98,2.07c-1.14,0-1.99-0.78-2.02-2.04
			c-0.05-2.36-0.06-4.73,0-7.09c0.03-1.24,0.94-2.04,2.06-2.01c1.13,0.03,1.87,0.84,1.94,2.12c0,0.09,0,0.18,0,0.27
			C27.42,114.92,27.42,115.99,27.41,117.06C27.41,117.06,27.41,117.06,27.41,117.06z"/>
	</g>
</g>
</svg>
