<?xml version="1.0" encoding="utf-8"?>
<!-- Generator: Adobe Illustrator 24.1.0, SVG Export Plug-In . SVG Version: 6.00 Build 0)  -->
<svg version="1.1" id="Layer_1" xmlns="http://www.w3.org/2000/svg" xmlns:xlink="http://www.w3.org/1999/xlink" x="0px" y="0px"
	 viewBox="0 0 321.22 279.88" style="enable-background:new 0 0 321.22 279.88;" xml:space="preserve">
<style type="text/css">
	.st0{fill:#5B3483;}
</style>
<g>
	<path class="st0" d="M27.69,220.68c0.44-1.87,0.79-3.77,1.33-5.61c4.28-14.5,13.51-24.2,28.12-28.47c2.08-0.61,2.28-1.67,2.27-3.42
		c-0.03-27.72-0.02-55.44-0.02-83.16c0-1.06-0.04-2.13,0.1-3.18c0.26-2.03,1.53-3.18,3.54-3.33c2.13-0.15,3.61,0.86,4.11,2.96
		c0.24,1.02,0.23,2.11,0.23,3.16c0.01,19.22,0.01,38.44,0.01,57.66c0,0.96,0,1.92,0,3.49c0.81-0.93,1.26-1.38,1.64-1.89
		c4.34-5.95,9.64-10.86,16.09-14.42c1.75-0.96,2.21-2.07,2.21-3.96c-0.06-31.26-0.04-62.53-0.04-93.79c0-4.5,0.69-5.36,5.27-6.39
		c-5.05-5.38-10.01-10.65-15.2-16.18c-5.08,5.4-10.07,10.7-15.14,16.09c4.66,1.32,5.18,2.01,5.18,6.72c0,10.8,0.01,21.61-0.01,32.41
		c0,1.05-0.02,2.15-0.28,3.15c-0.52,1.97-1.97,2.91-3.98,2.79c-2.01-0.12-3.29-1.23-3.61-3.25c-0.14-0.87-0.11-1.77-0.11-2.65
		c-0.01-9.21,0-18.42,0-27.63c0-0.95,0-1.9,0-3.16c-2.45,0-4.61,0.29-6.63-0.1c-1.36-0.26-3.13-1.22-3.63-2.35
		c-0.5-1.13-0.17-3.33,0.68-4.26c8.06-8.83,16.28-17.51,24.52-26.17c1.87-1.96,4.18-1.93,6.07,0.06
		c8.17,8.6,16.34,17.21,24.33,25.99c0.9,0.99,1.25,3.25,0.76,4.49c-0.43,1.1-2.32,1.99-3.7,2.25c-1.95,0.38-4.04,0.1-6.3,0.1
		c0,30.42,0,60.65,0,90.51c6.82-0.66,13.71-1.32,20.81-2.01c0-17.57,0-35.6,0-54.06c-2.01,0-4.15,0.3-6.15-0.1
		c-1.45-0.29-3.37-1.23-3.87-2.4c-0.51-1.17-0.03-3.45,0.88-4.45c7.87-8.64,15.92-17.12,23.96-25.61c2.2-2.33,4.48-2.37,6.64-0.09
		c8.04,8.49,16.02,17.03,24.05,25.53c1.28,1.35,1.83,2.81,1.09,4.58c-0.78,1.86-2.22,2.62-4.22,2.55c-1.93-0.07-3.87-0.01-5.99-0.01
		c0,6.67,0,13.15,0,19.27c6.82-2.22,13.67-4.45,20.84-6.79c0-13,0-26.59,0-40.63c-2.1,0-4.24,0.3-6.24-0.1
		c-1.45-0.29-3.36-1.22-3.87-2.39c-0.51-1.17-0.05-3.46,0.87-4.46c7.93-8.7,16.04-17.25,24.15-25.79c2.02-2.13,4.43-2.09,6.49,0.08
		c8.04,8.49,16.02,17.03,24.04,25.54c1.35,1.44,2.1,3.21,0.89,4.77c-0.89,1.14-2.58,1.96-4.04,2.26c-1.87,0.38-3.87,0.09-6.06,0.09
		c-0.07,0.89-0.19,1.65-0.19,2.4c-0.01,14.7-0.03,29.4,0.05,44.1c0.01,0.95,0.6,2.32,1.35,2.79c7.88,4.91,14.28,11.28,19.54,19.6
		c0-10.05,0-19.58,0-29.51c-2.01,0-4.1-0.04-6.19,0.01c-1.91,0.05-3.54-0.72-3.87-2.52c-0.24-1.36,0.01-3.35,0.88-4.3
		c7.94-8.7,16.05-17.24,24.15-25.79c2.18-2.3,4.44-2.27,6.65,0.06c8.04,8.49,16.09,16.97,23.96,25.61c0.91,1,1.2,3.08,0.95,4.52
		c-0.32,1.81-2.03,2.48-3.93,2.42c-2.01-0.06-4.03-0.01-6.34-0.01c0,2.73,0,5.19,0,7.64c0,7.26,0.04,14.52-0.02,21.79
		c-0.02,3.28-2.31,5.26-5.08,4.45c-2.34-0.69-2.91-2.51-2.9-4.77c0.04-10.27,0.02-20.55,0.02-30.82c0-4.84,0.36-5.32,5.12-6.67
		c-5.02-5.34-9.97-10.59-15.13-16.07c-5.12,5.43-10.08,10.68-14.94,15.83c1.49,0.87,3.3,1.37,4.1,2.55
		c0.79,1.16,0.76,3.01,0.77,4.56c0.05,16.74,0.03,33.48,0.03,50.22c0,0.96,0,1.92,0,2.71c6.71,0.99,13.21,1.96,20.05,2.97
		c0-2.49-0.02-5.19,0.01-7.89c0.03-3.05,1.36-4.66,3.82-4.73c2.56-0.07,4.1,1.65,4.14,4.74c0.04,3.19,0.1,6.38-0.03,9.56
		c-0.07,1.64,0.5,2.51,1.93,3.31c15.6,8.73,25.54,21.81,29.61,39.23c7.86,33.62-15.66,67.61-49.95,71.85
		c-7.43,0.92-15.02,0.54-22.54,0.67c-5.58,0.09-11.16,0.02-16.74,0.02c-4.39,0-6.26-1.17-6.29-3.92c-0.03-2.76,1.98-4.08,6.21-4.08
		c10.36,0,20.72,0.04,31.09-0.01c29.64-0.14,52.68-24.09,51.7-53.74c-0.92-27.83-25.38-50.54-53.18-49.35
		c-0.71,0.03-1.41,0.09-2.12,0.1c-4.38,0.07-5.46-0.92-5.78-5.31c-1.65-22.48-20.86-42.14-43.11-44.93
		c-26.64-3.35-51.13,14.53-55.86,40.25c-0.71,3.84-2.77,4.76-6.95,3.37c-24.6-8.15-50.42,6.2-56.39,31.41
		c-0.65,2.74-0.9,5.59-1.13,8.4c-0.35,4.43-0.94,5.03-5.17,5.92c-13.16,2.79-21.89,10.69-25.28,23.66
		c-5.39,20.63,9.95,40.13,31.31,40.19c25.59,0.07,51.19,0.02,76.78,0.02c14.61,0,29.23,0,43.84,0.01c0.97,0,1.97-0.03,2.9,0.21
		c2.06,0.53,3.15,1.94,3,4.1c-0.15,2.15-1.4,3.38-3.54,3.62c-0.96,0.11-1.95,0.07-2.92,0.07c-39.32,0-78.65-0.34-117.97,0.13
		c-24.12,0.28-40.2-17.37-42.13-34.88c-0.04-0.34-0.26-0.65-0.39-0.98C27.69,226.71,27.69,223.7,27.69,220.68z M176.32,46.7
		c4.47,0.75,5.35,1.81,5.36,6.08c0.01,13.37,0,26.74,0,40.11c0,0.94,0,1.87,0,2.34c6.89,1.32,13.32,2.55,19.88,3.81
		c0-0.85,0-1.82,0-2.79c0-14.43,0-28.86,0-43.29c0-4.43,0.77-5.39,5.29-6.33c-5.11-5.44-10.12-10.76-15.22-16.19
		C186.53,35.85,181.57,41.13,176.32,46.7z M124.46,138.28c0.35-0.37,0.49-0.46,0.56-0.6c0.13-0.23,0.24-0.48,0.32-0.73
		c3.3-10.87,9.34-19.94,17.89-27.4c0.77-0.67,1.21-2.11,1.22-3.2c0.1-8.14,0.02-16.29,0.08-24.43c0.01-1.64-0.09-3.58,0.72-4.84
		c0.79-1.23,2.67-1.77,4.15-2.67c-4.86-5.15-9.86-10.45-14.93-15.83c-5.24,5.57-10.19,10.84-15.25,16.22
		c4.49,0.85,5.23,1.74,5.23,6.02c0,18.24,0,36.47,0,54.71C124.46,136.36,124.46,137.19,124.46,138.28z"/>
	<path class="st0" d="M238.8,203.29c-0.01,14.56-11.83,26.39-26.35,26.38c-14.46-0.02-26.37-11.95-26.37-26.41
		c0-14.51,11.85-26.31,26.41-26.31C227.11,176.95,238.82,188.68,238.8,203.29z M230.82,203.28c0.01-10.22-8.11-18.35-18.33-18.35
		c-10.15,0-18.42,8.23-18.42,18.33c0,10.07,8.35,18.43,18.4,18.43C222.58,221.7,230.81,213.43,230.82,203.28z"/>
	<path class="st0" d="M130.27,176.95c5.24-0.01,9.87,1.81,14.12,4.73c2.47,1.7,3.09,4.14,1.66,6.11c-1.39,1.93-3.64,2.15-6.1,0.51
		c-3.49-2.33-7.23-3.9-11.47-3.2c-1.75,0.29-3.65,1.01-4.98,2.14c-2.99,2.54-2.2,6.55,1.41,8.09c3.74,1.6,7.57,2.99,11.28,4.64
		c2.17,0.96,4.38,2.01,6.24,3.44c7.84,6.04,7.83,16.04,0.09,22.23c-9.74,7.79-24.37,3.12-30.42-4.25c-1.45-1.76-1.14-3.67,0.45-5.25
		c1.59-1.58,3.84-1.52,5.69,0.31c2.96,2.93,6.48,4.58,10.55,5.1c3.48,0.45,6.73-0.17,9.36-2.68c2.98-2.85,2.91-6.36-0.3-8.92
		c-1.36-1.08-3-1.87-4.6-2.56c-3.73-1.61-7.5-3.13-11.3-4.59c-4.76-1.83-7.5-5.32-8.08-10.27c-0.6-5.04,1.38-9.18,5.43-12.26
		C122.53,177.8,126.27,176.92,130.27,176.95z"/>
	<path class="st0" d="M163.61,207.3c0,4.83,0,9.3,0,14.14c1.17,0,2.2,0,3.23,0c3.81,0.02,7.62-0.06,11.42,0.09
		c2.33,0.09,3.88,1.84,3.89,3.92c0,2.08-1.53,3.88-3.87,3.92c-6.28,0.13-12.57,0.15-18.85,0c-2.86-0.07-3.94-1.68-3.95-5.19
		c-0.02-13.99-0.01-27.98-0.01-41.97c0-0.18,0-0.35,0.01-0.53c0.16-3.13,1.53-4.55,4.61-4.57c5.84-0.05,11.69-0.05,17.53,0
		c2.82,0.02,4.62,1.73,4.54,4.1c-0.08,2.27-1.83,3.83-4.53,3.86c-4.59,0.05-9.18,0.01-13.96,0.01c0,4.76,0,9.3,0,14.25
		c3.56,0,7.07,0,10.57,0c0.97,0,1.96-0.06,2.92,0.05c2.27,0.26,3.48,1.63,3.57,3.88c0.08,2.13-1.47,3.84-3.82,3.97
		c-3,0.16-6.02,0.06-9.03,0.06C166.56,207.31,165.24,207.3,163.61,207.3z"/>
</g>
</svg>
