<?xml version="1.0" encoding="utf-8"?>
<!-- Generator: Adobe Illustrator 24.1.0, SVG Export Plug-In . SVG Version: 6.00 Build 0)  -->
<svg version="1.1" id="Layer_1" xmlns="http://www.w3.org/2000/svg" xmlns:xlink="http://www.w3.org/1999/xlink" x="0px" y="0px"
	 viewBox="0 0 150 150" style="enable-background:new 0 0 150 150;" xml:space="preserve">
<style type="text/css">
	.st0{fill:#5B3483;}
</style>
<g>
	<g>
		<path class="st0" d="M8.35,20.78c0-0.87,0-1.74,0-2.6c0.08-0.33,0.18-0.66,0.25-0.99c1.3-6.25,7.74-10.23,13.72-8.47
			c8.59,2.52,11.04,12.69,4.52,18.89c-0.56,0.53-0.58,0.91-0.27,1.55c1.74,3.59,3.44,7.19,5.16,10.79c0.18,0.38,0.38,0.75,0.6,1.18
			c6.31-2.25,12.55-2.3,18.76,0.05c6.26,2.37,10.89,6.63,14.17,12.47c8.17-3.46,16.26-6.89,24.45-10.36
			c-1.66-5.14-1.79-10.27-0.33-15.41c-2.48-0.91-4.79-1.77-7.12-2.63c-0.18,0.23-0.32,0.39-0.45,0.56
			c-4.67,6.16-13.05,6.27-17.86,0.23c-2.7-3.39-2.96-8.3-0.64-12.35C65.37,10.08,69.89,7.84,74,8.4c6.08,0.82,10.08,5.59,9.87,11.71
			c-0.01,0.37,0.12,1,0.35,1.09c2.19,0.88,4.42,1.66,6.62,2.46C98.22,9.33,113.3,5.4,125.28,10.34
			c12.04,4.97,18.71,18.38,15.63,31.07c-2.86,11.81-15.89,23.52-32.86,19.35c-3.59,9.95-7.18,19.92-10.82,30.01
			c3.96,1.85,7.21,4.47,9.92,7.86c4.06-2.64,8.05-5.23,12.05-7.82c0.18-0.12,0.47-0.2,0.52-0.36c0.14-0.4,0.35-0.88,0.24-1.24
			c-2.03-6.54,2.6-13.4,9.39-14.16c4.19-0.47,8.66,1.7,10.76,5.42c2.29,4.06,1.98,8.92-0.77,12.33c-4.11,5.09-10.8,5.8-15.92,1.67
			c-0.57-0.46-0.95-0.56-1.57-0.11c-1.05,0.77-2.17,1.44-3.26,2.15c-2.97,1.93-5.95,3.87-8.97,5.83c0.27,0.59,0.49,1.1,0.73,1.6
			c6.45,13.93-0.49,30.69-14.92,35.94c-2.14,0.78-4.41,1.17-6.62,1.75c-1.74,0-3.47,0-5.21,0c-0.24-0.08-0.48-0.19-0.73-0.23
			c-7.18-0.93-13.11-4.18-17.53-9.89c-1.88-2.43-3.25-5.27-4.96-8.11c0.19,0,0.01-0.03-0.15,0c-2.99,0.7-6,1.37-8.97,2.16
			c-0.34,0.09-0.7,0.78-0.74,1.21c-0.64,6.65-6.09,11.05-12.71,10.22c-7.13-0.9-11.59-8.96-8.48-15.44
			c1.94-4.05,5.19-6.34,9.72-6.52c4.37-0.17,7.68,1.78,9.93,5.49c0.42,0.7,0.79,0.83,1.55,0.62c1.71-0.47,3.46-0.82,5.18-1.23
			c1.33-0.32,2.66-0.66,4.02-1c-1.07-8.5,1.3-15.82,6.86-22.12c-2.95-3.25-5.81-6.38-8.7-9.56c-8.49,6.05-17.53,7.08-27.19,3.17
			c-1.21,2.17-2.36,4.3-3.59,6.38c-0.42,0.71-0.27,1.13,0.25,1.68c0.62,0.66,1.17,1.39,1.65,2.16c2.93,4.77,1.52,11.1-3.23,14.54
			c-4.38,3.18-11.02,2.39-14.56-1.66c-1.59-1.82-2.42-3.95-2.9-6.26c0-0.78,0-1.56,0-2.34c0.08-0.28,0.16-0.56,0.22-0.85
			c0.71-3.48,2.6-6.08,5.73-7.77c2.69-1.45,5.52-1.63,8.49-0.79c1.36-2.45,2.69-4.85,4.02-7.25c-15.66-10.52-16.06-35.02,1.41-45.3
			c-2.03-4.27-4.07-8.54-6.08-12.77c-4.97,0.84-8.84-0.48-11.53-4.24C9.54,24.44,9.08,22.51,8.35,20.78z M93.06,89.24
			c3.65-10.13,7.24-20.09,10.85-30.09c-5.51-2.62-9.59-6.56-12.45-11.72c-0.25,0.07-0.38,0.1-0.5,0.15
			c-7.7,3.26-15.39,6.53-23.1,9.75c-0.89,0.37-0.73,0.84-0.55,1.51c1.95,7.21,1.14,14.09-2.63,20.56c-0.99,1.7-2.24,3.25-3.4,4.92
			c2.87,3.15,5.75,6.31,8.64,9.48C76.98,88.68,84.62,87.13,93.06,89.24z M102.86,129.43c8.25-9.17,6.94-23.9-2.66-31.65
			c-10.01-8.09-24.36-6.24-32.02,4.13c-7.07,9.57-4.37,22.05,1.24,27.27c1.71-4.07,4.66-6.91,8.67-8.7
			c-4.9-5.67-3.35-12.36,0.4-15.81c4.38-4.02,10.67-4.04,15.11-0.06c3.64,3.27,5.51,10.02,0.47,15.88
			C98.15,122.28,101.08,125.22,102.86,129.43z M131.76,49.32c7.14-7.7,7.86-21.46-1.31-30.29c-9.27-8.92-23.62-8.33-32.14,1.33
			c-8.27,9.37-6.33,22.51-0.21,28.7c1.22-1.67,2.29-3.54,3.75-5.01c1.46-1.46,3.31-2.53,4.99-3.77c-4.71-5.54-3.1-12.01,0.39-15.45
			c3.82-3.76,10.01-4.25,14.2-1.15c2.28,1.69,3.81,3.9,4.4,6.69c0.8,3.81-0.29,7.15-2.87,10.11
			C127.16,42.31,130.01,45.26,131.76,49.32z M58.46,80.41c7.04-7.51,7.86-21.35-1.28-30.22c-9.27-9-23.77-8.38-32.32,1.42
			c-8.13,9.31-6.18,22.47,0.09,28.76c1.71-4.07,4.62-6.96,8.65-8.73c-5.15-6.26-2.88-12.68,0.32-15.73c3.86-3.68,9.76-4.18,14-1.19
			c2.28,1.61,3.82,3.77,4.46,6.5c0.92,3.9-0.13,7.34-2.72,10.34C54.63,74.39,54.63,74.39,58.46,80.41z M54.68,83.92
			c-1.35-5.12-4.77-8.37-9.61-8.83c-2.44-0.23-4.97-0.27-7.39,0.09c-4.52,0.68-7.41,3.46-8.85,7.79c-0.23,0.69-0.14,1.07,0.48,1.51
			C36.6,89.7,47.54,89.49,54.68,83.92z M85.96,123.91c-0.87,0-1.87-0.05-2.87,0.01c-4.43,0.24-8.48,3.5-9.77,7.75
			c-0.28,0.91-0.08,1.38,0.7,1.9c7.37,4.88,17.28,4.81,24.47-0.28c0.3-0.21,0.51-0.87,0.42-1.24c-0.6-2.39-1.95-4.31-3.87-5.84
			C92.4,124.1,89.32,123.66,85.96,123.91z M115.12,43.95c-1.13,0-2.26-0.06-3.38,0.01c-4.34,0.28-8.46,3.76-9.57,7.98
			c-0.18,0.69-0.04,1.08,0.56,1.5c7.12,4.95,17.6,4.93,24.63-0.04c0.56-0.39,0.7-0.75,0.51-1.38c-0.7-2.42-2.05-4.37-4.03-5.9
			C121.26,44.09,118.26,43.69,115.12,43.95z M72.78,26.03c3.65,0,6.63-2.95,6.66-6.59c0.02-3.63-2.95-6.65-6.57-6.71
			c-3.66-0.05-6.72,3-6.71,6.69C66.16,23.07,69.13,26.02,72.78,26.03z M121.65,32.7c-0.01-3.64-3-6.63-6.63-6.64
			c-3.6-0.01-6.64,3.01-6.66,6.63c-0.03,3.68,3.02,6.71,6.72,6.67C118.76,39.32,121.66,36.37,121.65,32.7z M19.48,99.42
			c-3.64-0.01-6.65,2.95-6.69,6.58c-0.04,3.66,3.03,6.73,6.71,6.71c3.65-0.02,6.6-3,6.59-6.66C26.09,102.4,23.13,99.43,19.48,99.42z
			 M32.82,126.07c0,3.63,3,6.64,6.62,6.66c3.6,0.02,6.65-3,6.68-6.61c0.03-3.7-2.98-6.71-6.69-6.69
			C35.75,119.46,32.81,122.41,32.82,126.07z M26.09,19.38c-0.01-3.64-2.99-6.63-6.62-6.65c-3.6-0.02-6.65,3-6.68,6.61
			c-0.03,3.67,3.01,6.7,6.71,6.68C23.16,26,26.1,23.04,26.09,19.38z M130.57,92.7c3.64,0,6.64-2.96,6.67-6.59
			c0.03-3.6-2.97-6.66-6.59-6.71c-3.66-0.05-6.72,2.99-6.71,6.69C123.95,89.75,126.9,92.69,130.57,92.7z M86.08,106.09
			c-3.65,0.01-6.63,2.97-6.64,6.62c-0.01,3.64,2.93,6.63,6.59,6.69c3.65,0.06,6.72-3.01,6.7-6.7
			C92.71,109.04,89.73,106.08,86.08,106.09z M48.27,63.81c-0.02-3.67-2.96-6.6-6.63-6.6c-3.64,0-6.64,2.96-6.67,6.6
			c-0.04,3.62,3.1,6.74,6.73,6.7C45.33,70.46,48.29,67.45,48.27,63.81z"/>
	</g>
</g>
</svg>
