<?xml version="1.0" encoding="utf-8"?>
<!-- Generator: Adobe Illustrator 24.1.0, SVG Export Plug-In . SVG Version: 6.00 Build 0)  -->
<svg version="1.1" id="Layer_1" xmlns="http://www.w3.org/2000/svg" xmlns:xlink="http://www.w3.org/1999/xlink" x="0px" y="0px"
	 viewBox="0 0 150 150" style="enable-background:new 0 0 150 150;" xml:space="preserve">
<style type="text/css">
	.st0{fill:#5B3483;}
</style>
<g>
	<g>
		<g>
			<g>
				<g>
					<path class="st0" d="M91.01,132.46c-1.06,0-1.91-0.86-1.91-1.91c0-19.61,10.46-31.85,13.87-35.32L81.54,48.26L60.16,95.23
						c3.41,3.47,13.87,15.71,13.87,35.32c0,1.06-0.86,1.91-1.91,1.91c-1.06,0-1.91-0.86-1.91-1.91c0-21.21-13.47-33.33-13.61-33.45
						c-0.63-0.56-0.83-1.46-0.48-2.23L79.8,42.85c0.31-0.68,0.99-1.12,1.74-1.12h0c0.75,0,1.43,0.44,1.74,1.12l23.72,52.02
						c0.35,0.77,0.16,1.67-0.48,2.23c-0.13,0.12-13.61,12.31-13.61,33.45C92.92,131.6,92.06,132.46,91.01,132.46z"/>
				</g>
				<g>
					<path class="st0" d="M81.54,96.73c-0.85,0-1.53-0.69-1.53-1.53V43.64c0-0.85,0.69-1.53,1.53-1.53s1.53,0.69,1.53,1.53V95.2
						C83.07,96.04,82.39,96.73,81.54,96.73z"/>
				</g>
				<path class="st0" d="M87.58,95.2c0,3.33-2.71,6.04-6.04,6.04c-3.33,0-6.04-2.7-6.04-6.04c0-3.34,2.7-6.04,6.04-6.04
					C84.88,89.16,87.58,91.86,87.58,95.2z"/>
			</g>
			<g>
				<g>
					<path class="st0" d="M23.77,70.38c-0.01,0-0.01,0-0.02,0c-0.84-0.01-1.52-0.7-1.51-1.54c0-0.44,0.19-10.81,9.28-18.97
						c8.55-7.68,21.83-10.7,39.48-8.96c19.37,1.9,34.38-1.25,43.39-9.13c7.47-6.53,8.84-14.38,8.99-18.47
						c0.03-0.84,0.71-1.52,1.59-1.47c0.84,0.03,1.51,0.74,1.47,1.59c-0.17,4.59-1.69,13.37-10.03,20.66
						c-9.67,8.45-25.47,11.86-45.7,9.87c-16.73-1.65-29.21,1.1-37.09,8.15c-8.09,7.24-8.31,16.67-8.31,16.77
						C25.29,69.7,24.6,70.38,23.77,70.38z"/>
				</g>
				<rect x="115.73" y="8.27" class="st0" width="14.26" height="14.26"/>
				<rect x="13.78" y="58.86" class="st0" width="19.97" height="19.98"/>
			</g>
			<g>
				<g>
					<path class="st0" d="M117.3,67.19c-0.07,0-0.14-0.02-0.2-0.06L48.98,20.06c-0.16-0.11-0.2-0.33-0.09-0.49
						c0.11-0.16,0.33-0.2,0.49-0.09l68.12,47.07c0.16,0.11,0.2,0.33,0.09,0.49C117.53,67.13,117.42,67.19,117.3,67.19z"/>
				</g>
				<g>
					<path class="st0" d="M121.05,66.84c0,2.07-1.68,3.74-3.74,3.74c-2.06,0-3.74-1.67-3.74-3.74s1.67-3.74,3.74-3.74
						C119.37,63.1,121.05,64.77,121.05,66.84z"/>
					<path class="st0" d="M53.85,19.91c0,2.07-1.68,3.74-3.74,3.74c-2.07,0-3.74-1.68-3.74-3.74c0-2.07,1.67-3.74,3.74-3.74
						C52.17,16.17,53.85,17.84,53.85,19.91z"/>
				</g>
			</g>
		</g>
		<rect x="56.53" y="130.57" class="st0" width="50.16" height="11.16"/>
	</g>
</g>
</svg>
