<?xml version="1.0" encoding="utf-8"?>
<!-- Generator: Adobe Illustrator 24.1.0, SVG Export Plug-In . SVG Version: 6.00 Build 0) -->
<svg version="1.1" id="Layer_1" xmlns="http://www.w3.org/2000/svg" xmlns:xlink="http://www.w3.org/1999/xlink" x="0px" y="0px" viewBox="0 0 1080 1080" style="enable-background:new 0 0 1080 1080;" xml:space="preserve">
	<style type="text/css">
		.st0{fill:none;stroke:#5B3483;stroke-width:18;stroke-miterlimit:10;}
		.st1{fill:#5B3483;stroke:#FFFFFF;stroke-width:2;stroke-miterlimit:10;}
	</style>
	<g>
		<g>
			<g>
				<path class="st0" d="M288.96,385.57c8.24-14.77,18.63-28.65,31.17-41.2c72.94-72.95,191.17-73.01,264.18-0.19
				c0.01,0,0.01,0.01,0.01,0.01c0.06,0.06,0.12,0.12,0.18,0.18c4.99,4.99,9.64,10.2,13.96,15.59c0.02,0.01,0.02,0.02,0.03,0.03
				c58.68,73.4,54.02,180.75-13.99,248.76c-67.99,68-175.33,72.67-248.72,14.01l-0.01-0.01c-5.41-4.33-10.63-8.99-15.64-14
				c-0.08-0.08-0.16-0.16-0.23-0.24c-0.02-0.01-0.03-0.02-0.03-0.03c-42.56-42.72-60.19-100.88-52.89-156.4
				c2.33-17.75,7.21-35.23,14.64-51.85" />
				<ellipse transform="matrix(0.7071 -0.7071 0.7071 0.7071 -206.6467 464.6079)" class="st0" cx="457.51" cy="481.75" rx="187.48" ry="100.96" />
				<path class="st0" d="M266.98,452.08c41.11,7.22,90.03,34.3,132.77,77.04c42.74,42.74,69.82,91.66,77.04,132.77" />
				<path class="st0" d="M637.64,501.03c-41.11-7.22-90.03-34.3-132.76-77.04c-42.73-42.73-69.81-91.65-77.04-132.75" />
				<line class="st0" x1="584.5" y1="344.37" x2="320.13" y2="608.74" />
				<line class="st0" x1="584.5" y1="608.74" x2="320.13" y2="344.37" />
			</g>
		</g>
		<g>
			<path class="st1" d="M906.66,800.58l-57.76-57.75l-22.31,22.31l57.75,57.75c5.31,5.31,5.31,13.94,0.05,19.2l-27.55,27.37
			c-4.98,5.07-13.85,5.03-18.98-0.09L632.39,663.89l-11.08,9.35c-47.31,39.91-107.56,61.89-169.66,61.89
			c-145.76,0-264.33-118.57-264.33-264.33c0-9.31,0.5-18.67,1.51-27.94c3.59-35.46,14.2-69.16,31.52-100.19
			c46.75-84.01,135.37-136.19,231.3-136.19c72.04,0,139.36,28.5,189.59,80.3c41.09,42.11,67.1,97.56,73.23,156.19
			c1,9.16,1.5,18.52,1.5,27.83c0,46.47-12.17,92.11-35.19,131.99l-6.06,10.49l140.87,140.86l22.31-22.31L713.97,607.9
			c21.99-42.06,33.56-89.19,33.56-137.1c0-10.44-0.57-20.96-1.68-31.17c-6.87-65.6-36-127.72-81.99-174.85
			c-56.19-57.94-131.56-89.86-212.21-89.86c-107.37,0-206.57,58.4-258.87,152.38c-19.42,34.8-31.31,72.6-35.33,112.26
			c-1.12,10.29-1.69,20.8-1.69,31.24c0,163.16,132.73,295.89,295.89,295.89c64.67,0,127.56-21.3,178.67-60.24l185.23,185.23
			c8.54,8.53,19.88,13.24,31.92,13.24c12.09,0,23.4-4.74,31.73-13.2l27.47-27.27C924.25,846.84,924.25,818.19,906.66,800.58z" />
		</g>
	</g>
</svg>
