<?xml version="1.0" encoding="utf-8"?>
<!-- Generator: Adobe Illustrator 24.1.0, SVG Export Plug-In . SVG Version: 6.00 Build 0) -->
<svg version="1.1" id="Layer_1" xmlns="http://www.w3.org/2000/svg" xmlns:xlink="http://www.w3.org/1999/xlink" x="0px" y="0px" viewBox="0 0 1080 1080" style="enable-background:new 0 0 1080 1080;" xml:space="preserve">
	<style type="text/css">
		.st0{fill:#5B3483;stroke:#FFFFFF;stroke-width:6;stroke-miterlimit:10;}
		.st1{fill:#5B3483;stroke:#FFFFFF;stroke-width:6.9851;stroke-miterlimit:10;}
		.st2{fill:#5B3483;}
		.st3{fill:#5B3483;stroke:#FFFFFF;stroke-width:0.3493;stroke-miterlimit:10;}
	</style>
	<g>
		<path class="st0" d="M244.73,802.85c-29.47,0-55.85,17.79-62.84,46.55h464.67c-3.88-15.57-10.85-20.18-10.85-28.76v-13.18
		c-4.66-4.61-20.18-4.61-27.16-4.61h-33.36v-55.76h29.47c-13.95-20.18-29.47-35.75-40.33-60.53h-453.8
		c-9.31,0-17.84-2.39-17.84-15.57V301.77c0-6.19,8.53-15.57,17.84-15.57h85.59v-55.76h-85.59c-38.02,0-76.02,31.78-76.02,71.33
		v369.22c0,46.55,38,76.1,76.02,76.1h162.9v55.76H244.73z M329.28,757.89h190.05v33.36H329.28V757.89z M727.23,230.44H214.15v55.76
		h513.08c9.31,0,15.52,9.38,15.52,15.57v20.18c15.51-2.38,35.68-3.97,55.85-3.97v-16.21C798.6,262.22,765.25,230.44,727.23,230.44z" />
		<path class="st1" d="M635.7,691.16v-4.61l0,0C635.7,686.55,635.7,686.55,635.7,691.16z" />
		<path class="st0" d="M800.93,331.16c-138.07,0-243.58,111.69-243.58,248.32c0,129.04,101.05,236.47,234.77,241.01v-31.02
		c-112.25-4.82-201.41-101.14-201.41-209.99c0-116.45,93.86-212.57,210.22-212.57c114.04,0,207.9,96.12,207.9,212.57
		c0,108.65-88.84,204.83-198.68,209.96v31.01c125.68-5.03,234.36-112.25,234.36-240.97C1044.51,442.85,930.47,331.16,800.93,331.16z
		" />
		<rect x="166.38" y="356.1" class="st2" width="337.44" height="39.56" />
		<rect x="161.73" y="427.44" class="st2" width="245.9" height="26.37" />
		<rect x="425.47" y="427.44" class="st2" width="78.35" height="26.37" />
		<rect x="166.38" y="487.97" class="st2" width="176.85" height="15.41" />
		<rect x="361.08" y="487.97" class="st2" width="64.39" height="15.41" />
		<rect x="161.73" y="539.12" class="st2" width="245.9" height="20.18" />
		<rect x="425.47" y="539.12" class="st2" width="78.35" height="20.18" />
		<rect x="161.73" y="594.88" class="st2" width="245.9" height="22.56" />
		<rect x="425.47" y="594.88" class="st2" width="40.34" height="22.56" />
		<path class="st3" d="M805.59,395.67c-100.86,0-187.74,78.32-187.74,174.44c0,100.88,86.88,187.78,187.74,187.78
		c98.51,0,178.41-86.9,178.41-187.78C984,473.99,904.1,395.67,805.59,395.67z M778.43,418.07c-20.17,20.17-35.68,40.35-48.86,65.13
		c-9.31,0-24.84-9.21-38.02-22.4C716.38,442.85,742.75,422.83,778.43,418.07z M684.57,473.99c13.97,9.21,27.16,13.98,45,24.78
		c-9.31,17.8-13.19,40.36-13.19,71.34H645C645,532.14,662.86,498.77,684.57,473.99z M645,581.7h71.38
		c0,31.14,3.88,59.74,13.19,84.68c-9.31,4.61-24.84,10.8-40.34,20.18C662.86,661.61,645,621.42,645,581.7z M700.86,693.55
		c10.87-6.99,21.72-9.38,35.68-22.56c10.87,22.56,21.72,46.55,41.89,58.14C747.41,726.91,720.26,717.54,700.86,693.55z
		 M798.6,731.52c-20.17-13.98-40.34-37.97-48.87-60.53c10.86-4.61,31.02-4.61,48.87-4.61V731.52z M798.6,648.43
		c-20.17,0-40.34,10.96-55.85,13.18c-13.18-26.37-15.52-51.15-15.52-79.91h71.37V648.43z M798.6,570.11h-71.37
		c0-30.98,2.34-44.17,9.31-68.95c17.84,2.22,41.89,8.42,62.06,8.42V570.11z M798.6,498.77c-20.17,0-40.34-4.6-55.85-10.8
		c11.63-29.55,34.13-49.73,55.85-69.9V498.77z M959.96,570.11h-69.82c0-30.98-6.2-53.54-10.85-71.34
		c13.18-10.8,27.15-15.57,40.33-24.78C945.99,498.77,955.3,532.14,959.96,570.11z M914.97,460.8c-13.19,13.19-31.03,22.4-38.02,22.4
		c-13.19-24.78-28.71-44.96-48.87-65.13C863.76,422.83,890.14,442.85,914.97,460.8z M810.24,418.07
		c20.16,20.17,40.34,40.35,53.52,69.9c-20.17,6.2-35.68,10.8-53.52,10.8V418.07z M810.24,509.58c17.84,0,38-6.2,53.52-8.42
		c13.19,24.78,15.53,37.97,15.53,68.95h-69.05V509.58z M810.24,581.7h69.05c0,28.76-2.34,53.54-15.53,79.91
		c-20.17-2.22-35.68-13.18-53.52-13.18V581.7z M810.24,731.52v-65.14c17.84,0,31.03,0,48.87,4.61
		C843.59,693.55,828.08,717.54,810.24,731.52z M828.08,729.13c15.51-11.59,31.03-35.58,38-58.14
		c15.52,13.18,26.39,15.57,38.02,22.56C883.94,717.54,859.11,726.91,828.08,729.13z M914.97,686.56
		c-13.19-9.38-28.71-15.57-38.02-20.18c6.99-24.94,13.19-53.54,13.19-84.68h69.82C955.3,621.42,945.99,661.61,914.97,686.56z" />
	</g>
</svg>
