<?xml version="1.0" encoding="utf-8"?>
<!-- Generator: Adobe Illustrator 24.1.0, SVG Export Plug-In . SVG Version: 6.00 Build 0) -->
<svg version="1.1" id="Layer_1" xmlns="http://www.w3.org/2000/svg" xmlns:xlink="http://www.w3.org/1999/xlink" x="0px" y="0px" viewBox="0 0 1080 1080" style="enable-background:new 0 0 1080 1080;" xml:space="preserve">
	<style type="text/css">
		.st0{fill:#5B3483;stroke:#FFFFFF;stroke-width:1.2219;stroke-miterlimit:10;}
		.st1{fill:none;stroke:#5B3483;stroke-width:20;stroke-linecap:round;stroke-linejoin:round;stroke-miterlimit:10;}
	</style>
	<g>
		<g>
			<path class="st0" d="M930.33,404.92v-287.6c0-42.07-35.41-76.4-78.87-76.4H227.71c-43.56,0-79.02,34.33-79.02,76.4v845.2
			c0,42.02,35.46,76.4,79.02,76.4h623.75c43.46,0,78.87-34.38,78.87-76.4v-533.6h-31.11v533.6c0,24.93-21.44,45.23-47.76,45.23
			H227.71c-26.38,0-47.92-20.3-47.92-45.23v-845.2c0-25,21.54-45.3,47.92-45.3h623.75c26.32,0,47.76,20.3,47.76,45.3v287.6H930.33z" />
		</g>
		<g>
			<g>
				<path class="st1" d="M255.41,160.98v754.87h568.4V160.98H255.41z M442.33,601.17l-40.86-43.81c146.1-131.51,280.48,0,280.48,0
				l-43.81,43.81C531.45,507.67,442.33,601.17,442.33,601.17z M589.89,654.01c0,25.01-20.25,45.28-45.27,45.28
				c-25.01,0-45.3-20.27-45.3-45.28c0-25.03,20.29-45.29,45.3-45.29C569.64,608.72,589.89,628.98,589.89,654.01z M715.58,523.88
				c-189.94-163.43-352.12,0-352.12,0l-46.74-51.29c233.78-205.99,445.58,2.93,445.58,2.93L715.58,523.88z" />
			</g>
		</g>
		<g>
			<path class="st0" d="M546.15,948.34H533c-2.96,0-5.33,2.27-5.33,5.18v10.32c0,2.87,2.37,5.29,5.33,5.29h13.14
			c2.86,0,5.23-2.41,5.23-5.29v-10.32C551.38,950.61,549.01,948.34,546.15,948.34z" />
			<path class="st0" d="M539.53,932.14c-14.71,0-26.67,11.81-26.67,26.57s11.96,26.62,26.67,26.62c14.77,0,26.72-11.86,26.72-26.62
			S554.3,932.14,539.53,932.14z M555.83,963.84c0,5.45-4.34,9.78-9.68,9.78h-13.34c-5.33,0-9.52-4.33-9.52-9.78v-10.31
			c0-5.39,4.19-9.68,9.71-9.68h13.15c5.34,0,9.68,4.29,9.68,9.68V963.84z" />
		</g>
	</g>
</svg>
