<?xml version="1.0" encoding="utf-8"?>
<!-- Generator: Adobe Illustrator 24.1.0, SVG Export Plug-In . SVG Version: 6.00 Build 0) -->
<svg version="1.1" id="Layer_1" xmlns="http://www.w3.org/2000/svg" xmlns:xlink="http://www.w3.org/1999/xlink" x="0px" y="0px" viewBox="0 0 1080 1080" style="enable-background:new 0 0 1080 1080;" xml:space="preserve">
	<style type="text/css">
		.st0{fill:#5B3483;stroke:#FFFFFF;stroke-width:7;stroke-miterlimit:10;}
		.st1{fill-rule:evenodd;clip-rule:evenodd;fill:#5B3483;stroke:#FFFFFF;stroke-width:7;stroke-miterlimit:10;}
	</style>
	<g>
		<path class="st0" d="M886.7,186.95C797.84,98.09,675.09,43.14,539.51,43.14S281.18,98.09,192.32,186.95
		C103.47,275.8,48.51,398.55,48.51,534.14c0,49.59,7.35,97.47,21.03,142.59h51.15c-12.73-37.42-20.6-77.08-22.83-118.25h125.52
		c2.13,68.07,13.16,132.56,31.28,190.59c-31.49,5.68-61.62,12.29-90.14,19.73c-11.91-18.99-22.41-38.94-31.36-59.71H80.6
		c24.88,65.22,63.26,123.77,111.72,172.23c88.86,88.86,211.61,143.82,347.19,143.82c60.57,0,118.58-10.98,172.15-31.04l-22.34-94.15
		c-36.57,41.05-79.46,67.64-125.46,74.64V773.72c32.88,0.46,65.11,1.84,96.47,4.08l-11.76-49.58c-27.69-1.73-55.97-2.81-84.71-3.2
		V558.48h243.07c-1.43,43.05-6.6,84.42-15.01,123.3l43.49,27.52c11.55-47.22,18.57-97.94,20.23-150.82h125.52
		c-4.03,74.17-26.33,143.48-62.47,203.5l41.16,26.04c44.85-74.08,70.66-160.97,70.66-253.88
		C1030.51,398.55,975.55,275.8,886.7,186.95z M226.75,221.38c37.83-37.83,82.48-68.83,131.95-91.02
		c-16.7,17.99-32.21,38.41-46.33,60.96c-15.46,24.71-29.27,52-41.15,81.43c-26.63-4.61-52.17-9.88-76.45-15.74
		C204.78,244.56,215.46,232.66,226.75,221.38z M223.38,509.79H97.86c4.18-76.99,28.05-148.75,66.66-210.31
		c28.52,7.43,58.65,14.04,90.14,19.72C236.54,377.24,225.51,441.73,223.38,509.79z M226.75,846.9
		c-11.29-11.29-21.97-23.19-31.98-35.63c24.28-5.87,49.82-11.13,76.45-15.74c11.88,29.42,25.69,56.72,41.15,81.42
		c14.12,22.55,29.63,42.97,46.33,60.96C309.23,915.73,264.58,884.72,226.75,846.9z M515.16,974.59
		c-62.25-9.47-118.81-54.81-161.7-123.32c-12.14-19.39-23.17-40.6-32.91-63.36c6.07-0.82,12.18-1.62,18.35-2.38
		c55.61-6.87,114.77-10.95,176.26-11.81V974.59z M515.16,725.02c-63.43,0.87-124.58,5.09-182.16,12.2
		c-10.09,1.24-20.07,2.58-29.94,4c-17.85-55.05-28.79-116.95-30.97-182.74h243.07V725.02z M515.16,509.79H272.09
		c2.18-65.79,13.12-127.68,30.97-182.74c9.87,1.42,19.85,2.76,29.94,4.01c57.58,7.11,118.73,11.33,182.16,12.19V509.79z
		 M515.16,294.55c-61.49-0.85-120.65-4.94-176.26-11.81c-6.17-0.76-12.28-1.55-18.35-2.38c9.74-22.76,20.77-43.96,32.91-63.36
		c42.89-68.5,99.45-113.85,161.7-123.32V294.55z M563.86,93.68c62.25,9.47,118.81,54.82,161.7,123.32
		c12.14,19.4,23.17,40.6,32.91,63.36c-6.07,0.83-12.18,1.62-18.35,2.38c-55.61,6.87-114.77,10.96-176.26,11.81V93.68z
		 M563.86,509.79V343.25c63.43-0.86,124.58-5.08,182.16-12.19c10.09-1.25,20.07-2.59,29.94-4.01
		c17.85,55.06,28.79,116.95,30.97,182.74H563.86z M766.64,191.32c-14.11-22.55-29.62-42.97-46.32-60.96
		c49.47,22.19,94.12,53.19,131.95,91.02c11.29,11.28,21.97,23.18,31.98,35.63c-24.28,5.86-49.82,11.13-76.45,15.74
		C795.92,243.32,782.11,216.03,766.64,191.32z M855.64,509.79c-2.13-68.06-13.16-132.55-31.28-190.59
		c31.49-5.68,61.62-12.29,90.14-19.72c38.61,61.56,62.48,133.32,66.66,210.31H855.64z" />
		<path class="st1" d="M884.05,876.72l77.43,108.49c1.3,1.82,0.87,4.36-0.95,5.66l-63.15,45.07c-1.82,1.3-4.36,0.87-5.66-0.95
		L814.3,926.5l-53.78,38.39c-1.13,0.81-2.48,0.99-3.78,0.5c-1.3-0.49-2.2-1.51-2.52-2.86l-66.65-280.9
		c-0.39-1.64,0.22-3.26,1.59-4.24c1.37-0.98,3.1-1.03,4.53-0.13L937.65,831.6c1.18,0.74,1.85,1.92,1.89,3.32
		c0.04,1.39-0.57,2.61-1.7,3.42L884.05,876.72L884.05,876.72z" />
	</g>
</svg>
