<?xml version="1.0" encoding="utf-8"?>
<!-- Generator: Adobe Illustrator 24.1.0, SVG Export Plug-In . SVG Version: 6.00 Build 0) -->
<svg version="1.1" id="Layer_1" xmlns="http://www.w3.org/2000/svg" xmlns:xlink="http://www.w3.org/1999/xlink" x="0px" y="0px" viewBox="0 0 1080 1080" style="enable-background:new 0 0 1080 1080;" xml:space="preserve">
	<style type="text/css">
		.st0{fill:#FFFFFF;stroke:#5B3483;stroke-width:15.2867;stroke-linecap:round;stroke-linejoin:round;stroke-miterlimit:10;}
		.st1{fill:none;stroke:#5B3483;stroke-width:15.2867;stroke-linecap:round;stroke-linejoin:round;stroke-miterlimit:10;}
		.st2{fill:#5B3483;stroke:#5B3483;stroke-width:15.2867;stroke-linecap:round;stroke-linejoin:round;stroke-miterlimit:10;}
	</style>
	<g>
		<g>
			<g>
				<ellipse class="st0" cx="664.14" cy="397.41" rx="30.24" ry="30.28" />
				<polygon class="st0" points="617.43,476.79 769.34,655.33 309.68,655.17 481.98,397.41 575.26,524.7 			" />
				<path class="st0" d="M853.69,209.78H225.33c-47.4,0-85.82,38.42-85.82,85.82v488.64c0,47.4,38.42,85.82,85.82,85.82h628.36
				c47.4,0,85.82-38.42,85.82-85.82V295.6C939.51,248.2,901.09,209.78,853.69,209.78z M883.51,757.24h-688V322.6
				c0-31.18,25.12-56.46,56.1-56.46h575.8c30.98,0,56.1,25.28,56.1,56.46V757.24z" />
				<g>
					<g>
						<line class="st1" x1="236.21" y1="814.93" x2="832.99" y2="814.93" />
						<ellipse class="st2" cx="637.41" cy="814.93" rx="24.89" ry="25.05" />
					</g>
					<ellipse class="st0" cx="664.14" cy="397.41" rx="30.24" ry="30.28" />
					<polygon class="st0" points="769.34,655.33 309.68,655.17 481.98,397.41 575.26,524.7 617.43,476.79 				" />
				</g>
			</g>
			<g>
				<line class="st1" x1="769.34" y1="655.33" x2="309.68" y2="655.17" />
			</g>
			<g>
				<line class="st1" x1="802.13" y1="357.66" x2="845.07" y2="357.66" />
				<line class="st1" x1="802.13" y1="404.34" x2="845.07" y2="404.34" />
				<line class="st1" x1="802.13" y1="451.02" x2="845.07" y2="451.02" />
				<line class="st1" x1="802.13" y1="497.7" x2="845.07" y2="497.7" />
				<line class="st1" x1="802.13" y1="544.38" x2="845.07" y2="544.38" />
				<line class="st1" x1="802.13" y1="591.05" x2="845.07" y2="591.05" />
				<line class="st1" x1="802.13" y1="637.73" x2="845.07" y2="637.73" />
				<line class="st1" x1="802.13" y1="684.41" x2="845.07" y2="684.41" />
			</g>
			<g>
				<line class="st1" x1="231.81" y1="357.66" x2="274.76" y2="357.66" />
				<line class="st1" x1="231.81" y1="404.34" x2="274.76" y2="404.34" />
				<line class="st1" x1="231.81" y1="451.02" x2="274.76" y2="451.02" />
				<line class="st1" x1="231.81" y1="497.7" x2="274.76" y2="497.7" />
				<line class="st1" x1="231.81" y1="544.38" x2="274.76" y2="544.38" />
				<line class="st1" x1="231.81" y1="591.05" x2="274.76" y2="591.05" />
				<line class="st1" x1="231.81" y1="637.73" x2="274.76" y2="637.73" />
				<line class="st1" x1="231.81" y1="684.41" x2="274.76" y2="684.41" />
			</g>
		</g>
	</g>
</svg>
