<?xml version="1.0" encoding="utf-8"?>
<!-- Generator: Adobe Illustrator 24.1.0, SVG Export Plug-In . SVG Version: 6.00 Build 0) -->
<svg version="1.1" id="Layer_1" xmlns="http://www.w3.org/2000/svg" xmlns:xlink="http://www.w3.org/1999/xlink" x="0px" y="0px" viewBox="0 0 1080 1080" style="enable-background:new 0 0 1080 1080;" xml:space="preserve">
	<style type="text/css">
		.st0{fill:#FFFFFF;stroke:#5B3483;stroke-width:20.5027;stroke-linecap:round;stroke-linejoin:round;stroke-miterlimit:10;}
	</style>
	<g>
		<g>
			<g>
				<line class="st0" x1="254.97" y1="133.92" x2="254.97" y2="211.88" />
				<path class="st0" d="M254.97,938.32l-140.8,0V133.92h140.8v77.96c0,0,0,41.68,41.82,41.68h271.02c23.1,0,41.82-18.66,41.82-41.68
				v-77.96h140.14v804.41l-140.14,0v-79.64c0-23.02-18.73-41.68-41.82-41.68H296.79c-23.1,0-41.82,18.66-41.82,41.68V938.32" />
				<path class="st0" d="M254.97,557.2V415.12c0-23.02,18.73-41.68,41.82-41.68h271.02c23.1,0,41.82,18.66,41.82,41.68V557.2v108.57
				c0,23.02-18.73,41.68-41.82,41.68H296.79c-23.1,0-41.82-18.66-41.82-41.68V557.2" />
				<g>
					<g>
						<path class="st0" d="M186.46,193.99h-14.11c-8.33,0-15.09-6.73-15.09-15.04v-45.03h44.28v45.03
						C201.54,187.25,194.79,193.99,186.46,193.99z" />
					</g>
					<g>
						<path class="st0" d="M186.23,759.85h-13.66c-8.46,0-15.31-6.83-15.31-15.27V680.8c0-8.43,6.85-15.27,15.31-15.27h13.66
						c8.46,0,15.31,6.83,15.31,15.27v63.78C201.54,753.01,194.69,759.85,186.23,759.85z M186.23,571.23h-13.66
						c-8.46,0-15.31-6.83-15.31-15.27v-63.78c0-8.43,6.85-15.27,15.31-15.27h13.66c8.46,0,15.31,6.83,15.31,15.27v63.78
						C201.54,564.39,194.69,571.23,186.23,571.23z M186.23,382.61h-13.66c-8.46,0-15.31-6.83-15.31-15.27v-63.78
						c0-8.43,6.85-15.27,15.31-15.27h13.66c8.46,0,15.31,6.83,15.31,15.27v63.78C201.54,375.77,194.69,382.61,186.23,382.61z" />
					</g>
					<g>
						<path class="st0" d="M201.54,936.15h-44.28V880.5c0-7.58,6.16-13.73,13.77-13.73h16.74c7.6,0,13.77,6.15,13.77,13.73V936.15z" />
					</g>
				</g>
				<g>
					<g>
						<path class="st0" d="M684.73,193.99h-14.11c-8.33,0-15.09-6.73-15.09-15.04v-45.03h44.28v45.03
						C699.81,187.25,693.06,193.99,684.73,193.99z" />
					</g>
					<g>
						<path class="st0" d="M684.5,759.85h-13.66c-8.46,0-15.31-6.83-15.31-15.27V680.8c0-8.43,6.85-15.27,15.31-15.27h13.66
						c8.46,0,15.31,6.83,15.31,15.27v63.78C699.81,753.01,692.96,759.85,684.5,759.85z M684.5,571.23h-13.66
						c-8.46,0-15.31-6.83-15.31-15.27v-63.78c0-8.43,6.85-15.27,15.31-15.27h13.66c8.46,0,15.31,6.83,15.31,15.27v63.78
						C699.81,564.39,692.96,571.23,684.5,571.23z M684.5,382.61h-13.66c-8.46,0-15.31-6.83-15.31-15.27v-63.78
						c0-8.43,6.85-15.27,15.31-15.27h13.66c8.46,0,15.31,6.83,15.31,15.27v63.78C699.81,375.77,692.96,382.61,684.5,382.61z" />
					</g>
					<g>
						<path class="st0" d="M699.81,936.15h-44.28V880.5c0-7.58,6.16-13.73,13.77-13.73h16.74c7.6,0,13.77,6.15,13.77,13.73V936.15z" />
					</g>
				</g>
				<ellipse class="st0" cx="467.6" cy="320.51" rx="97.81" ry="97.97" />
				<ellipse class="st0" cx="360.35" cy="594.59" rx="72.64" ry="72.76" />
			</g>
			<g>
				<polygon class="st0" points="596.06,613.18 564.2,652.51 658.86,761.25 722.59,682.58 			" />
				<path class="st0" d="M722.59,682.58l-63.73,78.67L938.81,943.2c7.23,4.7,16.86,3.17,22.29-3.53l0,0
				c5.43-6.7,4.9-16.41-1.23-22.47L722.59,682.58z" />
				<path class="st0" d="M580.65,571.38c20.72,16.69,23.93,46.98,7.18,67.66c-16.75,20.68-47.13,23.93-67.85,7.24
				c-48.61-39.15-55.12-121.2-55.12-121.2C497.98,566.68,552.8,548.94,580.65,571.38z" />
			</g>
		</g>
	</g>
</svg>
