<?xml version="1.0" encoding="utf-8"?>
<!-- Generator: Adobe Illustrator 24.1.0, SVG Export Plug-In . SVG Version: 6.00 Build 0) -->
<svg version="1.1" id="Layer_1" xmlns="http://www.w3.org/2000/svg" xmlns:xlink="http://www.w3.org/1999/xlink" x="0px" y="0px" viewBox="0 0 1080 1080" style="enable-background:new 0 0 1080 1080;" xml:space="preserve">
	<style type="text/css">
		.st0{fill:#5B3483;}
	</style>
	<g>
		<path class="st0" d="M699.18,773.69l-165.2-122.27c-5.21-3.86-12.15-4.45-17.94-1.52c-5.79,2.92-9.43,8.86-9.42,15.34l0.43,244.55
		c0.01,6.48,3.67,12.39,9.46,15.3c2.43,1.22,5.07,1.82,7.69,1.82c3.62,0,7.21-1.14,10.22-3.38L699.2,801.25
		c4.36-3.24,6.93-8.35,6.93-13.78C706.13,782.03,703.55,776.92,699.18,773.69z M541.31,875.7L541,699.28l119.18,88.21L541.31,875.7z
		" />
		<path class="st0" d="M981.74,432.2H303.02c-0.71-4.6-1.7-9.11-2.95-13.51l638.81-214.93c8.96-3.01,13.79-12.7,10.81-21.67
		l-3.72-11.18c-11.32-34.04-35.23-61.61-67.34-77.63c-32.1-16.02-68.51-18.55-102.52-7.12L172.14,289.07
		c-23.48,7.89-36.22,33.42-28.4,56.92c0.22,0.67,0.49,1.31,0.79,1.93c-38.03,17.95-64.4,56.67-64.4,101.43
		c0,55.98,41.25,102.51,94.95,110.79v310.93c0,73.9,60.12,134.02,134.02,134.02h555.78c73.9,0,134.02-60.12,134.02-134.02V449.36
		C998.89,439.88,991.21,432.2,981.74,432.2z M303.02,466.51h79.69l-84.7,93.24h-86.2C258.77,551.44,295.73,513.8,303.02,466.51z
		 M429.06,466.51h87.71l-84.7,93.24h-87.71L429.06,466.51z M563.12,466.51h87.71l-84.7,93.24h-87.71L563.12,466.51z M697.18,466.51
		h87.71l-84.7,93.24h-87.71L697.18,466.51z M831.23,466.51h87.71l-84.7,93.24h-87.71L831.23,466.51z M964.59,467.29v92.46h-83.99
		L964.59,467.29z M376.47,256.61l112.09,62.47l-78.03,26.25l-115.84-61.25L376.47,256.61z M503.19,214.04l112.02,62.43l-82.71,27.83
		l-112.06-62.45L503.19,214.04z M629.9,171.46l111.95,62.39l-82.71,27.83l-111.99-62.42L629.9,171.46z M756.62,128.89l111.88,62.35
		l-82.71,27.83l-111.92-62.38L756.62,128.89z M863.31,123.97c21.98,10.97,38.78,29.22,47.89,51.8l-109.23-60.88
		C822.76,111.29,844.07,114.37,863.31,123.97z M176.29,335.16c-1.86-5.6,1.18-11.7,6.77-13.58l66.75-22.43l115.87,61.26
		l-80.09,26.95c-20.11-30.19-54.45-50.12-93.36-50.12c-5.16,0-10.24,0.36-15.22,1.04C176.86,337.24,176.63,336.2,176.29,335.16z
		 M114.43,449.36c0-42.9,34.9-77.8,77.8-77.8c42.9,0,77.8,34.9,77.8,77.8c0,42.9-34.9,77.8-77.8,77.8
		C149.33,527.16,114.43,492.25,114.43,449.36z M864.87,970.8H309.09c-54.98,0-99.71-44.73-99.71-99.72V594.05h755.21v277.03
		C964.59,926.07,919.85,970.8,864.87,970.8z" />
	</g>
</svg>
