<svg xmlns="http://www.w3.org/2000/svg" xmlns:xlink="http://www.w3.org/1999/xlink" width="1641" height="951.569" viewBox="0 0 1641 951.569"><defs><filter id="a"><feOffset dx="16" dy="6" input="SourceAlpha"/><feGaussianBlur stdDeviation="3" result="b"/><feFlood flood-color="#fff" flood-opacity="0.161" result="c"/><feComposite operator="out" in="SourceGraphic" in2="b"/><feComposite operator="in" in="c"/><feComposite operator="in" in2="SourceGraphic"/></filter><filter id="d"><feOffset dx="16" dy="6" input="SourceAlpha"/><feGaussianBlur stdDeviation="3" result="e"/><feFlood flood-color="#fff" flood-opacity="0.161" result="f"/><feComposite operator="out" in="SourceGraphic" in2="e"/><feComposite operator="in" in="f"/><feComposite operator="in" in2="SourceGraphic"/></filter><filter id="g"><feOffset dx="16" dy="6" input="SourceAlpha"/><feGaussianBlur stdDeviation="3" result="h"/><feFlood flood-color="#fff" flood-opacity="0.161" result="i"/><feComposite operator="out" in="SourceGraphic" in2="h"/><feComposite operator="in" in="i"/><feComposite operator="in" in2="SourceGraphic"/></filter><filter id="j"><feOffset dx="16" dy="6" input="SourceAlpha"/><feGaussianBlur stdDeviation="3" result="k"/><feFlood flood-color="#fff" flood-opacity="0.161" result="l"/><feComposite operator="out" in="SourceGraphic" in2="k"/><feComposite operator="in" in="l"/><feComposite operator="in" in2="SourceGraphic"/></filter></defs><g transform="translate(38.837)"><path d="M21.072-274.7s-89.6,70.4-40,190.4,99.792,16,209.6,44.8c13.542,3.552,128.224,203.539,184.316,193,81.534-15.319,78.008,61.7,158.084,59.8,40.105-.95,186.812-126.4,243.2-70.4,20.3,20.16,133.821,68.995,248,57.6,60.393-6.027,63.809-139.34,132.728-164.6,71.774-26.307,182.054,66.55,278.972,0s142.725-178.05,108.7-266.2-167.974-14.6-244.8-86.4c-55.143-51.538-78.4-182.4-78.4-182.4" transform="translate(33.891 549.069)" fill="none" stroke="#2a0a62" stroke-width="3" stroke-dasharray="10"/><g transform="translate(-165.837 -1514.431)"><circle cx="122.5" cy="122.5" r="122.5" transform="translate(1463 1654)" fill="#4e46ad"/><circle cx="122.5" cy="122.5" r="122.5" transform="translate(1463 1654)" fill="#4e46ad"/><g data-type="innerShadowGroup"><g transform="matrix(1, 0, 0, 1, 127, 1514.43)" filter="url(#a)"><circle cx="122.5" cy="122.5" r="122.5" transform="translate(1341 139.57)" fill="#fff" opacity="0.08"/></g><g transform="translate(1468 1654)" fill="none" stroke="#fff" stroke-width="10" opacity="0.08"><circle cx="122.5" cy="122.5" r="122.5" stroke="none"/><circle cx="122.5" cy="122.5" r="117.5" fill="none"/></g></g><text transform="translate(1586 1786)" fill="#fff" font-size="46" font-family="SegoeUI, Segoe UI"><tspan x="-69.135" y="0">البحرين</tspan></text></g><g transform="translate(-165.837 -1478.431)"><circle cx="140.5" cy="140.5" r="140.5" transform="translate(1020 1986)" fill="#ae4593"/><circle cx="140.5" cy="140.5" r="140.5" transform="translate(1020 1986)" fill="#ae4593"/><g data-type="innerShadowGroup"><g transform="matrix(1, 0, 0, 1, 127, 1478.43)" filter="url(#d)"><circle cx="140.5" cy="140.5" r="140.5" transform="translate(898 507.57)" fill="#fff" opacity="0.08"/></g><g transform="translate(1025 1986)" fill="none" stroke="#fff" stroke-width="10" opacity="0.08"><circle cx="140.5" cy="140.5" r="140.5" stroke="none"/><circle cx="140.5" cy="140.5" r="135.5" fill="none"/></g></g><text transform="translate(1161 2142)" fill="#fff" font-size="64" font-family="SegoeUI, Segoe UI"><tspan x="-61.469" y="0">مصر</tspan></text></g><g transform="translate(-186.837 -1476.431)"><circle cx="183" cy="183" r="183" transform="translate(422 2002)" fill="#2a0a62"/><circle cx="183" cy="183" r="183" transform="translate(422 2002)" fill="#2a0a62"/><g data-type="innerShadowGroup"><g transform="matrix(1, 0, 0, 1, 148, 1476.43)" filter="url(#g)"><circle cx="183" cy="183" r="183" transform="translate(279 525.57)" fill="#fff" opacity="0.08"/></g><g transform="translate(427 2002)" fill="none" stroke="#fff" stroke-width="10" opacity="0.08"><circle cx="183" cy="183" r="183" stroke="none"/><circle cx="183" cy="183" r="178" fill="none"/></g></g><text transform="translate(605 2201)" fill="#fff" font-size="64" font-family="SegoeUI, Segoe UI"><tspan x="-122.906" y="0">السعودية</tspan></text></g><g transform="translate(-172.837 -1526.431)"><circle cx="122.5" cy="122.5" r="122.5" transform="translate(194 1622)" fill="#670d85"/><circle cx="122.5" cy="122.5" r="122.5" transform="translate(194 1622)" fill="#670d85"/><g data-type="innerShadowGroup"><g transform="matrix(1, 0, 0, 1, 134, 1526.43)" filter="url(#j)"><circle cx="122.5" cy="122.5" r="122.5" transform="translate(65 95.57)" fill="#fff" opacity="0.08"/></g><g transform="translate(199 1622)" fill="none" stroke="#fff" stroke-width="10" opacity="0.08"><circle cx="122.5" cy="122.5" r="122.5" stroke="none"/><circle cx="122.5" cy="122.5" r="117.5" fill="none"/></g></g><text transform="translate(317 1760)" fill="#fff" font-size="79" font-family="SegoeUI, Segoe UI"><tspan x="-65.962" y="0">دبي</tspan></text></g><g transform="matrix(1, 0.017, -0.017, 1, 1217.146, 0)"><path d="M53.167,0,0,26.584l15.167,5.056,4.771,1.59,6.646,19.938Z" transform="translate(0 46.097) rotate(-60)" fill="#2a0a62"/><path d="M0,0,33.067,49.7,12.333,45.5Z" transform="translate(26.55 0)" fill="#ae4593"/></g></g></svg>