<svg xmlns="http://www.w3.org/2000/svg" width="253" height="251" viewBox="0 0 253 251"><path d="M72.571,141.928a70,70,0,1,1,70-70A70,70,0,0,1,72.571,141.928Zm56.735-75.867a.437.437,0,0,0,.219-.306,2.132,2.132,0,0,0,.674,1.229c.009.044-.013.035.009.1.035,0,.061-.026.092-.026a2.116,2.116,0,0,0,1.334.5,2.157,2.157,0,0,0,1.829-1.054,1.051,1.051,0,0,1,.092.105c0-.07-.013-.14-.022-.21a2.123,2.123,0,0,0,.289-1.028,2.191,2.191,0,0,0-2.187-2.188,2.16,2.16,0,0,0-1.8,1.015c-.018-.013,0-.066-.048-.048a1.979,1.979,0,0,0-.337-1.046v2.266A2.287,2.287,0,0,1,129.306,66.061ZM28.786,65.4c0-.661-1.5-1.785-1.894-1.785,0-.118-.613-1.466-.844-1.466,0-.455-1.6-2.5-1.851-1.606-.166.577,1.221,1.356,1.221,2.026.258,0,1.343,2.056,1.557,2.415C29.346,69,25.2,66.258,25.2,64.56a5.579,5.579,0,0,1-1.365-2.831,9.045,9.045,0,0,1-1.155-2.2c0-1.277-.7-1.89-2.1-1.89-.066-.127-1.242-1.781-1.264-1.781a4.635,4.635,0,0,0-1.47-2.411c0-1.089-.56-2.432-.311-3.561a12.067,12.067,0,0,0-.464-3.745A61.053,61.053,0,0,0,51.553,129.4c.026-2.17.188-4.769.682-4.769,0-.324.276-1.68.525-1.68a26.51,26.51,0,0,0,0-2.831c-.311-.626.411-1.426.63-2.411,1.212-.608.354-6.707,1.269-6.707,0-3.049.683-4.826.206-7.652.232,0-1.378-1.711-1.365-1.68-1.544,0-2.625-2.476-2.625-3.561a6.6,6.6,0,0,1-.529-1.781c.354,0-2.209-3.745-2.209-3.671-1.356-.753.074-1.8.21-3.036-1.177-.389.013-3.566.525-3.566a.987.987,0,0,1,.634-.836c.263,1.046,1.483-.521.525-.521,0-.691-.079-2.17,0-2.516,0-1.067-.945-3.159-1.68-.945-.787-.389-2.774-.319-2.944-1.571.123-.617-1.133-1.877-1.575-2.1.411-1.076-2.131-2.516-3.049-2.516,0-.232-.486-.127-.63-.42-.936,0-1.151-1.26-2.209-1.26-1.221,0-2.45-.836-3.574-.836-.376-.748-2.122-.455-2.524-1.26-.914,0-1.273-1.732-1.3-2.371-.039-.787-.665-3.509-1.759-3.509ZM117.406,30.3a.22.22,0,0,1-.035.1c.066,0,.144.074.219.1C117.524,30.431,117.467,30.366,117.406,30.3Zm1.317,1.448a1.413,1.413,0,0,1,.232.744c.153,0,.227-.079.35-.109C119.116,32.164,118.911,31.962,118.722,31.744Zm3.8,19.932c.07-1.89-1.575-1.575-2.1-2.625-.542,0-.739-.42-1.474-.42a.9.9,0,0,0-1.129.341c-1.124.429-.446-.547-1.291-.547.039-1.081-.389-1.378-1.579-1.26-.683,1.54-1.732,2.463-1.575,4.2.5.114.416.228.315.731.669.035,4.729-.21,4.729-.63.14,0,.844,1.448.844.21.564,0,.862,1.326,2.209.941,0,.271,2.249-.936,1.046-.936ZM122.739,74c.079-.385-.193-.556-.42-.945.6,0-1.894-4.624-1.894-5.346-.381-.188-.866-1.509-.954-1.991a5.026,5.026,0,0,1-1.26-2.1A7.6,7.6,0,0,1,116.216,61c.753.083,1.89.236,1.89-.735-.507,0-.582-.626-.1-.626-.158-.643.341-1.107.451-1.61a11.864,11.864,0,0,0,.389-2.271,3.466,3.466,0,0,0-1.47.315c0,.424-1.282-.1-1.47-.1-.276-.551-2.275.717-2.835-.42-.906-.818-.661-1.448-.954-2.6-.149-.586-.949-.621-1.435-.718-1.369-.267-.381,1.632-.455,2.065.84,0-.529,1.041-.529,1.571-1.417-.306-.945-1.886-1.781-2.306-.249-.42-.052-.735-.634-.735,0-.56.3-1.575-.315-1.781,0-.271-1.19-.381-1.365-.735-.753,0-2.5-2.844-3.041-1.886-.337.612.284.761.411,1.26,1.089-.214.984,1.794,2.314,1.571a3.644,3.644,0,0,0,.1.84c.984-.232.871.731,1.365.731-.359.477-1.5-.761-1.186.28.179.6.079,1.12-.7,1.711,0-.652-.052-2.411-.735-2.411-.464-.928-1.842-.7-2.424-1.571-.473,0-.656-1.47-1.47-1.571a1.643,1.643,0,0,1-.949.42c-.442.888-2.94.092-2.94.21-.039.009-1.4,3.334-1.479,3.771-.153.941-.91.958-1.137,1.851-.114.446-2.857.236-2.857.564a2.8,2.8,0,0,1-2.209-2.516,19.737,19.737,0,0,1,.424-3.776c.241.066.289.149.424.42.726-.271,2.419.179,2.419-.63q1.057.026.63.84c.656.123,1.789.289,1.789-.63-.385,0-.424-.035-.424-.42,1.26-1.308-.945-2.489-.945-3.141-.446-.149-1.356-1.116-.709-.752.547.3,2.546.927,1.759-.4a.146.146,0,0,0,.1-.1c.223.157,1.164,1.124,1.164.21.258,0,1.256-.63.42-.63.079-.472.061-.866.1-1.155,1.334.718.591-.49,1.264-.941,0,.871.717-.42,1.155-.42.521-.774,1.711-.175,2-1.05-.643-.21-.525-1.82-.525-2.406.774.127,1.636-1.046,1.754-.241.044.311.083,1.168.241,1.286,1.151.6.844-.346.844-.941-.385,0-.9-1.347-.949-1.995-.315.044-.822.175-.949.416-1.146,0-1.925-.416-2.835-.416a16.256,16.256,0,0,1-1.05-1.365c-.639-1.1.639-.779.84-.831,0-1.041,4.336-.858,4.524-2.52-1.426,0,1.47-2.415,1.47-2.406.967-.827,1.479-1.54,2.682-1.632.507-.035,6.151-1.592,6.151-.888.228.009.98.018,1.759.044a60.979,60.979,0,0,0-82.206-.949,1.55,1.55,0,0,1,.166.577c.573-.039,1.4-.407,1.579.319a3.6,3.6,0,0,1-.84-.109c.2,1.623-.709.63-1.47.63a2.116,2.116,0,0,0-.7-.271c-.232.219-.477.424-.709.643.026.07-.013.074.031.153.245,0,.118.381.818.613a15.592,15.592,0,0,0,2.551.564,8.12,8.12,0,0,0,1.68-.127c0-.088,1.444-.731.424-.731.14-.577-.118-.722-.739-.731.052-.612,1.509-.21,2.1-.21.455-.766.013-.674.416-1.369.481-.853,1.054-.114,1.369-.932A1.467,1.467,0,0,1,39.723,26.2c.381.315,2.314,3.167,2.314,1.151.691.232,1.037,1.527,1.05,2.2,1.256-.184,1.365-1.124,1.365-2.1.289,0-.1-.468-.1-.63.468-.171,1.054.446,1.054-.206.2,0,.21.2.21.42.652.127,1.072-.074,1.47.066.276.1.136,1.527.009,2.03-.157.639-1.378.647-1.378.945-1.382,1.032,1.632,1.571,2.1,2.2a5.814,5.814,0,0,1-1.365-.206c-.682,0-2.336.722-2.944.206.849,0,1.133-1.019,1.264-1.991a1.5,1.5,0,0,0-1.925.967c-.368,1.286-1.221-.053-1.649.814-.166.052-1.684.757-1.684.521-1.706.241-1.26,1.689-1.26,3.251.678.407,2.056,1.566,1.995,2.2,1.531.271,2.091.433,3.469.63a1.67,1.67,0,0,0,.844.521c0,.9.818.739,1.575.739,0-1.151,1.339.958,1.47,1.361-.184,0,.315,1.177.42,1.575-.21-.074-.276,0-.21.21.665.245,1.719.175,1.894-.525-.639,0-.424-.731-.424-1.155a.789.789,0,0,1,.1-1.466c0,.595,2.166-.372.945-.836a2.358,2.358,0,0,0,.013-2.279c-.311-.367-.7,0-.853-.551.827-.206.219-1.781.21-2.516.263-.1.945.166.945,0,.809,0,2.157,1.024,2.629-.214,1.352.617.276,1.2,1.684.735a6.074,6.074,0,0,0,1.789,1.886c0,.074-.039.525.311.525,0,.337-.21-.192-.21.416.2.022,1.264.214,1.264-.206.678,0,1.155-.831,1.155-1.466.424-.276,1.168,2.306,1.68,2.306.376.586,1.579,1.439,1.579,1.991.254.258.521.188.521.945.319,0,.949-1.256.949-.1a1.989,1.989,0,0,1,1.264,1.151c-.757,0-.039.735-.429.735,0,.726-1.623.149-1.991.1-.5,2.253-3.539.634-5.377,1.216a6.264,6.264,0,0,0-2.936,3.5c1.173.013,1.689-1.015,2.734-1.365.853,0,1.019-.516,1.789-.731,0,.214.21.1.21.315-1.5,0-.586.967-.149,1.671a1.8,1.8,0,0,0,.927.783,4.163,4.163,0,0,0-.354.792s0,0,0,0c-.284.1-.84.3-.949.525-1.693.188-.857.074-.744-.332.061.144.669.013.643.017-.1-.507-.254-.437-.105-.731-.919,0-1.365.42-2.1.42-.122.249-.766.84-1.05.84a4.976,4.976,0,0,1-1.264,2.2c0-.171-1.5.941-1.365.941-.332.538-.7.521-.844,1.361a7.059,7.059,0,0,0-.525,1.676c-.652.433-.892,2.2-2,2.2-.678,1.347-1.894,1.168-1.894,2.936.411.42.569,2.279.7,2.874.157.739.4,1.509-.586,1.527-.07-.109-.761-1.155-.634-1.155a6.669,6.669,0,0,0-.84-2.253c-.416-.582-1.186.092-1.789-.162-.258-.516-2-.63-2.625-.63.1.389.385.512.42.945a2.386,2.386,0,0,1-1.347.372c-.914-.127-.8-.84-1.811-.739a3.039,3.039,0,0,0-2.734,3.093,9.261,9.261,0,0,0,0,3.146c0,.888.735,1.531.735,2.2.713,0,1.514,1.571,2.209,1.571.079.556-.35.643.84.634,0-.061.647-.407.735-.84-.823-.2,0-1.26.525-1.466,0,.748,1.05-.249,1.05-.315.118-.048,1.159-.42,1.159-.42,0-.849.792.083.21.42-.569,0-.525.945-.84.945-.136.674-.4,1.26-.56,1.916-.2.809.455.892.245,1.649a13.153,13.153,0,0,0,2.524,0,.743.743,0,0,0-.1-.42c1.221,0,.1,2.306.844,2.306,0,.871.42,1.549.42,2.1a1.393,1.393,0,0,1,.735,1.571c.7.092,2.205.271,2.205-.63,1.063,0,1.137.722,1.059,1.466,2.117,0,.792-2.1,1.676-2.1.083-.346.228-.407.433-.179.433.232.761-.433,1.107-.643a2.85,2.85,0,0,1,.564-.3c.3.179.324.127.455.328a3.152,3.152,0,0,0,1.654-.669c.757.092.512,1.719,1.929,1.82a5.034,5.034,0,0,0,2.376-.14c.122-.083.573.284.621.442.472,0,.438.411.639.4a.171.171,0,0,0,.214.1c.061.179.438.232.634.731,0,.455.945.534.945.836.678.341-.232.433.809.748A7.556,7.556,0,0,0,66,82.389c.2-.748.836.1,1.159.1.166.341.254.083.416.42.976.814.333.5.735,1.365.468.306.617,1.374.744,1.991-.376,0-.109,1.439-.109,1.575-.455,0,1.164.862,1.164-.214.665.109,1.1.836,1.575.836-.276.634.735,1.111.735.109,1,.1.731,1.588.634,2.1.739,0,.954-.411,1.584-.49a4.278,4.278,0,0,1,2.306-.748A4.371,4.371,0,0,1,81.321,93.8a4.319,4.319,0,0,1-3.71,4.239,7.656,7.656,0,0,1-.551.595c0,.21-.048,2.3-.109,2.3,0,.42-.319,2.726-.63,2.726,0,1.186-.774,1.4-1.05,2.516-.639.473-2.367,1.26-2.634,1.781-.494,0-.862.42-1.365.42-.07.144-1.142,1.155-.949,1.155-.079.744.057,2.494-.346,2.984-.271.324-.661.289-.49.8-.591,0,.035.42-.9.42a2.08,2.08,0,0,0-1.662,1.544,2.331,2.331,0,0,1-1.015,2.021c0,.3-1.365.385-1.365,1.155.127,0,0,1.426,0,1.571a2.486,2.486,0,0,0-1.575.731c-1.374,0-1.207.14-2.1.735,0,.184-.127.836-.315.836,0,1.063-.757.1-1.369.634.241,0,.547,1.046.42,1.046,0,.923-.573,1-1.155,1.68-.276.184-.538.945-.735.945,0,.621-.311,1.186-.311,1.781.131,0,.009.267.1.516.293-.083.3-.416.42-.416,0-.525.836.311.315.311-.433.656-.9.669-1.159,1.575-.262,0-.49.254-.682.551a60.891,60.891,0,0,0,67.541-25.743,16.787,16.787,0,0,1,.477-3.539c.429.315.748.906,1.05,0-.757-.149-.573-.411-.315-1.046a2.653,2.653,0,0,0,1.343.359c.144-.271.258-.56.4-.831-.429-.332.162-1.194.367-.774.109-.21.206-.429.306-.639-.048-.013-.035.018-.1,0,0-.381.07-.332.319-.525a.385.385,0,0,0,.009.074,60.929,60.929,0,0,0,6.024-26.355c0-.311-.044-.608-.048-.919-.114.429-.328.893-.63,1,0,.276-3.128,1.636-2.94,2.2-.551,0-2.485.551-2.839,1.256a4.88,4.88,0,0,0-2.1.84c-1.951,0-1.579-2.3-2.52-2.3Zm8.894-23.949H129.31c-.018-.022-.035-.026-.053-.057-.118,0-.612-1.111-.42-1.365a3.107,3.107,0,0,1,.376.026c-.2-.481-.411-.954-.626-1.431a3.022,3.022,0,0,1-1.54.774c0,.179-.932,1.991,0,1.991a.318.318,0,0,0,.026.092,2.176,2.176,0,0,0,.184,4.344h.862c.053.4.267.744,1.033.914.241,1.011,2.043,1.369,2.314.311-.761,0-.512-.731-.446-1.225h.613a2.187,2.187,0,1,0,0-4.375ZM125.259,78.5c.153.009,1.164-.018,1.164-.2a10.691,10.691,0,0,0,3.049-.424c0,1.356-1.142,2.113-.949,3.461-.757,0-.424.779-.424,1.046-.49.3-.564.853-1.155,1.155,0,.608-1.365,1.614-1.768,2.135-.455.582-1.824,1.593-2,2.332.048-.175-2.5,2.656-1.908,2.656,0,.529-.717,4.716.21,4.716,0,.367.792,3.881.311,3.881,0,1.129-.735,1.82-.735,2.721-.359.245-.871.381-1.05.739-.643,0-.954,1.365-1.26,1.365,0,1.457-.424,2.537-.424,4.191.118,0-.84,2.358-.84,2.511-.774.521-2.734,2.389-2.734,3.36,0,0-1.365,1.916-1.575,2.2-.411,0-3.579.595-3.579.84-.674,0-2.415.529-2.835-.1,0-.665-.363-1.509-.42-2.415-.324,0-.376-1.361-.735-1.361,0-.289-2.008-4.3-1.684-4.3a7.043,7.043,0,0,0-.42-1.781c0-1.444-1.054-2.647-1.054-3.981-.311,0-.954-2.931-.63-2.931,0-1.54.538-2.546.761-4.257a10.127,10.127,0,0,0-.446-4.344c-.179,0-.783-1-.844-1.256a3.186,3.186,0,0,1-1.155-2.721c.551-.63.77-3,.634-3.776a4.7,4.7,0,0,0-2.634-.315c-.678-1.361-5.232-.521-6.523-.521,0,.744-3.172-.144-3.469-.735-.774,0-2.31-1.645-2.31-2.411a8.631,8.631,0,0,1-2.205-4.3c-.735-.367-.512-1.785-.109-1.785a7.476,7.476,0,0,0-.429-2.227c-.127-.442.429-.919.429-1.444a6.322,6.322,0,0,1,.853-3.7,14.291,14.291,0,0,0,.827-1.562c.438-1.1.569-.052,1.159-1.033.564-.28.892-1.216,1.474-1.676.254-.337.262-.477,0-.735a6.312,6.312,0,0,0,.735-1.986c.823-1.142.241-.621,1.05-.525.3-.324.792-1.155,1.26-1.155a1.327,1.327,0,0,1,1.159-.63c0,.63,1.715-.206,1.894-.206.293-.591,2.183-1.26,2.629-1.26,0-.718,3.727.2,4.314.1v-.315c.8.188,2.249,3.382,2.1,4.091a8.2,8.2,0,0,1,1.579,0c0,.678,1.277.844,1.859.875.809.039,3.185-.083,3.185-1.19a.982.982,0,0,1,1.059,1.151c.709.079,4.922.162,4.624,1.046.617,0,.774,1.054,1.365,1.054-.118.726.735,2.621,1.365,2.621a3.3,3.3,0,0,0,.949,2.2,7.674,7.674,0,0,0,2.205,3.356c-.394.744.6,1.356.844,2.1-.057,0,.214,1.1.521,1.26,0,.744,1.566,3.776,2.424,3.776.057.367-.8.534.315.617ZM102.548,55.027c.162-.626.529-.14.871-.026.809.263.529-.013,1.129-.284C104.548,56.423,103.568,55.128,102.548,55.027Zm-2.214-3.146c.429,0,.547,1.925-.63,1.571,0-.477-.3-1.361.319-1.361.179.744.311.442.311-.21Zm-.521-1.256c.486.21.7.14.63-.21.639.21-.083.665-.21,1.155C99.906,51.247,100.006,51.134,99.814,50.626ZM88.557,41.294c-1.033-.267,1.063-.573,1.155-.836a.488.488,0,0,1-.455-.669c.157-.363.416.433.774.254.424-.044,1.26-.678.831.547-.437,1.242-.836,2.153-2.411,2.174-.564-.569-.022-.866.1-1.47ZM92.451,37c.849,0,.105.63-.083.63.144.057-.026.564-.026.731.787-.009.8-.49,1.365-.63-.118.7-.906.84-.136,1.444.407.319.822.7.661,1.181,1,0,1.151.962.945,2.1.556,0,.529.026.529-.529.538.149.5.634,0,.634-.5.984-1.807.941-2.734.941-.009-.761-.153-.809-.857-.595-.963.293-.21-.766-.193-1.291.1,0,2.183.1.945-.315-.066-1.129-.319-1.466-1.365-1.466,0-.77-.271-.713-.4-1.557-.179-1.247.976.087,1.347-1.273Zm-.319,6.812c0,.258-.525.464-.63.1.1.035.14,0,.1-.1ZM83.508,32.553H79.133a2.187,2.187,0,0,1,0-4.375h4.375a2.187,2.187,0,1,1,0,4.375ZM58.019,71.272c.245,0,.529.1.529.315C58.229,71.587,57.818,71.889,58.019,71.272Zm-3.99.214c-.175.332-1.592.276-1.789-.109.525,0,.932.214,1.47,0,0-.289-.241-.521-.42-.836.573,0,1.216.438,2,.42,0-.486-.214.1,0-.525a2.456,2.456,0,0,1,1.155,1.151,15.606,15.606,0,0,0-2.415-.1ZM49.4,68.97a2.947,2.947,0,0,1-1.894-.945c.521.022,1.037.236,1.365-.315,1.334.136,1.452,1.054,2.524,1.054.2.354,1.347,1.168.241,1.273A2.43,2.43,0,0,1,49.4,68.97Zm.84,2.936c-.389,0-1.032.171-.735-.634C50.022,71.342,50.267,71.556,50.241,71.906Zm.735-.105-.63.105C50.407,71.42,50.866,70.878,50.976,71.8Zm3.889,4.607c-.083.293-.07.311-.416.311.035-.136.066-.271.1-.416C54.659,76.338,54.76,76.373,54.865,76.408ZM45.4,67.71c.1.035.21.074.315.105.136.521.42.262.735.1C46.452,68.529,45.043,68.7,45.4,67.71Z" transform="translate(54.429 54.072)" fill="#ae4593"/><g transform="translate(-847 -1108)"><g transform="translate(868 1127)" fill="none" stroke="#ae4593" stroke-width="7"><circle cx="106" cy="106" r="106" stroke="none"/><circle cx="106" cy="106" r="102.5" fill="none"/></g><g transform="translate(955 1108)" fill="#ae4593" stroke="#fff" stroke-width="6"><circle cx="19.5" cy="19.5" r="19.5" stroke="none"/><circle cx="19.5" cy="19.5" r="16.5" fill="none"/></g><g transform="translate(1061 1208)" fill="#ae4593" stroke="#fff" stroke-width="6"><circle cx="19.5" cy="19.5" r="19.5" stroke="none"/><circle cx="19.5" cy="19.5" r="16.5" fill="none"/></g><g transform="translate(847 1208)" fill="#ae4593" stroke="#fff" stroke-width="6"><circle cx="19.5" cy="19.5" r="19.5" stroke="none"/><circle cx="19.5" cy="19.5" r="16.5" fill="none"/></g><g transform="translate(955 1320)" fill="#ae4593" stroke="#fff" stroke-width="6"><circle cx="19.5" cy="19.5" r="19.5" stroke="none"/><circle cx="19.5" cy="19.5" r="16.5" fill="none"/></g></g></svg>