<?xml version="1.0" encoding="utf-8"?>
<!-- Generator: Adobe Illustrator 24.1.0, SVG Export Plug-In . SVG Version: 6.00 Build 0) -->
<svg version="1.1" id="Layer_1" xmlns="http://www.w3.org/2000/svg" xmlns:xlink="http://www.w3.org/1999/xlink" x="0px" y="0px" viewBox="0 0 1080 1080" style="enable-background:new 0 0 1080 1080;" xml:space="preserve">
	<style type="text/css">
		.st0{fill:#5B3483;}
	</style>
	<g>
		<path class="st0" d="M849.14,279.82c-0.63-13.19-7.23-21.55-13.09-27.37L721.98,139.89c-5.58-5.48-13.24-12.97-27.59-12.97H274.05
		c-24.44,0-44.3,20.13-44.3,44.9v736.36c0,24.67,19.86,44.73,44.3,44.73h530.77c24.5,0,44.43-20.06,44.43-44.73V281.79
		C849.26,281.12,849.21,280.47,849.14,279.82z M799.35,264.58h-87.76v-86.59L799.35,264.58z M804.82,918.5H274.05
		c-5.34,0-9.88-4.74-9.88-10.32V171.82c0-5.68,4.54-10.49,9.88-10.49l403.12-0.23v120.68c0,9.51,7.7,17.21,17.21,17.21h120.46
		v609.18C814.84,913.76,810.27,918.5,804.82,918.5z" />
		<path class="st0" d="M734.61,553.83c-26.05,0-47.26,21.21-47.26,47.29c0.02,9.4,2.83,18.14,7.6,25.51l-58.33,86.71
		c-3.2-0.69-6.5-1.07-9.9-1.07c-0.03,0-0.07,0-0.1,0c-9.18,0-17.96,2.65-25.5,7.52l-70.56-51.55c0.67-3.17,1.04-6.45,1.04-9.81
		c0-26.05-21.21-47.26-47.22-47.26c-0.03,0-0.07,0-0.1,0c-12.57,0-24.4,4.91-33.31,13.78c-8.94,8.94-13.88,20.84-13.88,33.48
		c0,6.01,1.17,11.74,3.23,17.03l-74.4,80.8c-5.65-2.39-11.85-3.72-18.36-3.72c-26.05,0-47.26,21.21-47.26,47.26
		c0,26.05,21.21,47.26,47.26,47.26c26.05,0,47.26-21.21,47.26-47.26c0-6.94-1.54-13.52-4.24-19.46l73.17-79.45
		c6.24,3.05,13.22,4.8,20.62,4.8c10.14,0,19.53-3.25,27.24-8.71l69.39,50.7c-0.99,3.83-1.55,7.8-1.55,11.86
		c0,26.05,21.21,47.26,47.26,47.26c26.05,0,47.26-21.21,47.26-47.26c0-10.1-3.22-19.45-8.64-27.14l57.58-85.59
		c3.77,0.97,7.69,1.54,11.76,1.54c26.05,0,47.26-21.21,47.26-47.26C781.9,575.04,760.69,553.83,734.61,553.83z M347.56,812.63
		c-7.09,0-12.84-5.75-12.84-12.84c0-7.09,5.75-12.84,12.84-12.84c7.09,0,12.84,5.75,12.84,12.84
		C360.4,806.88,354.65,812.63,347.56,812.63z M471.51,658.42c0-3.46,1.34-6.69,3.76-9.11c2.42-2.42,5.61-3.73,9.04-3.73h0.03
		c7.09,0,12.84,5.75,12.84,12.84c0,2.65-0.8,5.1-2.18,7.15c-0.01,0.02-0.02,0.03-0.03,0.05c-2.31,3.4-6.21,5.64-10.63,5.64
		C477.26,671.26,471.51,665.52,471.51,658.42z M626.69,772.36c-7.09,0-12.84-5.75-12.84-12.84c0-2.56,0.74-4.98,2.1-7.05
		c0.09-0.12,0.2-0.22,0.29-0.35c0.04-0.06,0.08-0.13,0.12-0.19c0.39-0.53,0.78-1.05,1.25-1.52c2.42-2.42,5.61-3.73,9.04-3.73h0.03
		c7.09,0,12.84,5.75,12.84,12.84C639.53,766.62,633.78,772.36,626.69,772.36z M734.65,613.93c-7.09,0-12.87-5.78-12.87-12.84
		c0-7.09,5.75-12.84,12.84-12.84c7.09,0,12.87,5.75,12.87,12.84C747.48,608.18,741.74,613.93,734.65,613.93z" />
		<path class="st0" d="M343.56,488.93c13.58,10.82,32.94,18.08,48.2,18.08c27.73,0,50.28-19.63,50.28-43.73
		c0-30.85-34.48-40.13-45.51-43.09c-20.4-5.85-20.64-9.81-20.64-9.98c0-4.34,6.92-9.34,15.86-9.34c7.16,0,12.54,3.09,14.72,6.12
		c5.48,7.76,16.23,9.54,23.96,4.07c7.76-5.48,9.58-16.23,4.07-23.96c-9.14-12.94-25.14-20.64-42.75-20.64
		c-27.73,0-50.28,19.63-50.28,43.76c0,29.98,31.9,39.12,45.81,43.12c19.46,5.24,20.33,9.92,20.33,9.95c0,4.3-6.92,9.31-15.86,9.31
		c-6.49,0-18.55-4.03-26.75-10.55c-7.39-5.95-18.22-4.74-24.17,2.72C334.89,472.19,336.13,483.01,343.56,488.93z" />
		<path class="st0" d="M671.39,507.18c35.63,0,64.63-31.59,64.63-70.45c0-38.82-29.01-70.41-64.63-70.41
		c-35.63,0-64.63,31.59-64.63,70.41C606.76,475.59,635.77,507.18,671.39,507.18z M671.39,400.74c16.67,0,30.22,16.13,30.22,36
		c0,19.86-13.54,36.03-30.22,36.03c-16.67,0-30.22-16.17-30.22-36.03C641.18,416.87,654.72,400.74,671.39,400.74z" />
		<path class="st0" d="M493.33,507.18h68.9c9.51,0,17.21-7.7,17.21-17.21c0-9.51-7.7-17.21-17.21-17.21h-51.69v-18.82h41.95
		c9.51,0,17.21-7.7,17.21-17.21c0-9.51-7.7-17.21-17.21-17.21h-41.95v-18.79h51.69c9.51,0,17.21-7.7,17.21-17.21
		c0-9.51-7.7-17.21-17.21-17.21h-68.9c-9.51,0-17.21,7.7-17.21,17.21v106.44C476.12,499.48,483.81,507.18,493.33,507.18z" />
	</g>
</svg>
