<?xml version="1.0" encoding="utf-8"?>
<!-- Generator: Adobe Illustrator 24.1.0, SVG Export Plug-In . SVG Version: 6.00 Build 0) -->
<svg version="1.1" id="Layer_1" xmlns="http://www.w3.org/2000/svg" xmlns:xlink="http://www.w3.org/1999/xlink" x="0px" y="0px" viewBox="0 0 1080 1080" style="enable-background:new 0 0 1080 1080;" xml:space="preserve">
	<style type="text/css">
		.st0{fill:#5B3483;}
	</style>
	<g>
		<path class="st0" d="M849.72,760.58c-14.97,0-29.03,3.89-41.26,10.7L685.75,632.57c-6.8-7.75-18.64-8.47-26.27-1.6
		c-7.71,6.8-8.44,18.55-1.62,26.26l122.79,138.8c-10.09,13.99-16.06,31.15-16.06,49.68c0,46.95,38.18,85.13,85.13,85.13
		c46.95,0,85.13-38.18,85.13-85.13C934.85,798.76,896.67,760.58,849.72,760.58z M849.72,893.6c-26.4,0-47.89-21.49-47.89-47.89
		c0-26.4,21.49-47.89,47.89-47.89c26.4,0,47.89,21.49,47.89,47.89C897.61,872.11,876.12,893.6,849.72,893.6z" />
		<path class="st0" d="M258.13,440.17l74.37,4c0.35,0.04,0.67,0.04,1.02,0.04c9.82,0,18.04-7.71,18.58-17.6
		c0.55-10.29-7.33-19.05-17.6-19.6l-74.37-4c-10.35-1.6-19.04,7.31-19.6,17.56C239.98,430.86,247.86,439.62,258.13,440.17z" />
		<path class="st0" d="M347.41,829.09c-1.52-2.56-3.67-4.79-6.4-6.43c-2.84-1.69-5.95-2.53-9.04-2.62
		c-8.42-3.58-17.67-5.56-27.38-5.56c-38.73,0-70.22,31.49-70.22,70.22c0,38.73,31.49,70.22,70.22,70.22
		c38.73,0,70.22-31.49,70.22-70.22C374.81,862.08,364.06,841.94,347.41,829.09z M304.59,917.68c-18.18,0-32.98-14.8-32.98-32.98
		c0-18.18,14.8-32.98,32.98-32.98c18.18,0,32.98,14.8,32.98,32.98C337.57,902.88,322.77,917.68,304.59,917.68z" />
		<path class="st0" d="M393.54,253.28c4.52,0,8.93-0.48,13.19-1.38l16.08,29.27c3.38,6.15,9.75,9.64,16.33,9.64
		c3.04,0,6.11-0.73,8.95-2.29c9.02-4.95,12.31-16.29,7.35-25.31l-16.08-29.25c11.34-11.58,18.37-27.41,18.37-44.86
		c0-35.38-28.8-64.18-64.18-64.18s-64.18,28.8-64.18,64.18C329.35,224.48,358.15,253.28,393.54,253.28z M393.54,162.15
		c14.86,0,26.95,12.07,26.95,26.95c0,9.45-4.89,17.76-12.27,22.57c-0.63,0.26-1.25,0.55-1.86,0.89c-0.6,0.33-1.17,0.69-1.71,1.07
		c-3.39,1.54-7.14,2.42-11.1,2.42c-14.86,0-26.95-12.07-26.95-26.95C366.59,174.23,378.68,162.15,393.54,162.15z" />
		<path class="st0" d="M170.09,348.34c-35.38,0-64.18,28.8-64.18,64.18c0,35.38,28.8,64.19,64.18,64.19c35.4,0,64.2-28.8,64.2-64.19
		C234.29,377.15,205.49,348.34,170.09,348.34z M170.09,439.48c-14.86,0-26.95-12.07-26.95-26.95c0-14.87,12.09-26.95,26.95-26.95
		c14.87,0,26.96,12.07,26.96,26.95C197.05,427.4,184.96,439.48,170.09,439.48z" />
		<path class="st0" d="M908.92,177.9c-35.38,0-64.18,28.8-64.18,64.18c0,6.77,1.07,13.29,3.02,19.42c-0.23,3.69,0.62,7.48,2.71,10.87
		c1.38,2.25,3.17,4.08,5.21,5.5c11.54,17.11,31.1,28.39,53.25,28.39c35.38,0,64.19-28.8,64.19-64.19
		C973.11,206.7,944.31,177.9,908.92,177.9z M908.92,269.03c-14.86,0-26.95-12.07-26.95-26.95s12.09-26.95,26.95-26.95
		c14.86,0,26.95,12.07,26.95,26.95S923.78,269.03,908.92,269.03z" />
		<path class="st0" d="M800.21,321.69c3.33,0,6.69-0.87,9.75-2.76l3.31-2.04c8.75-5.38,11.47-16.87,6.09-25.6
		c-5.38-8.76-16.86-11.6-25.62-6.11l-3.31,2.04c-8.75,5.38-11.47,16.87-6.09,25.6C787.84,318.52,793.95,321.69,800.21,321.69z" />
		<path class="st0" d="M735.81,361.11c3.35,0,6.75-0.91,9.8-2.8l1.58-0.98c8.75-5.42,10.64-16.4,5.22-25.16
		c-5.47-8.73-17.73-10.87-26.44-5.49c-8.75,5.42-11.42,16.91-6,25.64C723.5,357.98,729.57,361.11,735.81,361.11z" />
		<path class="st0" d="M416.32,698.98c-8.8-5.31-20.24-2.55-25.58,6.29l-1.87,3.09c-5.33,8.8-1.58,18.69,7.22,24
		c2.64,1.6,5.58,2.33,8.58,2.33c7,0,14.18-3.96,17.93-10.15C427.92,715.74,425.1,704.32,416.32,698.98z" />
		<path class="st0" d="M378.68,760.83c-8.8-5.27-20.24-2.51-25.58,6.29l-1.87,3.09c-5.33,8.8-1.58,18.69,7.22,24
		c2.64,1.6,5.58,2.33,8.58,2.33c7,0,14.18-3.96,17.93-10.15C390.28,777.6,387.46,766.18,378.68,760.83z" />
		<path class="st0" d="M452.97,638.57c-8.78-5.24-20.26-2.47-25.55,6.36l-0.96,1.6c-5.31,8.8-1.98,19.46,6.82,24.76
		c2.8,1.67,5.91,2.44,9.04,2.44c6.69,0,13.38-3.6,17-9.6C464.63,655.34,461.79,643.88,452.97,638.57z" />
		<path class="st0" d="M723.42,460.78c0-95.35-77.59-172.92-172.93-172.92s-172.92,77.57-172.92,172.92
		c0,95.35,77.57,172.95,172.92,172.95S723.42,556.13,723.42,460.78z M550.49,596.5c-74.82,0-135.68-60.87-135.68-135.72
		c0-74.8,60.86-135.68,135.68-135.68s135.7,60.88,135.7,135.68C686.19,535.63,625.31,596.5,550.49,596.5z" />
		<path class="st0" d="M557.18,444.71c-25.18-7.89-28.58-13.82-28.58-18.62c0-9.64,10.55-17.78,23.02-17.78
		c8.69,0,16.58,3.82,20.56,9.93c5.62,8.58,17.18,11.02,25.77,5.42c8.62-5.64,11.05-17.16,5.44-25.78
		c-7.53-11.51-19.45-19.99-33.15-24.07v-4c0-10.29-8.33-18.62-18.62-18.62c-10.29,0-18.62,8.33-18.62,18.62v3.99
		c-24.13,7.18-41.64,27.9-41.64,52.3c0,37.06,38.33,49.06,55.02,54.26c18.75,5.49,28.26,11.75,28.26,18.55
		c0,9.64-10.55,17.78-23.02,17.78c-8.47,0-24.24-5.78-34.97-15.09c-7.75-6.8-19.49-5.93-26.26,1.82
		c-6.76,7.75-5.95,19.53,1.82,26.26c11.3,9.85,26.4,17.64,40.78,21.53v4c0,10.29,8.33,18.62,18.62,18.62
		c10.29,0,18.62-8.33,18.62-18.62v-3.99c24.13-7.19,41.64-27.91,41.64-52.3C611.87,460.75,570.45,448.6,557.18,444.71z" />
	</g>
</svg>
