<?xml version="1.0" encoding="utf-8"?>
<!-- Generator: Adobe Illustrator 24.1.0, SVG Export Plug-In . SVG Version: 6.00 Build 0) -->
<svg version="1.1" id="Layer_1" xmlns="http://www.w3.org/2000/svg" xmlns:xlink="http://www.w3.org/1999/xlink" x="0px" y="0px" viewBox="0 0 1080 1080" style="enable-background:new 0 0 1080 1080;" xml:space="preserve">
	<style type="text/css">
		.st0{fill:#5B3483;}
	</style>
	<g>
		<path class="st0" d="M536.65,265.1c-60.61-28.01-90.77-16.44-105.36-1.8c-7.28,7.28-13.81,18.43-15.06,35.27l-53.15,186.47
		l-36.86,54.1l-0.1,0.14c-0.06,0.09-0.12,0.17-0.18,0.27L219.17,696.08c-20.93,31.32-16.8,73.4,9.84,100.1
		c15.35,15.32,35.51,23.27,55.93,23.24c14.36,0,28.85-3.91,41.83-11.92l30.85-19.47l126.24,126.21
		c11.7,11.7,27.21,17.82,42.95,17.82c9.3,0,18.69-2.15,27.4-6.54c18.72-9.46,31.09-27.6,33.08-48.46
		c1.96-20.9-6.76-41.03-23.37-53.82l-117.9-91.02l43.99-27.77l0.42-0.26c0.01-0.01,0.03-0.02,0.04-0.03l56.05-35.35l187.26-53.36
		c13.79-1.03,25.64-5.75,34.77-14.88c45.1-45.1-17.47-156.29-99.23-238.06C626.05,319.23,578.93,284.62,536.65,265.1z
		 M543.05,635.69c-27.07-18.04-54.75-40.88-80.37-66.51c-25.65-25.65-48.49-53.33-66.53-80.4l35.28-123.84
		c0.55,1.23,1.09,2.46,1.67,3.72c19.52,42.28,54.14,89.39,97.41,132.67c42.12,42.14,92.07,79.14,136.77,98.97L543.05,635.69z
		 M481.8,670.83c-22.48-16.29-44.35-34.98-65.09-55.72c-21.29-21.29-40.4-43.73-56.98-66.87l18.68-27.4
		c17.48,24.35,38.24,48.74,61.06,71.55c22.55,22.58,46.68,43.15,70.78,60.5L481.8,670.83z M309.4,779.64
		c-18.37,11.35-41.83,8.59-57.18-6.67c-15.61-15.64-18.01-40.29-5.83-58.53l93.74-137.45c15.91,21.17,33.79,41.74,53.38,61.33
		c18.74,18.74,38.35,35.92,58.53,51.29l-43.29,27.32c-0.03,0.02-0.06,0.03-0.09,0.04l-50.66,31.98L309.4,779.64z M543.87,849.19
		c7.76,5.99,11.67,15,10.74,24.74c-0.93,9.74-6.44,17.85-15.19,22.28c-10.77,5.42-23.75,3.4-32.34-5.19l-121-120.96l30.42-19.2
		L543.87,849.19z M745.35,577.35c-2.88,2.89-7.19,4.69-12.7,5.39c-1.59-0.14-3.22-0.03-4.85,0.34
		c-33.41,0.46-101.18-32.08-174.09-104.97c-40.61-40.61-72.86-84.36-90.81-123.24c-9.79-21.17-14.51-39.68-13.9-52.71
		c0.03-0.36,0.04-0.72,0.05-1.08c0.46-6.38,2.24-11.38,5.45-14.58c3.75-3.75,9.9-5.61,17.92-5.61c12.85,0,30.48,4.78,50.45,14.01
		c38.88,17.95,82.63,50.19,123.24,90.8C736.21,475.81,764.64,558.06,745.35,577.35z" />
		<path class="st0" d="M549.03,409.27c-6.41,6.38-6.41,16.76,0,23.21c6.41,6.41,16.8,6.41,23.21,0c7.79-7.79,20.48-7.72,28.21,0
		c7.76,7.76,7.76,20.42,0,28.21c-6.41,6.44-6.41,16.83,0,23.21c3.21,3.21,7.4,4.81,11.6,4.81c4.2,0,8.4-1.6,11.6-4.81
		c20.55-20.61,20.55-54.07,0-74.62C603.07,388.69,569.6,388.69,549.03,409.27z" />
		<path class="st0" d="M704.16,340.8c4.2,0,8.4-1.6,11.6-4.81l64.43-64.43c6.41-6.41,6.41-16.8,0-23.21c-6.41-6.41-16.8-6.41-23.21,0
		l-64.43,64.43c-6.41,6.41-6.41,16.8,0,23.21C695.76,339.2,699.96,340.8,704.16,340.8z" />
		<path class="st0" d="M877.05,365.9c-3.72-8.3-13.49-12.02-21.7-8.24l-85.87,38.62c-8.27,3.72-11.96,13.43-8.24,21.7
		c2.72,6.09,8.72,9.68,14.97,9.68c2.24,0,4.55-0.45,6.73-1.44l85.87-38.62C877.09,383.88,880.77,374.17,877.05,365.9z" />
		<path class="st0" d="M610.57,267.31c2.18,0.99,4.46,1.44,6.73,1.44c6.25,0,12.24-3.59,14.97-9.68l38.62-85.87
		c3.72-8.27,0.03-17.98-8.24-21.7c-8.17-3.72-17.98-0.06-21.7,8.24l-38.62,85.87C598.61,253.88,602.3,263.59,610.57,267.31z" />
	</g>
</svg>
