<?xml version="1.0" encoding="utf-8"?>
<!-- Generator: Adobe Illustrator 24.1.0, SVG Export Plug-In . SVG Version: 6.00 Build 0)  -->
<svg version="1.1" id="Layer_1" xmlns="http://www.w3.org/2000/svg" xmlns:xlink="http://www.w3.org/1999/xlink" x="0px" y="0px"
	 viewBox="0 0 150 140" style="enable-background:new 0 0 150 140;" xml:space="preserve">
<style type="text/css">
	.st0{fill:#5A3482;}
	.st1{fill:#5A3482;stroke:#5A3482;stroke-miterlimit:10;}
	.st2{fill:none;stroke:#5A3482;stroke-miterlimit:10;stroke-dasharray:3.5061;}
	.st3{fill:#FFFFFF;stroke:#5A3482;stroke-miterlimit:10;stroke-dasharray:3.5061;}
	.st4{fill:#44276A;}
	.st5{fill:url(#SVGID_1_);}
	.st6{fill:#FFFFFF;}
	.st7{opacity:0.49;}
	.st8{fill:#D9DFF2;}
	.st9{fill:#FFFFFF;stroke:#5A3482;stroke-miterlimit:10;}
	.st10{fill:none;stroke:#354E9C;stroke-width:0.6122;stroke-miterlimit:10;}
	.st11{fill:url(#SVGID_2_);}
	.st12{fill:url(#SVGID_3_);}
	.st13{fill:url(#SVGID_4_);}
	.st14{fill:url(#SVGID_5_);}
	.st15{fill-rule:evenodd;clip-rule:evenodd;fill:#5A3482;}
	.st16{fill:#AB3F8F;}
	.st17{fill:url(#SVGID_6_);}
	.st18{fill:#08B9E5;}
	.st19{fill:#70C1B1;}
	.st20{fill-rule:evenodd;clip-rule:evenodd;fill:#70C1B1;}
	.st21{fill:#44266B;}
	.st22{fill:#DADAEE;}
	.st23{fill:#EEEDF7;}
	.st24{fill:#DFDCEF;}
	.st25{fill:none;stroke:#FFFFFF;stroke-width:0.2901;stroke-miterlimit:10;}
	.st26{clip-path:url(#SVGID_8_);}
	.st27{fill:#49529E;}
	.st28{fill:url(#SVGID_9_);}
	.st29{opacity:0.2;}
	.st30{fill:#FDFFFF;}
	.st31{fill:#FCFDFF;}
	.st32{fill:#FCFCFD;}
	.st33{fill:#FBFBFD;}
	.st34{fill:#FAFAFD;}
	.st35{fill:#F9F9FC;}
	.st36{fill:#F8F8FC;}
	.st37{fill:#F7F7FB;}
	.st38{fill:#F6F6FB;}
	.st39{fill:#F5F5FA;}
	.st40{fill:#F4F4FA;}
	.st41{fill:#F3F3FA;}
	.st42{fill:#F2F2F9;}
	.st43{fill:#F1F1F9;}
	.st44{fill:#F0F0F8;}
	.st45{fill:#EFEFF8;}
	.st46{fill:#EEEEF7;}
	.st47{fill:#EDEDF7;}
	.st48{fill:#EDECF7;}
	.st49{fill:#ECEBF6;}
	.st50{fill:#EBEAF6;}
	.st51{fill:#EAE9F5;}
	.st52{fill:#E9E8F5;}
	.st53{fill:#E8E7F4;}
	.st54{fill:#E7E6F4;}
	.st55{fill:#E6E5F3;}
	.st56{fill:#E5E4F3;}
	.st57{fill:#E4E3F3;}
	.st58{fill:#E4E3F2;}
	.st59{fill:#E3E2F2;}
	.st60{fill:#E2E1F2;}
	.st61{fill:#E1E0F1;}
	.st62{fill:#E0DFF1;}
	.st63{fill:#DFDEF0;}
	.st64{fill:#DEDDF0;}
	.st65{fill:#DEDCEF;}
	.st66{fill:#DDDBEF;}
	.st67{fill:#DCDBEF;}
	.st68{fill:#DBDAEE;}
	.st69{fill:#DAD9EE;}
	.st70{fill:#D9D8ED;}
	.st71{fill:#D8D7ED;}
	.st72{fill:#D7D6EC;}
	.st73{fill:#D7D5EC;}
	.st74{fill:#D6D4EB;}
	.st75{fill:#D5D3EB;}
	.st76{fill:#D4D2EA;}
	.st77{fill:#D3D2EA;}
	.st78{fill:#D2D1EA;}
	.st79{fill:#D1D0E9;}
	.st80{fill:#D0CFE9;}
	.st81{fill:#D0CEE8;}
	.st82{fill:#CFCDE8;}
	.st83{fill:#CECCE7;}
	.st84{fill:#CDCBE7;}
	.st85{fill:#CCCAE6;}
	.st86{fill:#CBCAE6;}
	.st87{fill:#CBC9E6;}
	.st88{fill:#CAC8E5;}
	.st89{fill:#C9C7E5;}
	.st90{fill:#C8C6E4;}
	.st91{fill:#C7C5E4;}
	.st92{fill:#C7C5E3;}
	.st93{fill:#C6C4E3;}
	.st94{fill:#C5C3E2;}
	.st95{fill:#C5C2E2;}
	.st96{fill:#C4C2E2;}
	.st97{fill:#C3C1E1;}
	.st98{fill:#C2C0E1;}
	.st99{fill:#C1BFE0;}
	.st100{fill:#C0BEE0;}
	.st101{fill:#C0BDDF;}
	.st102{fill:#BFBCDE;}
	.st103{fill:#BEBBDE;}
	.st104{fill:#BDBADD;}
	.st105{fill:#BCB9DD;}
	.st106{fill:#BBB9DD;}
	.st107{fill:#BAB8DC;}
	.st108{fill:#B9B7DC;}
	.st109{fill:#B8B6DB;}
	.st110{fill:#B8B5DB;}
	.st111{fill:#B7B4DA;}
	.st112{fill:#B6B3DA;}
	.st113{fill:#B5B2D9;}
	.st114{fill:#B4B1D9;}
	.st115{fill:#B3B0D8;}
	.st116{fill:#B2B0D8;}
	.st117{fill:#B1AFD7;}
	.st118{fill:#B0AED7;}
	.st119{fill:#AFADD6;}
	.st120{fill:#AFACD6;}
	.st121{fill:#AEABD5;}
	.st122{fill:#ADAAD5;}
	.st123{fill:#ACA9D4;}
	.st124{fill:#ABA8D4;}
	.st125{fill:#AAA8D4;}
	.st126{fill:#A9A7D3;}
	.st127{fill:#A8A6D2;}
	.st128{fill:#A7A5D2;}
	.st129{fill:#A7A4D1;}
	.st130{fill:#A6A3D1;}
	.st131{fill:#A5A2D0;}
	.st132{fill:#A4A1D0;}
	.st133{fill:#A3A0CF;}
	.st134{fill:#A29FCF;}
	.st135{fill:#A19FCF;}
	.st136{fill:#A19ECE;}
	.st137{fill:#A09DCD;}
	.st138{fill:#9F9CCD;}
	.st139{fill:#9E9BCC;}
	.st140{fill:#9D9BCC;}
	.st141{fill:#9C9ACB;}
	.st142{fill:#9B99CB;}
	.st143{fill:#9B98CA;}
	.st144{fill:#9A97CA;}
	.st145{fill:#9997CA;}
	.st146{fill:#9896C9;}
	.st147{fill:#9795C8;}
	.st148{fill:#9694C8;}
	.st149{fill:#9693C7;}
	.st150{fill:#9592C7;}
	.st151{fill:#9491C6;}
	.st152{fill:#9390C6;}
	.st153{fill:#928FC5;}
	.st154{fill:#908EC4;}
	.st155{fill:#F2F2FA;}
	.st156{fill:#E2EDF9;}
	.st157{fill:none;stroke:#FFFFFF;stroke-width:0.8028;stroke-miterlimit:10;}
	.st158{fill:none;stroke:#5A3482;stroke-width:0.7759;stroke-miterlimit:10;stroke-dasharray:2.7204;}
	.st159{fill:#FFFFFF;stroke:#44266B;stroke-miterlimit:10;}
	.st160{fill:none;stroke:#838EC6;stroke-miterlimit:10;}
	.st161{fill:#E6E7F5;}
	.st162{fill:#FFFFFF;stroke:#838EC6;stroke-miterlimit:10;}
	.st163{fill:none;stroke:#5A3482;stroke-miterlimit:10;}
	.st164{opacity:0.75;fill:#E0EAF7;}
	.st165{opacity:0.75;fill:none;stroke:#5A3482;stroke-miterlimit:10;}
	.st166{opacity:0.75;fill:#F4F4FA;}
	.st167{fill:#838EC6;}
	.st168{fill:#FFFFFF;stroke:#838EC6;stroke-width:0.7578;stroke-miterlimit:10;}
	.st169{fill:#D4D8EE;}
	.st170{fill:none;stroke:#D4D8EE;stroke-width:0.7578;stroke-miterlimit:10;}
	.st171{fill:none;stroke:#F4F4FA;stroke-width:1.5155;stroke-miterlimit:10;}
	.st172{fill:#7B65A9;}
	.st173{fill:#B6BFE2;}
	.st174{fill:#2A245B;}
	.st175{opacity:0.75;}
	.st176{fill:#254092;}
	.st177{fill:#C1DFF6;}
	.st178{fill:none;stroke:#FFFFFF;stroke-width:1.5396;stroke-linecap:round;stroke-linejoin:round;stroke-miterlimit:10;}
	.st179{fill:#64C6ED;}
	.st180{fill:#3F78BB;}
	.st181{fill:#8FC6ED;}
	.st182{fill:#004D8C;}
	.st183{fill:#F2E9F3;}
	.st184{fill:#00ADE3;}
	.st185{fill:#00A8D6;}
	.st186{fill:#0968B1;}
	.st187{fill:#694A97;}
	.st188{fill:#30245A;}
	.st189{fill:#8FCECA;}
	.st190{fill:#7CC5BA;}
	.st191{fill:#521336;}
	.st192{fill:#AFA4C6;}
	.st193{fill:#807CA9;}
	.st194{fill:#00A99E;}
	.st195{fill:none;stroke:#AFA4C6;stroke-width:0.7787;stroke-miterlimit:10;}
	.st196{fill:#FFFFFF;stroke:#AFA4C6;stroke-width:0.3893;stroke-linecap:round;stroke-linejoin:round;stroke-miterlimit:10;}
	.st197{fill:none;stroke:#978CB3;stroke-width:0.2261;stroke-miterlimit:10;}
	.st198{fill:#4E337D;}
	.st199{fill:#7F2C50;}
	.st200{fill:#3DBEEA;}
	.st201{fill:#696A96;}
	.st202{fill:none;stroke:#978CB3;stroke-width:0.3205;stroke-linecap:round;stroke-linejoin:round;stroke-miterlimit:10;}
	.st203{fill:none;stroke:#978CB3;stroke-width:0.3986;stroke-linecap:round;stroke-linejoin:round;stroke-miterlimit:10;}
	.st204{fill:none;stroke:#978CB3;stroke-width:0.3195;stroke-linecap:round;stroke-linejoin:round;stroke-miterlimit:10;}
	.st205{fill:#978CB3;}
	.st206{fill:none;stroke:#978CB3;stroke-width:0.2632;stroke-linecap:round;stroke-linejoin:round;stroke-miterlimit:10;}
	.st207{fill:none;stroke:#978CB3;stroke-width:0.3939;stroke-linecap:round;stroke-linejoin:round;stroke-miterlimit:10;}
	.st208{fill:url(#SVGID_10_);}
	.st209{fill:url(#SVGID_11_);}
	.st210{opacity:0.3;fill:url(#SVGID_12_);}
	.st211{fill:url(#SVGID_13_);}
	.st212{fill:url(#SVGID_14_);}
	.st213{opacity:0.3;fill:url(#SVGID_15_);}
	.st214{fill:url(#SVGID_16_);}
	.st215{fill:url(#SVGID_17_);}
	.st216{opacity:0.3;fill:url(#SVGID_18_);}
	.st217{fill:url(#SVGID_19_);}
	.st218{fill:url(#SVGID_20_);}
	.st219{opacity:0.3;fill:url(#SVGID_21_);}
	.st220{fill:url(#SVGID_22_);}
	.st221{fill:url(#SVGID_23_);}
	.st222{opacity:0.3;fill:url(#SVGID_24_);}
	.st223{fill:url(#SVGID_25_);}
	.st224{fill:url(#SVGID_26_);}
	.st225{opacity:0.3;fill:url(#SVGID_27_);}
	.st226{fill:#88D0F0;}
	.st227{fill:none;stroke:#444B99;stroke-width:0.6368;stroke-miterlimit:10;}
	.st228{clip-path:url(#SVGID_29_);}
	.st229{fill:url(#SVGID_30_);}
	.st230{fill:url(#SVGID_31_);}
	.st231{fill:#D2D9EF;}
	.st232{fill:none;stroke:#FFFFFF;stroke-width:0.6368;stroke-miterlimit:10;}
	.st233{fill:#E3E9F6;}
	.st234{fill:#EEEFF8;}
	.st235{fill:#E3E8F6;}
	.st236{fill:#C1CDEA;}
	.st237{fill:none;stroke:#D2D9EF;stroke-width:0.6368;stroke-miterlimit:10;}
	.st238{opacity:0.1;fill:#004D8C;}
	.st239{fill:#E4D9E6;}
	.st240{fill:#EB5C61;}
	.st241{fill:#FAB84B;}
	.st242{fill:#0FB2AF;}
	.st243{fill:#C9B5CE;}
	.st244{fill:#D9C7DD;}
	.st245{clip-path:url(#SVGID_33_);}
	.st246{fill:#123E69;}
	.st247{clip-path:url(#SVGID_35_);}
	.st248{fill:url(#SVGID_36_);}
	.st249{fill:url(#SVGID_37_);}
	.st250{opacity:0.3;fill:url(#SVGID_38_);}
	.st251{clip-path:url(#SVGID_40_);}
	.st252{fill:url(#SVGID_41_);}
	.st253{fill:url(#SVGID_42_);}
	.st254{opacity:0.3;fill:url(#SVGID_43_);}
	.st255{fill:#482972;}
</style>
<g>
	<g>
		<path class="st0" d="M65.13,140.34c-0.84,0-1.59-0.6-1.75-1.46l-3.12-17.27l-3.88-13.89c-3.64-2.91-25.49-21.47-27.77-48.66
			c-1.95-23.28,14.94-43.4,40.17-47.84c23.99-4.22,46.69,10.34,50.58,32.45c0.18,1.05,0.31,3.28,0.43,5.67l0.07,1.28
			c0.91,5.65,3.74,9.03,12.28,17.99c0.6,0.63,0.66,1.59,0.14,2.29l-5.99,8.05l0.25,5.56c0.02,0.36-0.08,0.71-0.27,1.02l-2.45,3.95
			l1.5,1.68c0.28,0.32,0.44,0.73,0.45,1.15l0.24,14.1c0.01,0.85-0.58,1.6-1.41,1.77l-16.64,3.47c-4.67,1.7-5.23,7.58-5.29,8.46
			l2.06,17.62c0.11,0.98-0.58,1.86-1.56,1.97c-0.99,0.13-1.86-0.58-1.97-1.56l-2.08-17.77c-0.01-0.08-0.01-0.17-0.01-0.25
			c0.01-0.38,0.33-9.27,7.79-11.86c0.07-0.03,0.15-0.05,0.22-0.06l15.32-3.19l-0.21-11.97l-1.94-2.18c-0.52-0.59-0.6-1.45-0.18-2.12
			l2.86-4.61l-0.25-5.64c-0.02-0.41,0.11-0.81,0.35-1.14l5.48-7.36c-8.15-8.6-11.16-12.44-12.2-18.97l-0.09-1.49
			c-0.08-1.61-0.22-4.31-0.38-5.23c-3.55-20.19-24.38-33.45-46.46-29.57C45.65,18.88,30.33,37,32.15,58.75
			c2.3,27.44,26.62,46.32,26.86,46.51c0.31,0.23,0.53,0.56,0.63,0.94l4.07,14.62l3.15,17.44c0.17,0.97-0.47,1.89-1.43,2.06
			C65.34,140.33,65.23,140.34,65.13,140.34z"/>
	</g>
	<g>
		<g>
			<g>
				<g>
					<path class="st0" d="M72.62,88.39c-0.77,0-1.48-0.51-1.71-1.28c-0.27-0.94,0.27-1.93,1.21-2.2l19.62-5.69
						c0.95-0.27,1.93,0.27,2.2,1.21c0.27,0.94-0.27,1.93-1.21,2.2l-19.61,5.69C72.95,88.37,72.79,88.39,72.62,88.39z"/>
				</g>
				<g>
					<path class="st0" d="M74.09,93.09c-0.77,0-1.48-0.51-1.71-1.28c-0.27-0.94,0.27-1.93,1.21-2.2l19.62-5.69
						c0.95-0.27,1.93,0.27,2.2,1.21c0.27,0.94-0.27,1.93-1.21,2.2l-19.62,5.69C74.42,93.06,74.25,93.09,74.09,93.09z"/>
				</g>
				<g>
					<path class="st0" d="M81.53,95.32c-2.22,0-3.68-0.57-4.1-0.76l-4.02-1.47c-0.53-0.19-0.93-0.63-1.09-1.17l-2.86-9.75
						c-0.28-0.94,0.26-1.93,1.21-2.2c0.95-0.28,1.93,0.27,2.21,1.21l2.6,8.89l3.24,1.19c0.06,0.02,0.11,0.04,0.16,0.07
						c0.07,0.03,2.25,1,5.74-0.02c3.49-1.01,4.81-2.99,4.87-3.07l2.19-2.86l-2.6-8.88c-0.28-0.94,0.26-1.93,1.21-2.2
						c0.94-0.28,1.93,0.26,2.2,1.2l2.86,9.75c0.16,0.54,0.05,1.13-0.3,1.58l-2.6,3.39c-0.4,0.59-2.34,3.21-6.83,4.51
						C84.06,95.16,82.69,95.32,81.53,95.32z"/>
				</g>
				<g>
					<path class="st0" d="M71.16,83.45c-0.32,0-0.65-0.09-0.93-0.26c-0.43-0.26-0.72-0.69-0.82-1.18c-0.12-0.65-0.33-1.43-0.44-1.64
						c-0.07-0.13-0.19-0.4-0.35-0.76c-0.53-1.23-1.77-4.12-3.48-5.25c-9.41-5.87-10.93-11.78-11.13-12.9
						c-3.17-11.11,3.26-22.76,14.37-25.99c11.11-3.22,22.78,3.18,26.05,14.27c0.43,1.06,2.31,6.87-2.53,16.91
						c-0.81,1.82-0.31,4.93-0.1,6.25c0.06,0.39,0.1,0.68,0.11,0.83c0.02,0.26,0.28,1.06,0.5,1.61c0.18,0.47,0.17,0.99-0.06,1.44
						c-0.22,0.45-0.62,0.79-1.1,0.92l-19.62,5.69C71.49,83.43,71.33,83.45,71.16,83.45z M74.23,38.18c-1.6,0-3.24,0.22-4.85,0.69
						c-9.26,2.7-14.6,12.42-11.92,21.69c0.03,0.09,0.05,0.19,0.06,0.28c0,0.02,0.87,5.12,9.56,10.53c2.62,1.75,4.16,5.31,4.81,6.83
						c0.09,0.21,0.16,0.37,0.21,0.47c0.12,0.22,0.23,0.5,0.33,0.79l16.09-4.67c-0.07-0.3-0.13-0.6-0.14-0.85
						c-0.01-0.09-0.04-0.26-0.07-0.49c-0.26-1.64-0.87-5.47,0.38-8.31c4.47-9.27,2.48-14.04,2.46-14.09
						c-0.03-0.07-0.07-0.17-0.09-0.24C88.84,43.16,81.82,38.18,74.23,38.18z"/>
				</g>
			</g>
			<g>
				<path class="st0" d="M62.18,61.27c-0.77,0-1.48-0.51-1.71-1.28c-1.08-3.7-0.64-7.61,1.22-10.98c1.86-3.38,4.92-5.83,8.63-6.9
					c0.94-0.27,1.93,0.27,2.2,1.21c0.27,0.94-0.27,1.93-1.21,2.2c-2.79,0.81-5.1,2.66-6.5,5.21c-1.4,2.55-1.73,5.49-0.92,8.28
					c0.27,0.94-0.27,1.93-1.21,2.2C62.51,61.24,62.34,61.27,62.18,61.27z"/>
			</g>
		</g>
		<g>
			<path class="st0" d="M67.94,33.04c-0.77,0-1.48-0.51-1.71-1.28l-2.4-8.28c-0.27-0.94,0.27-1.93,1.21-2.2
				c0.95-0.27,1.93,0.27,2.2,1.21l2.4,8.28c0.27,0.94-0.27,1.93-1.21,2.2C68.27,33.01,68.1,33.04,67.94,33.04z"/>
		</g>
		<g>
			<path class="st0" d="M86.74,35.29c-0.29,0-0.58-0.07-0.86-0.22c-0.86-0.47-1.17-1.55-0.7-2.41l4.16-7.55
				c0.47-0.86,1.55-1.17,2.41-0.7c0.86,0.47,1.17,1.55,0.7,2.41l-4.16,7.55C87.97,34.96,87.36,35.29,86.74,35.29z"/>
		</g>
		<g>
			<path class="st0" d="M98.43,50.18c-0.77,0-1.48-0.51-1.71-1.28c-0.27-0.94,0.27-1.93,1.21-2.2l8.28-2.4
				c0.95-0.27,1.93,0.27,2.2,1.21c0.27,0.94-0.27,1.93-1.21,2.2l-8.28,2.4C98.76,50.16,98.6,50.18,98.43,50.18z"/>
		</g>
		<g>
			<path class="st0" d="M103.73,73.13c-0.29,0-0.58-0.07-0.86-0.22l-7.55-4.16c-0.86-0.47-1.17-1.55-0.7-2.41
				c0.47-0.86,1.55-1.17,2.41-0.7l7.55,4.16c0.86,0.47,1.17,1.55,0.7,2.41C104.96,72.8,104.35,73.13,103.73,73.13z"/>
		</g>
		<g>
			<path class="st0" d="M58.34,85.97c-0.29,0-0.58-0.07-0.86-0.22c-0.86-0.47-1.17-1.55-0.7-2.41l4.16-7.55
				c0.47-0.86,1.55-1.18,2.41-0.7c0.86,0.47,1.17,1.55,0.7,2.41l-4.16,7.55C59.57,85.63,58.96,85.97,58.34,85.97z"/>
		</g>
		<g>
			<path class="st0" d="M42.52,65.93c-0.77,0-1.48-0.51-1.7-1.28c-0.27-0.94,0.27-1.93,1.21-2.2l8.28-2.4
				c0.94-0.27,1.93,0.27,2.2,1.21c0.27,0.94-0.27,1.93-1.21,2.2l-8.28,2.4C42.85,65.91,42.69,65.93,42.52,65.93z"/>
		</g>
		<g>
			<path class="st0" d="M53.05,44.73c-0.29,0-0.58-0.07-0.86-0.22l-7.55-4.16c-0.86-0.47-1.17-1.55-0.7-2.41
				c0.47-0.86,1.55-1.17,2.41-0.7l7.55,4.16c0.86,0.47,1.17,1.55,0.7,2.41C54.29,44.4,53.68,44.73,53.05,44.73z"/>
		</g>
	</g>
</g>
</svg>
