<?xml version="1.0" encoding="utf-8"?>
<!-- Generator: Adobe Illustrator 24.1.0, SVG Export Plug-In . SVG Version: 6.00 Build 0)  -->
<svg version="1.1" id="Layer_1" xmlns="http://www.w3.org/2000/svg" xmlns:xlink="http://www.w3.org/1999/xlink" x="0px" y="0px"
	 viewBox="0 0 150 140" style="enable-background:new 0 0 150 140;" xml:space="preserve">
<style type="text/css">
	.st0{fill:#5A3482;}
	.st1{fill:#5A3482;stroke:#5A3482;stroke-miterlimit:10;}
	.st2{fill:none;stroke:#5A3482;stroke-miterlimit:10;stroke-dasharray:3.5061;}
	.st3{fill:#FFFFFF;stroke:#5A3482;stroke-miterlimit:10;stroke-dasharray:3.5061;}
	.st4{fill:#44276A;}
	.st5{fill:url(#SVGID_1_);}
	.st6{fill:#FFFFFF;}
	.st7{opacity:0.49;}
	.st8{fill:#D9DFF2;}
	.st9{fill:#FFFFFF;stroke:#5A3482;stroke-miterlimit:10;}
	.st10{fill:none;stroke:#354E9C;stroke-width:0.6122;stroke-miterlimit:10;}
	.st11{fill:url(#SVGID_2_);}
	.st12{fill:url(#SVGID_3_);}
	.st13{fill:url(#SVGID_4_);}
	.st14{fill:url(#SVGID_5_);}
	.st15{fill-rule:evenodd;clip-rule:evenodd;fill:#5A3482;}
	.st16{fill:#AB3F8F;}
	.st17{fill:url(#SVGID_6_);}
	.st18{fill:#08B9E5;}
	.st19{fill:#70C1B1;}
	.st20{fill-rule:evenodd;clip-rule:evenodd;fill:#70C1B1;}
	.st21{fill:#44266B;}
	.st22{fill:#DADAEE;}
	.st23{fill:#EEEDF7;}
	.st24{fill:#DFDCEF;}
	.st25{fill:none;stroke:#FFFFFF;stroke-width:0.2901;stroke-miterlimit:10;}
	.st26{clip-path:url(#SVGID_8_);}
	.st27{fill:#49529E;}
	.st28{fill:url(#SVGID_9_);}
	.st29{opacity:0.2;}
	.st30{fill:#FDFFFF;}
	.st31{fill:#FCFDFF;}
	.st32{fill:#FCFCFD;}
	.st33{fill:#FBFBFD;}
	.st34{fill:#FAFAFD;}
	.st35{fill:#F9F9FC;}
	.st36{fill:#F8F8FC;}
	.st37{fill:#F7F7FB;}
	.st38{fill:#F6F6FB;}
	.st39{fill:#F5F5FA;}
	.st40{fill:#F4F4FA;}
	.st41{fill:#F3F3FA;}
	.st42{fill:#F2F2F9;}
	.st43{fill:#F1F1F9;}
	.st44{fill:#F0F0F8;}
	.st45{fill:#EFEFF8;}
	.st46{fill:#EEEEF7;}
	.st47{fill:#EDEDF7;}
	.st48{fill:#EDECF7;}
	.st49{fill:#ECEBF6;}
	.st50{fill:#EBEAF6;}
	.st51{fill:#EAE9F5;}
	.st52{fill:#E9E8F5;}
	.st53{fill:#E8E7F4;}
	.st54{fill:#E7E6F4;}
	.st55{fill:#E6E5F3;}
	.st56{fill:#E5E4F3;}
	.st57{fill:#E4E3F3;}
	.st58{fill:#E4E3F2;}
	.st59{fill:#E3E2F2;}
	.st60{fill:#E2E1F2;}
	.st61{fill:#E1E0F1;}
	.st62{fill:#E0DFF1;}
	.st63{fill:#DFDEF0;}
	.st64{fill:#DEDDF0;}
	.st65{fill:#DEDCEF;}
	.st66{fill:#DDDBEF;}
	.st67{fill:#DCDBEF;}
	.st68{fill:#DBDAEE;}
	.st69{fill:#DAD9EE;}
	.st70{fill:#D9D8ED;}
	.st71{fill:#D8D7ED;}
	.st72{fill:#D7D6EC;}
	.st73{fill:#D7D5EC;}
	.st74{fill:#D6D4EB;}
	.st75{fill:#D5D3EB;}
	.st76{fill:#D4D2EA;}
	.st77{fill:#D3D2EA;}
	.st78{fill:#D2D1EA;}
	.st79{fill:#D1D0E9;}
	.st80{fill:#D0CFE9;}
	.st81{fill:#D0CEE8;}
	.st82{fill:#CFCDE8;}
	.st83{fill:#CECCE7;}
	.st84{fill:#CDCBE7;}
	.st85{fill:#CCCAE6;}
	.st86{fill:#CBCAE6;}
	.st87{fill:#CBC9E6;}
	.st88{fill:#CAC8E5;}
	.st89{fill:#C9C7E5;}
	.st90{fill:#C8C6E4;}
	.st91{fill:#C7C5E4;}
	.st92{fill:#C7C5E3;}
	.st93{fill:#C6C4E3;}
	.st94{fill:#C5C3E2;}
	.st95{fill:#C5C2E2;}
	.st96{fill:#C4C2E2;}
	.st97{fill:#C3C1E1;}
	.st98{fill:#C2C0E1;}
	.st99{fill:#C1BFE0;}
	.st100{fill:#C0BEE0;}
	.st101{fill:#C0BDDF;}
	.st102{fill:#BFBCDE;}
	.st103{fill:#BEBBDE;}
	.st104{fill:#BDBADD;}
	.st105{fill:#BCB9DD;}
	.st106{fill:#BBB9DD;}
	.st107{fill:#BAB8DC;}
	.st108{fill:#B9B7DC;}
	.st109{fill:#B8B6DB;}
	.st110{fill:#B8B5DB;}
	.st111{fill:#B7B4DA;}
	.st112{fill:#B6B3DA;}
	.st113{fill:#B5B2D9;}
	.st114{fill:#B4B1D9;}
	.st115{fill:#B3B0D8;}
	.st116{fill:#B2B0D8;}
	.st117{fill:#B1AFD7;}
	.st118{fill:#B0AED7;}
	.st119{fill:#AFADD6;}
	.st120{fill:#AFACD6;}
	.st121{fill:#AEABD5;}
	.st122{fill:#ADAAD5;}
	.st123{fill:#ACA9D4;}
	.st124{fill:#ABA8D4;}
	.st125{fill:#AAA8D4;}
	.st126{fill:#A9A7D3;}
	.st127{fill:#A8A6D2;}
	.st128{fill:#A7A5D2;}
	.st129{fill:#A7A4D1;}
	.st130{fill:#A6A3D1;}
	.st131{fill:#A5A2D0;}
	.st132{fill:#A4A1D0;}
	.st133{fill:#A3A0CF;}
	.st134{fill:#A29FCF;}
	.st135{fill:#A19FCF;}
	.st136{fill:#A19ECE;}
	.st137{fill:#A09DCD;}
	.st138{fill:#9F9CCD;}
	.st139{fill:#9E9BCC;}
	.st140{fill:#9D9BCC;}
	.st141{fill:#9C9ACB;}
	.st142{fill:#9B99CB;}
	.st143{fill:#9B98CA;}
	.st144{fill:#9A97CA;}
	.st145{fill:#9997CA;}
	.st146{fill:#9896C9;}
	.st147{fill:#9795C8;}
	.st148{fill:#9694C8;}
	.st149{fill:#9693C7;}
	.st150{fill:#9592C7;}
	.st151{fill:#9491C6;}
	.st152{fill:#9390C6;}
	.st153{fill:#928FC5;}
	.st154{fill:#908EC4;}
	.st155{fill:#F2F2FA;}
	.st156{fill:#E2EDF9;}
	.st157{fill:none;stroke:#FFFFFF;stroke-width:0.8028;stroke-miterlimit:10;}
	.st158{fill:none;stroke:#5A3482;stroke-width:0.7759;stroke-miterlimit:10;stroke-dasharray:2.7204;}
	.st159{fill:#FFFFFF;stroke:#44266B;stroke-miterlimit:10;}
	.st160{fill:none;stroke:#838EC6;stroke-miterlimit:10;}
	.st161{fill:#E6E7F5;}
	.st162{fill:#FFFFFF;stroke:#838EC6;stroke-miterlimit:10;}
	.st163{fill:none;stroke:#5A3482;stroke-miterlimit:10;}
	.st164{opacity:0.75;fill:#E0EAF7;}
	.st165{opacity:0.75;fill:none;stroke:#5A3482;stroke-miterlimit:10;}
	.st166{opacity:0.75;fill:#F4F4FA;}
	.st167{fill:#838EC6;}
	.st168{fill:#FFFFFF;stroke:#838EC6;stroke-width:0.7578;stroke-miterlimit:10;}
	.st169{fill:#D4D8EE;}
	.st170{fill:none;stroke:#D4D8EE;stroke-width:0.7578;stroke-miterlimit:10;}
	.st171{fill:none;stroke:#F4F4FA;stroke-width:1.5155;stroke-miterlimit:10;}
	.st172{fill:#7B65A9;}
	.st173{fill:#B6BFE2;}
	.st174{fill:#2A245B;}
	.st175{opacity:0.75;}
	.st176{fill:#254092;}
	.st177{fill:#C1DFF6;}
	.st178{fill:none;stroke:#FFFFFF;stroke-width:1.5396;stroke-linecap:round;stroke-linejoin:round;stroke-miterlimit:10;}
	.st179{fill:#64C6ED;}
	.st180{fill:#3F78BB;}
	.st181{fill:#8FC6ED;}
	.st182{fill:#004D8C;}
	.st183{fill:#F2E9F3;}
	.st184{fill:#00ADE3;}
	.st185{fill:#00A8D6;}
	.st186{fill:#0968B1;}
	.st187{fill:#694A97;}
	.st188{fill:#30245A;}
	.st189{fill:#8FCECA;}
	.st190{fill:#7CC5BA;}
	.st191{fill:#521336;}
	.st192{fill:#AFA4C6;}
	.st193{fill:#807CA9;}
	.st194{fill:#00A99E;}
	.st195{fill:none;stroke:#AFA4C6;stroke-width:0.7787;stroke-miterlimit:10;}
	.st196{fill:#FFFFFF;stroke:#AFA4C6;stroke-width:0.3893;stroke-linecap:round;stroke-linejoin:round;stroke-miterlimit:10;}
	.st197{fill:none;stroke:#978CB3;stroke-width:0.2261;stroke-miterlimit:10;}
	.st198{fill:#4E337D;}
	.st199{fill:#7F2C50;}
	.st200{fill:#3DBEEA;}
	.st201{fill:#696A96;}
	.st202{fill:none;stroke:#978CB3;stroke-width:0.3205;stroke-linecap:round;stroke-linejoin:round;stroke-miterlimit:10;}
	.st203{fill:none;stroke:#978CB3;stroke-width:0.3986;stroke-linecap:round;stroke-linejoin:round;stroke-miterlimit:10;}
	.st204{fill:none;stroke:#978CB3;stroke-width:0.3195;stroke-linecap:round;stroke-linejoin:round;stroke-miterlimit:10;}
	.st205{fill:#978CB3;}
	.st206{fill:none;stroke:#978CB3;stroke-width:0.2632;stroke-linecap:round;stroke-linejoin:round;stroke-miterlimit:10;}
	.st207{fill:none;stroke:#978CB3;stroke-width:0.3939;stroke-linecap:round;stroke-linejoin:round;stroke-miterlimit:10;}
	.st208{fill:url(#SVGID_10_);}
	.st209{fill:url(#SVGID_11_);}
	.st210{opacity:0.3;fill:url(#SVGID_12_);}
	.st211{fill:url(#SVGID_13_);}
	.st212{fill:url(#SVGID_14_);}
	.st213{opacity:0.3;fill:url(#SVGID_15_);}
	.st214{fill:url(#SVGID_16_);}
	.st215{fill:url(#SVGID_17_);}
	.st216{opacity:0.3;fill:url(#SVGID_18_);}
	.st217{fill:url(#SVGID_19_);}
	.st218{fill:url(#SVGID_20_);}
	.st219{opacity:0.3;fill:url(#SVGID_21_);}
	.st220{fill:url(#SVGID_22_);}
	.st221{fill:url(#SVGID_23_);}
	.st222{opacity:0.3;fill:url(#SVGID_24_);}
	.st223{fill:url(#SVGID_25_);}
	.st224{fill:url(#SVGID_26_);}
	.st225{opacity:0.3;fill:url(#SVGID_27_);}
	.st226{fill:#88D0F0;}
	.st227{fill:none;stroke:#444B99;stroke-width:0.6368;stroke-miterlimit:10;}
	.st228{clip-path:url(#SVGID_29_);}
	.st229{fill:url(#SVGID_30_);}
	.st230{fill:url(#SVGID_31_);}
	.st231{fill:#D2D9EF;}
	.st232{fill:none;stroke:#FFFFFF;stroke-width:0.6368;stroke-miterlimit:10;}
	.st233{fill:#E3E9F6;}
	.st234{fill:#EEEFF8;}
	.st235{fill:#E3E8F6;}
	.st236{fill:#C1CDEA;}
	.st237{fill:none;stroke:#D2D9EF;stroke-width:0.6368;stroke-miterlimit:10;}
	.st238{opacity:0.1;fill:#004D8C;}
	.st239{fill:#E4D9E6;}
	.st240{fill:#EB5C61;}
	.st241{fill:#FAB84B;}
	.st242{fill:#0FB2AF;}
	.st243{fill:#C9B5CE;}
	.st244{fill:#D9C7DD;}
	.st245{clip-path:url(#SVGID_33_);}
	.st246{fill:#123E69;}
	.st247{clip-path:url(#SVGID_35_);}
	.st248{fill:url(#SVGID_36_);}
	.st249{fill:url(#SVGID_37_);}
	.st250{opacity:0.3;fill:url(#SVGID_38_);}
	.st251{clip-path:url(#SVGID_40_);}
	.st252{fill:url(#SVGID_41_);}
	.st253{fill:url(#SVGID_42_);}
	.st254{opacity:0.3;fill:url(#SVGID_43_);}
	.st255{fill:#482972;}
</style>
<g>
	<path class="st1" d="M78.28,31.54c0-1.73-0.05-3.46,0.01-5.19c0.1-2.92,0.35-3.27,3.28-3.02c8.43,0.71,15.26,4.55,20.37,11.22
		c8.34,10.89,7.85,26.09-1,36.55c-1.55,1.83-3.12,3.64-4.5,5.59c-3.95,5.6-3.81,12.05-3.42,18.46c0.05,0.85,1.25,1.83,2.14,2.41
		c3.11,2.04,3.86,4.86,1.5,7.68c-1.11,1.33-1.24,2.26-0.81,3.86c0.81,3.05-0.71,5.45-3.76,5.78c-2.41,0.26-3.72,1.09-4.63,3.43
		c-1.47,3.76-4.67,5.26-8.61,5.29c-3.95,0.03-7.14-1.47-8.67-5.19c-0.93-2.25-2.06-3.28-4.56-3.51c-3.13-0.29-4.71-2.59-3.9-5.69
		c0.47-1.82,0.1-2.83-0.98-4.23c-2.07-2.68-1.38-5.8,1.72-7.29c1.98-0.95,2.17-2.23,2.33-4.07c0.77-8.76-1.86-16.16-7.94-22.59
		c-2.22-2.35-3.57-5.54-5.2-8.42c-0.94-1.65-0.22-2.5,1.62-2.48c0.67,0.01,1.34-0.06,2,0c2.19,0.2,3.36-0.36,3.55-2.96
		c0.25-3.29,2.43-5.07,5.14-4.96c2.47,0.09,4.81,1.99,4.9,4.88c0.09,2.98,1.66,3.08,3.86,3.11c5.58,0.07,5.57,0.12,5.58-5.34
		c0-2.13,0.05-4.26-0.01-6.39c-0.06-2.06,0.43-2.96,2.79-2.18c2.21,0.73,3.89-0.44,4.8-2.52c0.74-1.7-0.09-3.83-1.82-4.77
		c-0.57-0.31-1.26-0.58-1.88-0.55c-1.15,0.06-2.3,0.36-3.44,0.56c-0.15-1.56-0.32-3.12-0.43-4.69
		C78.23,33.41,78.28,32.47,78.28,31.54z M78.26,86.8c0.01,0,0.02,0,0.03,0c0-2.4,0.04-4.79-0.01-7.19
		c-0.04-1.72,0.37-2.59,2.29-1.73c2.03,0.9,3.87,0.25,4.79-1.56c0.56-1.11,0.62-2.9,0.12-4.04c-0.82-1.86-2.69-2.71-4.69-1.82
		c-2.17,0.96-2.45,0.07-2.53-1.83c-0.3-7.3-0.34-7.3-7.49-7.39c-3.03-0.04-3.03-0.04-2.9-3.27c0.1-2.59-1.57-4.54-3.92-4.57
		c-2.5-0.03-4.69,2.29-3.9,4.82c0.87,2.8-0.07,3.29-2.48,3.05c-0.79-0.08-1.6,0.03-2.4,0c-2.16-0.07-2.73,1.01-1.65,2.71
		c1.78,2.79,3.61,5.57,5.72,8.11c3.95,4.76,6.55,9.96,6.64,16.27c0.13,9.63,0.18,9.61,9.79,8.72c1.84-0.17,2.64-0.87,2.61-2.68
		C78.23,91.86,78.26,89.33,78.26,86.8z M79.41,53.51c-0.01,7.11,0.04,7.11,6.6,6.63c1.76-0.13,2.5-0.64,2.68-2.55
		c0.34-3.63,2.25-5.43,5.13-5.39c2.8,0.04,4.43,1.83,5.1,5.52c0.13,0.73,0.3,1.7,0.81,2.06c2.34,1.64,6.07-0.07,6.63-2.92
		c2.65-13.68-6.34-27.8-20.12-31.56c-1.4-0.38-2.86-0.59-4.3-0.79c-1.65-0.23-2.5,0.5-2.5,2.21c0.01,2.26,0.1,4.53-0.05,6.77
		c-0.17,2.5,0.35,3.87,3.34,4.01c2.93,0.14,4.66,2.43,4.62,5.02c-0.03,2.6-1.85,5.02-4.68,5c-3.24-0.02-3.41,1.66-3.25,4
		C79.45,52.18,79.41,52.85,79.41,53.51z M79.41,87.81c0,0.93-0.01,1.86,0,2.79c0.07,7.19-0.71,6.43,6.39,6.44
		c5.93,0.01,6.14,0.77,5.89-5.77c-0.31-7.92,2.22-14.59,7.65-20.28c1.28-1.34,2.39-2.87,3.38-4.44c2.9-4.58,2.58-5.24-2.64-5.26
		c-2.27-0.01-3.42-0.14-2.55-3c0.75-2.5-1.05-4.64-3.38-4.88c-2.3-0.24-4.3,1.68-4.35,4.16c-0.07,3.68-0.07,3.68-3.82,3.7
		c-1.46,0.01-2.93-0.05-4.39,0.07c-0.61,0.05-1.66,0.4-1.7,0.72C79.64,64,79.42,66,79.67,67.93c0.06,0.47,1.86,0.83,2.9,1.04
		c2.81,0.56,4.68,2.5,4.77,5.1c0.08,2.44-1.56,4.49-4.13,5.19c-1.21,0.33-2.93,0.29-3.48,1.08c-0.64,0.92-0.28,2.56-0.32,3.88
		C79.38,85.41,79.41,86.61,79.41,87.81z M78.96,105.64c1.33,0,2.66,0,3.99,0c3.33-0.01,6.66,0.09,9.98-0.07
		c2.49-0.12,3.95-1.64,3.88-3.68c-0.08-2.27-1.59-3.22-3.59-3.6c-0.65-0.12-1.33-0.1-1.99-0.1c-8.25-0.01-16.5-0.03-24.75,0.02
		c-1.17,0.01-2.62-0.03-3.45,0.6c-1.01,0.77-2.03,2.21-2.07,3.39c-0.03,0.99,1.16,2.28,2.13,2.96c0.77,0.53,2.04,0.45,3.08,0.46
		C70.44,105.67,74.7,105.64,78.96,105.64z M79.11,106.79c-4,0-8-0.07-11.99,0.02c-2.8,0.07-4.41,1.47-4.42,3.57
		c-0.01,2.08,1.51,3.57,4.39,3.62c7.72,0.12,15.45,0.12,23.18,0.01c3.07-0.04,4.77-1.64,4.64-3.81c-0.12-2.12-1.86-3.36-5.01-3.41
		C86.3,106.74,82.71,106.78,79.11,106.79z M79.06,115.13c0,0.01,0,0.03,0,0.04c-2.13,0-4.26-0.06-6.39,0.02
		c-1.83,0.07-2.32,1.04-1.49,2.67c1.53,3.01,4,4.52,7.36,4.6c3.5,0.09,6.58-1.69,7.82-4.5c0.86-1.94,0.5-2.63-1.72-2.8
		C82.8,115.02,80.93,115.13,79.06,115.13z"/>
	<path class="st1" d="M78.74,124.2c-4.46,0-7.61-1.92-9.11-5.56c-0.89-2.15-1.91-2.94-4.06-3.14c-1.7-0.15-3.02-0.85-3.84-2.01
		c-0.82-1.17-1.03-2.74-0.59-4.43c0.43-1.64,0.07-2.47-0.88-3.71c-1.12-1.45-1.54-3.09-1.18-4.61c0.36-1.52,1.46-2.79,3.11-3.58
		c1.67-0.81,1.83-1.78,1.99-3.58c0.75-8.56-1.8-15.79-7.78-22.13c-1.71-1.81-2.92-4.1-4.09-6.32c-0.39-0.75-0.79-1.49-1.2-2.21
		c-0.55-0.96-0.64-1.77-0.27-2.4c0.39-0.66,1.19-0.98,2.42-0.97c0.24,0,0.48-0.01,0.72-0.01c0.43-0.01,0.88-0.03,1.33,0.01
		c1.09,0.1,1.76-0.02,2.18-0.37c0.41-0.35,0.65-1.02,0.73-2.04c0.25-3.33,2.45-5.52,5.51-5.52c0.08,0,0.16,0,0.25,0
		c2.57,0.1,5.37,2.04,5.47,5.46c0.07,2.39,1.05,2.5,3.27,2.53l0.14,0c2.48,0.03,3.83,0.05,4.33-0.44c0.5-0.49,0.5-1.84,0.5-4.3
		l0.01-1.92c0.01-1.49,0.02-2.97-0.02-4.46c-0.03-1.03,0.05-2.15,0.82-2.73c0.8-0.59,1.96-0.3,2.76-0.04
		c2.36,0.78,3.56-1.04,4.07-2.19c0.61-1.4-0.09-3.2-1.56-4.01c-0.6-0.33-1.13-0.5-1.57-0.48c-0.77,0.04-1.54,0.19-2.34,0.36
		c-0.34,0.07-0.69,0.14-1.03,0.2l-0.64,0.11l-0.19-2c-0.11-1.11-0.22-2.23-0.29-3.35c-0.04-0.67-0.03-1.34-0.02-1.99
		c0.01-0.28,0.01-0.56,0.01-0.84c0-0.55,0-1.1-0.01-1.65c-0.01-1.19-0.02-2.38,0.02-3.57c0.05-1.52,0.13-2.56,0.8-3.15
		c0.61-0.55,1.54-0.58,3.13-0.45c8.53,0.72,15.52,4.57,20.79,11.45c8.55,11.15,8.13,26.49-1.02,37.31l-0.55,0.65
		c-1.34,1.57-2.72,3.2-3.91,4.9c-3.75,5.33-3.72,11.34-3.32,18.08c0.02,0.37,0.61,1.11,1.87,1.94c1.8,1.18,2.88,2.64,3.11,4.21
		c0.21,1.44-0.3,2.95-1.48,4.36c-0.94,1.12-1.09,1.84-0.69,3.33c0.45,1.7,0.25,3.29-0.58,4.49c-0.78,1.14-2.1,1.86-3.7,2.04
		c-2.3,0.25-3.35,1.02-4.14,3.05c-1.43,3.67-4.6,5.63-9.16,5.67C78.82,124.2,78.78,124.2,78.74,124.2z M86.37,119.21
		c-1.1,1.72-2.89,2.97-5.01,3.53C83.64,122.25,85.32,121.07,86.37,119.21z M71.02,118.81c1.01,2.01,2.65,3.31,4.89,3.87
		C73.83,122.07,72.2,120.78,71.02,118.81z M75.2,115.75c-0.83,0-1.67,0.01-2.5,0.04c-0.65,0.03-1.08,0.18-1.23,0.43
		c-0.15,0.26-0.06,0.76,0.25,1.37c1.42,2.8,3.66,4.2,6.84,4.28c3.25,0.09,6.11-1.55,7.26-4.14c0.43-0.98,0.42-1.37,0.33-1.52
		c-0.08-0.13-0.38-0.36-1.54-0.45c-1.25-0.1-2.55-0.07-3.81-0.05c-0.38,0.01-0.75,0.01-1.13,0.02v0.05h-0.6
		c-0.65,0-1.29-0.01-1.94-0.01C76.49,115.76,75.84,115.75,75.2,115.75z M85.52,114.66c0.69,0.12,1.33,0.37,1.66,0.93
		c0.3,0.5,0.26,1.11,0.08,1.71c0.71-1.41,1.67-2.25,3.11-2.69c-0.03,0-0.06,0-0.09,0C88.69,114.63,87.1,114.65,85.52,114.66z
		 M67.25,114.6c1.35,0.42,2.3,1.25,3.05,2.65c-0.17-0.64-0.13-1.19,0.14-1.64c0.3-0.5,0.83-0.82,1.59-0.95
		C70.42,114.64,68.83,114.62,67.25,114.6z M95.42,111.33c-0.15,0.64-0.45,1.22-0.91,1.71c-0.41,0.44-0.92,0.79-1.52,1.05
		c0.8-0.25,1.44-0.7,1.87-1.33C95.15,112.35,95.34,111.86,95.42,111.33z M62.11,110.7c-0.01,0.81,0.19,1.52,0.6,2.1
		c0.38,0.55,0.94,0.96,1.63,1.21C63,113.37,62.2,112.21,62.11,110.7z M71.95,107.36c-1.6,0-3.22,0.01-4.81,0.05
		c-2.39,0.06-3.82,1.17-3.83,2.98c-0.01,1.85,1.41,2.97,3.8,3.01c7.54,0.12,15.34,0.13,23.16,0.01c1.48-0.02,2.68-0.44,3.38-1.19
		c0.49-0.53,0.72-1.21,0.68-1.98c-0.13-2.3-2.48-2.82-4.43-2.85c-2.58-0.04-5.21-0.03-7.75-0.02l-3.03,0.01
		c-1.2,0-2.39-0.01-3.59-0.01C74.34,107.36,73.15,107.36,71.95,107.36z M65.42,93.17c-0.01,0.17-0.03,0.34-0.04,0.5
		c-0.15,1.76-0.3,3.41-2.67,4.56c-1.32,0.64-2.19,1.62-2.47,2.78c-0.27,1.16,0.07,2.44,0.96,3.61c1.01,1.31,1.52,2.4,1.23,4.11
		c0.64-1.46,2.18-2.37,4.33-2.5c-0.19,0-0.39,0-0.58-0.01l-0.42,0c-1.02,0-2.18,0.01-3-0.57c-0.85-0.59-2.44-2.08-2.39-3.47
		c0.05-1.41,1.2-3,2.3-3.85c0.94-0.71,2.34-0.72,3.59-0.72l0.22,0c0.38,0,0.75,0,1.13-0.01c-0.31-0.14-0.58-0.31-0.82-0.52
		C65.93,96.32,65.58,95.1,65.42,93.17z M90.79,106.24c2.19,0.21,3.7,1.06,4.36,2.45c-0.28-1.44-0.04-2.43,0.87-3.6
		c-0.77,0.63-1.81,1.02-3.06,1.08C92.24,106.21,91.51,106.23,90.79,106.24z M83.38,105.04c0.85,0,1.69,0.01,2.54,0.01
		c2.29,0.02,4.66,0.03,6.98-0.08c2.07-0.1,3.37-1.3,3.31-3.06c-0.06-1.7-1.02-2.64-3.1-3.04c-0.49-0.09-1.01-0.09-1.57-0.09l-0.31,0
		l-4.19,0c-6.85-0.01-13.7-0.01-20.55,0.02l-0.22,0c-1,0-2.25,0.01-2.87,0.48c-0.87,0.67-1.8,1.94-1.83,2.93
		c-0.02,0.6,0.84,1.72,1.88,2.45c0.51,0.35,1.47,0.35,2.31,0.35l0.44,0c3.05,0.03,6.11,0.03,9.16,0.02l3.61,0l1.25,0l2.74,0
		C83.09,105.04,83.23,105.04,83.38,105.04z M97.25,100.79c0.09,0.34,0.14,0.7,0.15,1.09c0.01,0.29-0.01,0.57-0.05,0.84
		c0.1-0.43,0.12-0.86,0.06-1.28C97.39,101.22,97.33,101.01,97.25,100.79z M91.82,97.6c0.5,0,1,0.01,1.51,0.11
		c0.73,0.14,1.36,0.34,1.89,0.62c-0.12-0.09-0.25-0.18-0.39-0.27c-1.06-0.7-2.35-1.76-2.41-2.87c-0.02-0.41-0.05-0.82-0.07-1.23
		c-0.02,1.52-0.19,2.4-0.76,2.98c-0.38,0.39-0.87,0.58-1.53,0.66l1.16,0l0.3,0C91.63,97.6,91.72,97.6,91.82,97.6z M78.85,94.87
		c-0.11,1.56-0.92,2.42-2.56,2.72c1.63,0,3.26,0,4.89,0c-0.73-0.08-1.24-0.27-1.62-0.64C79.1,96.49,78.92,95.86,78.85,94.87z
		 M54.97,61.86c-0.7,0-1.2,0.15-1.34,0.4c-0.15,0.26,0,0.78,0.38,1.38c1.71,2.67,3.55,5.49,5.68,8.05
		c4.54,5.47,6.7,10.76,6.78,16.64c0.06,4.47,0.1,6.93,1.13,7.85c1.03,0.92,3.49,0.7,7.96,0.28c1.66-0.15,2.14-0.64,2.12-2.08
		c-0.03-1.77-0.02-3.54-0.02-5.31l0.04-4.45c0.01-1.67,0.02-3.34-0.02-5.01c-0.02-0.93,0.05-1.94,0.79-2.43
		c0.73-0.49,1.69-0.15,2.34,0.14c1.72,0.76,3.22,0.28,4.01-1.28c0.49-0.96,0.54-2.55,0.1-3.53c-0.35-0.79-0.92-1.37-1.61-1.64
		c-0.69-0.27-1.48-0.23-2.28,0.13c-0.77,0.34-1.75,0.67-2.48,0.22c-0.75-0.46-0.85-1.48-0.89-2.57c-0.27-6.73-0.27-6.73-6.89-6.82
		c-1.67-0.02-2.51-0.03-3.05-0.61c-0.56-0.59-0.52-1.49-0.45-3.29c0.05-1.17-0.31-2.22-1.01-2.96c-0.61-0.64-1.41-0.98-2.32-0.99
		c-0.01,0-0.03,0-0.04,0c-1.09,0-2.17,0.54-2.82,1.41c-0.58,0.78-0.75,1.72-0.47,2.63c0.48,1.54,0.46,2.52-0.06,3.16
		c-0.64,0.79-1.85,0.79-3.05,0.67c-0.42-0.04-0.86-0.03-1.32-0.01c-0.35,0.01-0.69,0.02-1.04,0.01
		C55.08,61.86,55.03,61.86,54.97,61.86z M85.67,96.44c0.65,0,1.28,0.01,1.81,0.02c1.78,0.03,2.86,0.05,3.26-0.36
		c0.49-0.5,0.45-2.15,0.35-4.8c-0.31-8.1,2.25-14.88,7.82-20.72c1.11-1.16,2.19-2.58,3.3-4.34c0.6-0.95,2.01-3.18,1.69-3.76
		c-0.31-0.57-2.78-0.58-3.83-0.58c-1.21,0-2.47-0.01-3.09-0.84c-0.45-0.61-0.46-1.52-0.04-2.93c0.28-0.93,0.16-1.86-0.35-2.63
		c-0.54-0.82-1.49-1.38-2.52-1.49c-0.89-0.1-1.75,0.19-2.44,0.8c-0.77,0.68-1.23,1.69-1.25,2.77c-0.07,4.03-0.32,4.27-4.41,4.29
		c-0.39,0-0.78,0-1.17,0c-1.05-0.01-2.13-0.01-3.18,0.07c-0.41,0.03-0.96,0.22-1.17,0.35c-0.23,1.86-0.42,3.68-0.22,5.45
		c0.41,0.26,1.93,0.56,2.44,0.67c3.1,0.62,5.16,2.84,5.25,5.67c0.08,2.7-1.75,5.02-4.57,5.78c-0.39,0.11-0.83,0.18-1.27,0.25
		c-0.73,0.12-1.64,0.26-1.88,0.59c-0.34,0.49-0.29,1.43-0.24,2.34c0.02,0.42,0.04,0.83,0.04,1.22c-0.02,0.83-0.02,1.66-0.01,2.48
		l0,1.09l0,0.89c0,0.63,0,1.27,0,1.9c0.01,0.72,0.01,1.36,0.01,1.93c0,1.99-0.01,3.18,0.39,3.57c0.39,0.39,1.58,0.38,3.56,0.36
		C84.47,96.45,85.03,96.44,85.67,96.44z M62.69,78.28c1.04,2.11,1.79,4.31,2.26,6.61C64.56,82.64,63.82,80.45,62.69,78.28z
		 M79.33,78.15c-0.1,0-0.16,0.02-0.21,0.04c-0.08,0.06-0.28,0.31-0.25,1.41c0.01,0.38,0.02,0.77,0.02,1.15
		c0.08-0.27,0.19-0.53,0.35-0.76c0.53-0.75,1.62-0.92,2.67-1.09c0.05-0.01,0.11-0.02,0.16-0.03c-0.56-0.04-1.15-0.18-1.75-0.45
		C79.85,78.22,79.53,78.15,79.33,78.15z M85.43,71.05c0.23,0.29,0.42,0.62,0.58,0.98c0.58,1.31,0.52,3.27-0.13,4.55
		c-0.17,0.33-0.37,0.64-0.59,0.9c0.96-0.87,1.49-2.07,1.45-3.4C86.7,72.9,86.24,71.85,85.43,71.05z M103.53,66.39
		c-0.1,0.16-0.2,0.32-0.3,0.48c-1.16,1.83-2.29,3.31-3.45,4.53c-1.52,1.6-2.81,3.27-3.87,5.02c0.02-0.02,0.03-0.04,0.05-0.07
		c1.23-1.74,2.63-3.39,3.98-4.99l0.55-0.65C101.65,69.34,102.66,67.89,103.53,66.39z M54.3,66.3c0.86,1.57,1.81,3.09,2.98,4.33
		c0.07,0.07,0.13,0.14,0.2,0.21C56.34,69.35,55.29,67.81,54.3,66.3z M74.85,60.82c3.52,0.43,3.76,1.94,3.99,7.78
		c0.01,0.36,0.06,1.44,0.33,1.6c0.07,0.04,0.36,0.14,1.36-0.3c0.56-0.25,1.12-0.38,1.66-0.4c-2.08-0.43-3.02-0.76-3.12-1.5
		c-0.25-1.99-0.03-4.08,0.22-6.04c0.1-0.75,1.26-1.07,1.87-1.18c-0.53-0.12-0.95-0.32-1.29-0.64c-0.68-0.63-0.93-1.62-1.02-3.21
		c-0.05,1.55-0.22,2.47-0.84,3.08C77.39,60.64,76.44,60.79,74.85,60.82z M80.26,67.85C80.26,67.85,80.26,67.85,80.26,67.85
		C80.26,67.85,80.26,67.85,80.26,67.85z M103.05,60.86c0.98,0.16,1.6,0.47,1.91,1.03c0.22,0.4,0.25,0.86,0.11,1.42
		c0.93-2.18,1.58-4.45,1.94-6.75c-0.02,0.13-0.05,0.27-0.07,0.4c-0.31,1.59-1.52,3-3.18,3.66C103.52,60.72,103.29,60.8,103.05,60.86
		z M53.2,60.74c-0.69,0-1.18,0.14-1.32,0.38c-0.13,0.22-0.03,0.66,0.28,1.2c0.08,0.14,0.16,0.27,0.23,0.41
		c-0.05-0.46,0.06-0.81,0.2-1.06c0.22-0.38,0.67-0.81,1.63-0.96c-0.07,0-0.14,0-0.2,0.01c-0.26,0.01-0.51,0.02-0.77,0.01
		C53.23,60.74,53.22,60.74,53.2,60.74z M57.15,60.64c0.15,0,0.31,0.01,0.46,0.03c0.42,0.04,1.68,0.16,2.01-0.23
		c0.16-0.19,0.26-0.71-0.16-2.04c-0.05-0.17-0.1-0.35-0.13-0.53c-0.16,1.03-0.51,1.74-1.07,2.22
		C57.93,60.37,57.55,60.54,57.15,60.64z M98.28,57.59c-0.03,0.29-0.09,0.58-0.18,0.88c-0.37,1.22-0.28,1.69-0.15,1.87
		c0.26,0.35,1.34,0.35,2.13,0.36c0.03,0,0.05,0,0.08,0c-0.27-0.11-0.54-0.26-0.78-0.43c-0.7-0.49-0.89-1.54-1.04-2.39
		C98.32,57.78,98.3,57.68,98.28,57.59z M89.19,58.3c-0.31,1.56-1.16,2.14-2.42,2.35c1.11-0.01,1.84-0.06,2.09-0.3
		C89.1,60.12,89.16,59.4,89.19,58.3z M68.43,58.49c-0.04,1.01-0.04,1.72,0.14,1.91c0.19,0.2,1,0.22,2.04,0.23
		C69.63,60.4,68.79,59.85,68.43,58.49z M93.73,51.6c0.03,0,0.06,0,0.09,0c3.1,0.04,4.95,2,5.68,6.01c0.1,0.55,0.27,1.47,0.56,1.68
		c0.87,0.61,2.09,0.7,3.25,0.23c1.28-0.52,2.22-1.58,2.45-2.78c2.58-13.35-6.25-27.2-19.69-30.87c-1.34-0.36-2.76-0.57-4.14-0.76
		c-0.73-0.11-1.19-0.03-1.47,0.22c-0.29,0.25-0.43,0.71-0.43,1.38c0,0.55,0.01,1.11,0.02,1.66c0.02,1.69,0.05,3.43-0.07,5.15
		c-0.09,1.36,0.05,2.15,0.47,2.62c0.4,0.45,1.16,0.7,2.3,0.75c3.05,0.14,5.23,2.51,5.19,5.63c-0.04,2.76-2.01,5.6-5.26,5.6
		c-0.02,0-0.05,0-0.07,0c-1.08,0-1.79,0.2-2.17,0.61c-0.48,0.51-0.52,1.43-0.44,2.75c0.03,0.48,0.02,0.96,0.01,1.44L80,53.51
		c0,3.19-0.01,5.12,0.69,5.76c0.65,0.61,2.29,0.49,5.27,0.27c1.49-0.11,1.98-0.4,2.13-2.01C88.44,53.76,90.5,51.6,93.73,51.6z
		 M93.27,52.81c-1.53,0.12-2.49,0.86-3.09,1.83c0.2-0.27,0.43-0.52,0.68-0.74C91.55,53.29,92.39,52.91,93.27,52.81z M63.41,52.82
		c-1.11,0.07-2.05,0.51-2.74,1.24C61.42,53.37,62.4,52.92,63.41,52.82z M94.43,52.84c0.5,0.08,0.98,0.23,1.42,0.45
		C95.43,53.06,94.96,52.91,94.43,52.84z M79.66,46.62c-0.25,0-0.39,0.06-0.46,0.11c-0.25,0.19-0.36,0.75-0.34,1.73
		c0.01,0.27,0.01,0.54,0.02,0.8c0.11-0.51,0.32-0.98,0.68-1.36c0.43-0.46,1.04-0.75,1.84-0.89c-0.18-0.04-0.35-0.09-0.53-0.15
		C80.31,46.68,79.92,46.62,79.66,46.62z M84.11,38.37c0.07,0.04,0.15,0.08,0.22,0.12c2.01,1.09,2.94,3.58,2.08,5.54
		c-0.51,1.17-1.23,2.03-2.08,2.55c1.55-0.72,2.39-2.43,2.41-4.06C86.76,40.85,85.93,39.06,84.11,38.37z M87.37,25
		c8.15,2.55,14.56,8.73,17.77,16.22c-0.93-2.21-2.15-4.33-3.67-6.31C97.67,29.96,92.95,26.64,87.37,25z M79.03,36.07
		c0.05,0.51,0.1,1.02,0.15,1.53l0.07,0.71c0.12-0.02,0.24-0.05,0.36-0.07c0.59-0.12,1.19-0.24,1.79-0.31
		c-0.82-0.18-1.42-0.51-1.86-0.99C79.32,36.68,79.15,36.39,79.03,36.07z M80.34,23.86c-0.51,0-0.87,0.06-1.05,0.21
		c-0.24,0.21-0.33,0.78-0.38,1.74c0.12-0.59,0.37-1.06,0.76-1.4c0.34-0.3,0.76-0.47,1.27-0.54C80.72,23.87,80.52,23.86,80.34,23.86z
		"/>
</g>
<g>
	<path class="st1" d="M66.38,18.69c0,0.8,0.06,1.6-0.01,2.39c-0.25,2.55,0.1,4.17,3.43,4.13c2.59-0.03,4.3,2.38,4.39,4.86
		c0.09,2.71-1.53,5.17-4.38,5.26c-3.21,0.1-3.65,1.55-3.46,4.15c0.16,2.11-0.03,4.25,0.03,6.37c0.07,2.29-0.76,3.52-3.25,3.34
		c-1.59-0.11-3.19,0.02-4.78-0.03c-1.31-0.04-2.61-0.2-3.92-0.3c0.12-1.1,0.29-2.21,0.36-3.31c0.14-2.35-1.91-4.4-4.24-4.28
		c-2.35,0.12-4.07,2.23-3.8,4.67c0.36,3.21,0.36,3.21-2.82,3.24c-6.48,0.05-6.86-0.3-7.29-6.84c-0.96-14.58,8.12-27.18,22.05-30.58
		c0.64-0.16,1.29-0.3,1.95-0.39c5.34-0.75,5.71-0.42,5.73,4.92C66.39,17.09,66.38,17.89,66.38,18.69z M65.24,40.5
		c0-1.2-0.02-2.4,0-3.59c0.05-2.94,0.06-2.7,3.1-2.73c1.37-0.01,3.18-0.85,3.96-1.92c0.66-0.9,0.57-2.89,0.02-4.01
		c-0.88-1.81-2.71-2.58-4.75-1.67c-1.94,0.87-2.34,0-2.32-1.7c0.02-3.19,0.05-6.39-0.04-9.58c-0.09-2.94-0.4-3.28-3.33-2.87
		C51.53,13.86,44.31,19.6,40.03,29c-2.43,5.35-2.98,10.98-1.66,16.77c0.66,2.91,2.91,2.1,4.79,2.26c2.03,0.17,2.24-0.94,2.4-2.68
		c0.35-3.89,3.12-5.92,6.5-5.12c2.29,0.54,3.49,2.2,4.01,5.34c0.13,0.8,0.57,2.19,0.94,2.21c2.37,0.14,4.94,0.48,7.04-0.31
		c0.9-0.34,0.86-3.23,1.18-4.98C65.34,41.85,65.24,41.17,65.24,40.5z"/>
	<path class="st1" d="M63.6,49.82c-0.16,0-0.33-0.01-0.51-0.02c-0.88-0.06-1.79-0.05-2.68-0.03c-0.7,0.01-1.39,0.02-2.09,0
		c-0.92-0.03-1.85-0.11-2.75-0.2c-0.4-0.04-0.8-0.07-1.2-0.11l-0.62-0.05l0.07-0.61c0.04-0.34,0.08-0.68,0.12-1.02
		c0.09-0.75,0.19-1.51,0.23-2.26c0.06-0.95-0.31-1.9-1.02-2.61c-0.7-0.71-1.64-1.1-2.59-1.04c-0.93,0.05-1.79,0.47-2.39,1.19
		c-0.66,0.77-0.95,1.77-0.84,2.82c0.2,1.78,0.3,2.68-0.24,3.28c-0.53,0.6-1.42,0.61-3.18,0.62c-6.76,0.05-7.44-0.57-7.89-7.4
		c-0.98-14.89,8.27-27.72,22.51-31.2c0.75-0.18,1.41-0.31,2.01-0.4c2.66-0.37,4.35-0.54,5.34,0.32c0.99,0.86,1.07,2.53,1.07,5.19
		c0,0.8,0,1.6,0,2.4c0,0.25,0.01,0.49,0.01,0.74c0.01,0.55,0.03,1.13-0.03,1.71c-0.15,1.52-0.03,2.34,0.41,2.82
		c0.42,0.45,1.19,0.68,2.42,0.66c0.02,0,0.03,0,0.05,0c2.98,0,4.85,2.76,4.94,5.44c0.06,1.68-0.5,3.27-1.52,4.36
		c-0.89,0.95-2.08,1.48-3.44,1.52c-1.21,0.04-2.01,0.28-2.42,0.74c-0.44,0.48-0.57,1.29-0.46,2.77c0.09,1.25,0.07,2.52,0.04,3.74
		c-0.02,0.89-0.04,1.77-0.01,2.66c0.04,1.46-0.27,2.5-0.95,3.16C65.46,49.55,64.66,49.82,63.6,49.82z M61.64,48.56
		c0.51,0,1.03,0.01,1.54,0.05c0.95,0.07,1.62-0.08,2.02-0.47c0.43-0.41,0.62-1.15,0.59-2.26c-0.03-0.9-0.01-1.81,0.01-2.72
		c0-0.18,0.01-0.36,0.01-0.54c-0.09,0.48-0.14,1.04-0.2,1.61c-0.19,1.85-0.36,3.44-1.35,3.81c-0.86,0.32-1.78,0.47-2.72,0.52
		C61.57,48.56,61.6,48.56,61.64,48.56z M55.1,48.33c0.2,0.02,0.4,0.04,0.6,0.05c0.88,0.08,1.79,0.16,2.68,0.19
		c0.64,0.02,1.27,0.01,1.9,0c-0.77-0.02-1.54-0.07-2.31-0.13l-1-0.07c-1-0.06-1.42-2.27-1.49-2.71c-0.02-0.15-0.05-0.3-0.08-0.44
		c0,0.12,0,0.24-0.01,0.36c-0.05,0.78-0.14,1.56-0.24,2.34C55.13,48.06,55.11,48.2,55.1,48.33z M46.13,45.59
		c-0.12,1.25-0.32,2.67-1.88,2.99c0.99-0.01,1.81-0.03,1.97-0.22c0.18-0.2,0.07-1.2-0.06-2.35C46.15,45.87,46.14,45.73,46.13,45.59z
		 M37.3,43.22c0.26,3.6,0.53,4.81,2.48,5.2c-0.88-0.29-1.65-0.96-2-2.51C37.58,45.01,37.42,44.11,37.3,43.22z M42.49,47.41
		c0.24,0,0.48,0.01,0.72,0.03c1.41,0.12,1.58-0.3,1.75-2.14c0.19-2.1,1.07-3.82,2.48-4.84c1.3-0.94,2.99-1.23,4.75-0.81
		c2.51,0.59,3.89,2.38,4.46,5.82c0.11,0.67,0.38,1.45,0.55,1.72l0.85,0.06c2.01,0.14,4.09,0.29,5.77-0.34
		c0.31-0.22,0.49-1.91,0.58-2.82c0.06-0.61,0.13-1.2,0.22-1.71c0.07-0.38,0.05-0.79,0.03-1.23c-0.01-0.22-0.02-0.44-0.02-0.66
		l0-1.12c0-0.83-0.01-1.66,0.01-2.49c0.05-2.93,0.22-3.31,3.06-3.32l0.63,0c1.21-0.01,2.84-0.8,3.48-1.68
		c0.48-0.66,0.47-2.37-0.03-3.4c-0.78-1.6-2.3-2.13-3.96-1.39c-0.66,0.3-1.62,0.63-2.35,0.15c-0.73-0.48-0.82-1.49-0.81-2.41l0-0.18
		c0.02-3.08,0.05-6.26-0.05-9.38c-0.04-1.22-0.11-2.02-0.4-2.26c-0.29-0.24-1.11-0.19-2.24-0.03c-9.92,1.39-17.11,6.85-21.38,16.24
		c-2.37,5.21-2.92,10.72-1.63,16.39c0.4,1.75,1.31,1.81,3,1.78C42.13,47.42,42.31,47.41,42.49,47.41z M57.04,47.18L57.04,47.18
		C57.04,47.18,57.04,47.18,57.04,47.18z M50.75,40.67c1.21,0,2.39,0.5,3.28,1.4c0.11,0.11,0.21,0.22,0.31,0.34
		c-0.58-0.84-1.37-1.35-2.41-1.6c-1.44-0.34-2.75-0.12-3.78,0.62c-0.36,0.26-0.67,0.57-0.94,0.94c0.02-0.03,0.05-0.06,0.07-0.09
		c0.83-0.97,1.98-1.54,3.25-1.61C50.6,40.68,50.67,40.67,50.75,40.67z M71.1,26.06c0.72,0.4,1.33,1.05,1.76,1.92
		c0.63,1.29,0.75,3.5-0.08,4.63c-0.88,1.2-2.83,2.15-4.44,2.17l-0.63,0c-0.83,0-1.55,0.01-1.68,0.15c-0.16,0.18-0.18,1.02-0.19,1.99
		c0,0.11,0,0.22,0,0.33c0.12-0.52,0.32-0.99,0.68-1.38c0.65-0.73,1.69-1.09,3.27-1.13c1.03-0.03,1.93-0.42,2.6-1.14
		c0.81-0.86,1.24-2.13,1.2-3.5C73.53,28.41,72.62,26.69,71.1,26.06z M45.02,20.26c-2.58,2.7-4.61,5.91-5.95,9.46
		c0.13-0.32,0.27-0.64,0.42-0.96C40.99,25.46,42.84,22.62,45.02,20.26z M65.86,23.57c0,0.37-0.01,0.75-0.01,1.12l0,0.18
		c-0.01,1.06,0.16,1.33,0.27,1.4c0.13,0.08,0.52,0.06,1.21-0.25c0.33-0.15,0.66-0.26,0.99-0.33c-0.79-0.16-1.4-0.46-1.82-0.93
		C66.18,24.42,65.98,24.01,65.86,23.57z M63.6,11.68c0.59,0.02,1.03,0.15,1.38,0.45c0.4,0.34,0.6,0.84,0.7,1.48
		c-0.09-0.82-0.26-1.33-0.56-1.59C64.84,11.76,64.34,11.66,63.6,11.68z M61.36,11.88c-0.2,0.03-0.41,0.05-0.62,0.09
		c-0.57,0.08-1.17,0.2-1.89,0.38c-0.54,0.13-1.07,0.28-1.59,0.44C58.56,12.4,59.93,12.1,61.36,11.88z"/>
</g>
</svg>
