<?xml version="1.0" encoding="utf-8"?>
<!-- Generator: Adobe Illustrator 24.1.0, SVG Export Plug-In . SVG Version: 6.00 Build 0)  -->
<svg version="1.1" id="Layer_1" xmlns="http://www.w3.org/2000/svg" xmlns:xlink="http://www.w3.org/1999/xlink" x="0px" y="0px"
	 viewBox="0 0 150 140" style="enable-background:new 0 0 150 140;" xml:space="preserve">
<style type="text/css">
	.st0{fill:#5A3482;}
	.st1{fill:#5A3482;stroke:#5A3482;stroke-miterlimit:10;}
	.st2{fill:none;stroke:#5A3482;stroke-miterlimit:10;stroke-dasharray:3.5061;}
	.st3{fill:#FFFFFF;stroke:#5A3482;stroke-miterlimit:10;stroke-dasharray:3.5061;}
	.st4{fill:#44276A;}
	.st5{fill:url(#SVGID_1_);}
	.st6{fill:#FFFFFF;}
	.st7{opacity:0.49;}
	.st8{fill:#D9DFF2;}
	.st9{fill:#FFFFFF;stroke:#5A3482;stroke-miterlimit:10;}
	.st10{fill:none;stroke:#354E9C;stroke-width:0.6122;stroke-miterlimit:10;}
	.st11{fill:url(#SVGID_2_);}
	.st12{fill:url(#SVGID_3_);}
	.st13{fill:url(#SVGID_4_);}
	.st14{fill:url(#SVGID_5_);}
	.st15{fill-rule:evenodd;clip-rule:evenodd;fill:#5A3482;}
	.st16{fill:#AB3F8F;}
	.st17{fill:url(#SVGID_6_);}
	.st18{fill:#08B9E5;}
	.st19{fill:#70C1B1;}
	.st20{fill-rule:evenodd;clip-rule:evenodd;fill:#70C1B1;}
	.st21{fill:#44266B;}
	.st22{fill:#DADAEE;}
	.st23{fill:#EEEDF7;}
	.st24{fill:#DFDCEF;}
	.st25{fill:none;stroke:#FFFFFF;stroke-width:0.2901;stroke-miterlimit:10;}
	.st26{clip-path:url(#SVGID_8_);}
	.st27{fill:#49529E;}
	.st28{fill:url(#SVGID_9_);}
	.st29{opacity:0.2;}
	.st30{fill:#FDFFFF;}
	.st31{fill:#FCFDFF;}
	.st32{fill:#FCFCFD;}
	.st33{fill:#FBFBFD;}
	.st34{fill:#FAFAFD;}
	.st35{fill:#F9F9FC;}
	.st36{fill:#F8F8FC;}
	.st37{fill:#F7F7FB;}
	.st38{fill:#F6F6FB;}
	.st39{fill:#F5F5FA;}
	.st40{fill:#F4F4FA;}
	.st41{fill:#F3F3FA;}
	.st42{fill:#F2F2F9;}
	.st43{fill:#F1F1F9;}
	.st44{fill:#F0F0F8;}
	.st45{fill:#EFEFF8;}
	.st46{fill:#EEEEF7;}
	.st47{fill:#EDEDF7;}
	.st48{fill:#EDECF7;}
	.st49{fill:#ECEBF6;}
	.st50{fill:#EBEAF6;}
	.st51{fill:#EAE9F5;}
	.st52{fill:#E9E8F5;}
	.st53{fill:#E8E7F4;}
	.st54{fill:#E7E6F4;}
	.st55{fill:#E6E5F3;}
	.st56{fill:#E5E4F3;}
	.st57{fill:#E4E3F3;}
	.st58{fill:#E4E3F2;}
	.st59{fill:#E3E2F2;}
	.st60{fill:#E2E1F2;}
	.st61{fill:#E1E0F1;}
	.st62{fill:#E0DFF1;}
	.st63{fill:#DFDEF0;}
	.st64{fill:#DEDDF0;}
	.st65{fill:#DEDCEF;}
	.st66{fill:#DDDBEF;}
	.st67{fill:#DCDBEF;}
	.st68{fill:#DBDAEE;}
	.st69{fill:#DAD9EE;}
	.st70{fill:#D9D8ED;}
	.st71{fill:#D8D7ED;}
	.st72{fill:#D7D6EC;}
	.st73{fill:#D7D5EC;}
	.st74{fill:#D6D4EB;}
	.st75{fill:#D5D3EB;}
	.st76{fill:#D4D2EA;}
	.st77{fill:#D3D2EA;}
	.st78{fill:#D2D1EA;}
	.st79{fill:#D1D0E9;}
	.st80{fill:#D0CFE9;}
	.st81{fill:#D0CEE8;}
	.st82{fill:#CFCDE8;}
	.st83{fill:#CECCE7;}
	.st84{fill:#CDCBE7;}
	.st85{fill:#CCCAE6;}
	.st86{fill:#CBCAE6;}
	.st87{fill:#CBC9E6;}
	.st88{fill:#CAC8E5;}
	.st89{fill:#C9C7E5;}
	.st90{fill:#C8C6E4;}
	.st91{fill:#C7C5E4;}
	.st92{fill:#C7C5E3;}
	.st93{fill:#C6C4E3;}
	.st94{fill:#C5C3E2;}
	.st95{fill:#C5C2E2;}
	.st96{fill:#C4C2E2;}
	.st97{fill:#C3C1E1;}
	.st98{fill:#C2C0E1;}
	.st99{fill:#C1BFE0;}
	.st100{fill:#C0BEE0;}
	.st101{fill:#C0BDDF;}
	.st102{fill:#BFBCDE;}
	.st103{fill:#BEBBDE;}
	.st104{fill:#BDBADD;}
	.st105{fill:#BCB9DD;}
	.st106{fill:#BBB9DD;}
	.st107{fill:#BAB8DC;}
	.st108{fill:#B9B7DC;}
	.st109{fill:#B8B6DB;}
	.st110{fill:#B8B5DB;}
	.st111{fill:#B7B4DA;}
	.st112{fill:#B6B3DA;}
	.st113{fill:#B5B2D9;}
	.st114{fill:#B4B1D9;}
	.st115{fill:#B3B0D8;}
	.st116{fill:#B2B0D8;}
	.st117{fill:#B1AFD7;}
	.st118{fill:#B0AED7;}
	.st119{fill:#AFADD6;}
	.st120{fill:#AFACD6;}
	.st121{fill:#AEABD5;}
	.st122{fill:#ADAAD5;}
	.st123{fill:#ACA9D4;}
	.st124{fill:#ABA8D4;}
	.st125{fill:#AAA8D4;}
	.st126{fill:#A9A7D3;}
	.st127{fill:#A8A6D2;}
	.st128{fill:#A7A5D2;}
	.st129{fill:#A7A4D1;}
	.st130{fill:#A6A3D1;}
	.st131{fill:#A5A2D0;}
	.st132{fill:#A4A1D0;}
	.st133{fill:#A3A0CF;}
	.st134{fill:#A29FCF;}
	.st135{fill:#A19FCF;}
	.st136{fill:#A19ECE;}
	.st137{fill:#A09DCD;}
	.st138{fill:#9F9CCD;}
	.st139{fill:#9E9BCC;}
	.st140{fill:#9D9BCC;}
	.st141{fill:#9C9ACB;}
	.st142{fill:#9B99CB;}
	.st143{fill:#9B98CA;}
	.st144{fill:#9A97CA;}
	.st145{fill:#9997CA;}
	.st146{fill:#9896C9;}
	.st147{fill:#9795C8;}
	.st148{fill:#9694C8;}
	.st149{fill:#9693C7;}
	.st150{fill:#9592C7;}
	.st151{fill:#9491C6;}
	.st152{fill:#9390C6;}
	.st153{fill:#928FC5;}
	.st154{fill:#908EC4;}
	.st155{fill:#F2F2FA;}
	.st156{fill:#E2EDF9;}
	.st157{fill:none;stroke:#FFFFFF;stroke-width:0.8028;stroke-miterlimit:10;}
	.st158{fill:none;stroke:#5A3482;stroke-width:0.7759;stroke-miterlimit:10;stroke-dasharray:2.7204;}
	.st159{fill:#FFFFFF;stroke:#44266B;stroke-miterlimit:10;}
	.st160{fill:none;stroke:#838EC6;stroke-miterlimit:10;}
	.st161{fill:#E6E7F5;}
	.st162{fill:#FFFFFF;stroke:#838EC6;stroke-miterlimit:10;}
	.st163{fill:none;stroke:#5A3482;stroke-miterlimit:10;}
	.st164{opacity:0.75;fill:#E0EAF7;}
	.st165{opacity:0.75;fill:none;stroke:#5A3482;stroke-miterlimit:10;}
	.st166{opacity:0.75;fill:#F4F4FA;}
	.st167{fill:#838EC6;}
	.st168{fill:#FFFFFF;stroke:#838EC6;stroke-width:0.7578;stroke-miterlimit:10;}
	.st169{fill:#D4D8EE;}
	.st170{fill:none;stroke:#D4D8EE;stroke-width:0.7578;stroke-miterlimit:10;}
	.st171{fill:none;stroke:#F4F4FA;stroke-width:1.5155;stroke-miterlimit:10;}
	.st172{fill:#7B65A9;}
	.st173{fill:#B6BFE2;}
	.st174{fill:#2A245B;}
	.st175{opacity:0.75;}
	.st176{fill:#254092;}
	.st177{fill:#C1DFF6;}
	.st178{fill:none;stroke:#FFFFFF;stroke-width:1.5396;stroke-linecap:round;stroke-linejoin:round;stroke-miterlimit:10;}
	.st179{fill:#64C6ED;}
	.st180{fill:#3F78BB;}
	.st181{fill:#8FC6ED;}
	.st182{fill:#004D8C;}
	.st183{fill:#F2E9F3;}
	.st184{fill:#00ADE3;}
	.st185{fill:#00A8D6;}
	.st186{fill:#0968B1;}
	.st187{fill:#694A97;}
	.st188{fill:#30245A;}
	.st189{fill:#8FCECA;}
	.st190{fill:#7CC5BA;}
	.st191{fill:#521336;}
	.st192{fill:#AFA4C6;}
	.st193{fill:#807CA9;}
	.st194{fill:#00A99E;}
	.st195{fill:none;stroke:#AFA4C6;stroke-width:0.7787;stroke-miterlimit:10;}
	.st196{fill:#FFFFFF;stroke:#AFA4C6;stroke-width:0.3893;stroke-linecap:round;stroke-linejoin:round;stroke-miterlimit:10;}
	.st197{fill:none;stroke:#978CB3;stroke-width:0.2261;stroke-miterlimit:10;}
	.st198{fill:#4E337D;}
	.st199{fill:#7F2C50;}
	.st200{fill:#3DBEEA;}
	.st201{fill:#696A96;}
	.st202{fill:none;stroke:#978CB3;stroke-width:0.3205;stroke-linecap:round;stroke-linejoin:round;stroke-miterlimit:10;}
	.st203{fill:none;stroke:#978CB3;stroke-width:0.3986;stroke-linecap:round;stroke-linejoin:round;stroke-miterlimit:10;}
	.st204{fill:none;stroke:#978CB3;stroke-width:0.3195;stroke-linecap:round;stroke-linejoin:round;stroke-miterlimit:10;}
	.st205{fill:#978CB3;}
	.st206{fill:none;stroke:#978CB3;stroke-width:0.2632;stroke-linecap:round;stroke-linejoin:round;stroke-miterlimit:10;}
	.st207{fill:none;stroke:#978CB3;stroke-width:0.3939;stroke-linecap:round;stroke-linejoin:round;stroke-miterlimit:10;}
	.st208{fill:url(#SVGID_10_);}
	.st209{fill:url(#SVGID_11_);}
	.st210{opacity:0.3;fill:url(#SVGID_12_);}
	.st211{fill:url(#SVGID_13_);}
	.st212{fill:url(#SVGID_14_);}
	.st213{opacity:0.3;fill:url(#SVGID_15_);}
	.st214{fill:url(#SVGID_16_);}
	.st215{fill:url(#SVGID_17_);}
	.st216{opacity:0.3;fill:url(#SVGID_18_);}
	.st217{fill:url(#SVGID_19_);}
	.st218{fill:url(#SVGID_20_);}
	.st219{opacity:0.3;fill:url(#SVGID_21_);}
	.st220{fill:url(#SVGID_22_);}
	.st221{fill:url(#SVGID_23_);}
	.st222{opacity:0.3;fill:url(#SVGID_24_);}
	.st223{fill:url(#SVGID_25_);}
	.st224{fill:url(#SVGID_26_);}
	.st225{opacity:0.3;fill:url(#SVGID_27_);}
	.st226{fill:#88D0F0;}
	.st227{fill:none;stroke:#444B99;stroke-width:0.6368;stroke-miterlimit:10;}
	.st228{clip-path:url(#SVGID_29_);}
	.st229{fill:url(#SVGID_30_);}
	.st230{fill:url(#SVGID_31_);}
	.st231{fill:#D2D9EF;}
	.st232{fill:none;stroke:#FFFFFF;stroke-width:0.6368;stroke-miterlimit:10;}
	.st233{fill:#E3E9F6;}
	.st234{fill:#EEEFF8;}
	.st235{fill:#E3E8F6;}
	.st236{fill:#C1CDEA;}
	.st237{fill:none;stroke:#D2D9EF;stroke-width:0.6368;stroke-miterlimit:10;}
	.st238{opacity:0.1;fill:#004D8C;}
	.st239{fill:#E4D9E6;}
	.st240{fill:#EB5C61;}
	.st241{fill:#FAB84B;}
	.st242{fill:#0FB2AF;}
	.st243{fill:#C9B5CE;}
	.st244{fill:#D9C7DD;}
	.st245{clip-path:url(#SVGID_33_);}
	.st246{fill:#123E69;}
	.st247{clip-path:url(#SVGID_35_);}
	.st248{fill:url(#SVGID_36_);}
	.st249{fill:url(#SVGID_37_);}
	.st250{opacity:0.3;fill:url(#SVGID_38_);}
	.st251{clip-path:url(#SVGID_40_);}
	.st252{fill:url(#SVGID_41_);}
	.st253{fill:url(#SVGID_42_);}
	.st254{opacity:0.3;fill:url(#SVGID_43_);}
	.st255{fill:#482972;}
</style>
<g>
	<g>
		<g>
			<path class="st0" d="M59.68,135.19c-2.34,0-4.56-0.41-6.65-1.24c-9.09-3.6-12.23-13.66-12.36-14.08
				c-0.32-1.04,0.27-2.14,1.32-2.46c1.04-0.31,2.14,0.27,2.46,1.32c0.03,0.08,2.75,8.69,10.06,11.57
				c4.73,1.86,10.45,0.99,17.02-2.59V18.6c0-5.42-4.41-9.84-9.84-9.84s-9.84,4.41-9.84,9.84c0,0.94,0.13,1.88,0.4,2.77
				c0.31,1.04-0.29,2.14-1.34,2.45c-1.04,0.31-2.14-0.29-2.45-1.34c-0.37-1.25-0.55-2.56-0.55-3.88c0-7.6,6.19-13.79,13.79-13.79
				c7.6,0,13.79,6.18,13.79,13.79v110.26c0,0.71-0.38,1.36-0.99,1.71C69.15,133.65,64.2,135.19,59.68,135.19z"/>
		</g>
		<g>
			<path class="st0" d="M44.81,47.33c-8.69,0-15.76-7.07-15.76-15.76c0-8.69,7.07-15.76,15.76-15.76c1.98,0,3.9,0.36,5.73,1.07
				c1.02,0.4,1.52,1.54,1.12,2.56c-0.4,1.02-1.54,1.52-2.56,1.12c-1.37-0.53-2.81-0.81-4.29-0.81C38.3,19.77,33,25.07,33,31.58
				s5.3,11.81,11.81,11.81c1.09,0,1.97,0.88,1.97,1.97C46.78,46.45,45.9,47.33,44.81,47.33z"/>
		</g>
		<g>
			<path class="st0" d="M32.43,65.3c-8.09,0-16.04-7.94-16.04-16.04c0-8.07,6.56-14.63,14.63-14.63c1.09,0,1.97,0.88,1.97,1.97
				s-0.88,1.97-1.97,1.97c-5.89,0-10.68,4.79-10.68,10.68c0,5.88,6.21,12.09,12.09,12.09c1.09,0,1.97,0.88,1.97,1.97
				S33.52,65.3,32.43,65.3z"/>
		</g>
		<g>
			<path class="st0" d="M31.5,87.73c-1.77,0-3.18-0.15-3.7-0.22c-8.33-0.1-14.78-9.27-14.78-17.16c0-5.79,3.4-11.1,8.65-13.54
				c0.99-0.46,2.16-0.03,2.62,0.96c0.46,0.99,0.03,2.16-0.96,2.62c-3.87,1.79-6.36,5.7-6.36,9.96c0,5.99,4.89,13.22,10.96,13.22
				c0.09,0,0.17,0.01,0.26,0.02c3.13,0.41,8.83,0.32,10.84-1.69c0.77-0.77,2.02-0.77,2.79,0s0.77,2.02,0,2.79
				C39.29,87.22,34.77,87.73,31.5,87.73z"/>
		</g>
		<g>
			<path class="st0" d="M27.71,108.61c-0.33,0-0.67-0.08-0.98-0.26c-5.99-3.46-9.54-7.78-10.55-12.85
				c-1.48-7.42,3.12-13.54,3.31-13.8c0.66-0.87,1.9-1.03,2.77-0.37c0.86,0.66,1.03,1.9,0.37,2.76c-0.06,0.08-3.72,5.04-2.58,10.66
				c0.79,3.89,3.7,7.32,8.65,10.17c0.94,0.55,1.27,1.75,0.72,2.7C29.05,108.26,28.39,108.61,27.71,108.61z"/>
		</g>
		<g>
			<path class="st0" d="M46.22,129.99c-0.14,0-0.28-0.02-0.43-0.05c-9.67-2.14-15.94-6.38-18.65-12.6
				c-4.2-9.65,1.93-20.26,2.19-20.71c0.55-0.94,1.76-1.25,2.7-0.7c0.94,0.55,1.25,1.76,0.71,2.7c-0.05,0.09-5.37,9.36-1.96,17.15
				c2.18,4.99,7.52,8.45,15.88,10.3c1.06,0.23,1.74,1.29,1.5,2.35C47.94,129.36,47.12,129.99,46.22,129.99z"/>
		</g>
		<g>
			<path class="st0" d="M42.56,92.86c-0.87,0-1.67-0.58-1.9-1.46c-1.73-6.47-1.09-11.82,1.92-15.9c5.08-6.9,14.96-7.37,15.38-7.39
				c1.07-0.12,2,0.8,2.05,1.89c0.05,1.09-0.8,2.01-1.89,2.05c-0.08,0-8.44,0.44-12.38,5.8c-2.25,3.07-2.68,7.28-1.27,12.53
				c0.28,1.05-0.34,2.13-1.4,2.42C42.9,92.84,42.73,92.86,42.56,92.86z"/>
		</g>
		<g>
			<path class="st0" d="M54.94,58.55c-0.68,0-1.35-0.35-1.71-0.99c-0.54-0.94-0.22-2.15,0.72-2.7c14.1-8.14,20.82,0.14,21.1,0.49
				c0.67,0.86,0.52,2.1-0.34,2.77c-0.85,0.67-2.08,0.53-2.76-0.32c-0.23-0.27-5.06-5.86-16.04,0.48
				C55.61,58.46,55.27,58.55,54.94,58.55z"/>
		</g>
		<g>
			<path class="st0" d="M61.52,111.75c-4.23,0-8.52-1.42-11.13-6.12c-0.53-0.95-0.19-2.15,0.77-2.68c0.95-0.53,2.16-0.18,2.68,0.77
				c4.64,8.36,18.61,1.25,18.74,1.18c0.97-0.5,2.16-0.12,2.66,0.84c0.5,0.97,0.12,2.16-0.84,2.66
				C73.98,108.61,67.81,111.75,61.52,111.75z"/>
		</g>
		<g>
			<path class="st0" d="M63.3,39.91c-1.18,0-2.32-0.15-3.35-0.52c-1.71-0.61-2.99-1.78-3.72-3.38c-0.45-0.99-0.01-2.16,0.98-2.61
				c0.99-0.46,2.16-0.01,2.61,0.98c0.29,0.63,0.75,1.05,1.46,1.3c2.81,1.01,8.45-0.85,11.35-2.26c0.98-0.48,2.16-0.07,2.64,0.91
				c0.48,0.98,0.07,2.16-0.91,2.64C73.63,37.33,68.16,39.91,63.3,39.91z"/>
		</g>
		<g>
			<path class="st0" d="M65.65,90.96c-2.38,0-4.93-0.43-7.2-1.74c-0.94-0.55-1.27-1.75-0.72-2.7c0.54-0.94,1.75-1.27,2.7-0.72
				c4.05,2.34,10.28,0.71,12.34-0.12c1.01-0.4,2.16,0.08,2.57,1.09c0.41,1.01-0.08,2.16-1.1,2.57
				C73.99,89.44,70.12,90.96,65.65,90.96z"/>
		</g>
	</g>
	<g>
		<g>
			<path class="st0" d="M81.95,136.7h-5.16c-1.09,0-1.97-0.88-1.97-1.97c0-1.09,0.88-1.97,1.97-1.97h3.35l1.23-14.05
				c0.07-0.85,0.69-1.55,1.52-1.75c5.99-1.4,11.58-3.9,16.63-7.44c0.73-0.52,1.72-0.47,2.4,0.1l11.26,9.45l9.39-9.39l-9.76-11.63
				c-0.55-0.66-0.61-1.6-0.16-2.32c3.16-4.99,5.34-10.43,6.49-16.18c0.17-0.86,0.89-1.5,1.76-1.58l15.34-1.34V63.36l-15.34-1.34
				c-0.87-0.08-1.59-0.72-1.76-1.58c-1.15-5.74-3.34-11.18-6.49-16.18c-0.46-0.72-0.4-1.66,0.16-2.32l9.76-11.63l-9.39-9.39
				l-11.26,9.45c-0.68,0.57-1.67,0.62-2.4,0.1c-5.05-3.54-10.64-6.04-16.63-7.44c-0.83-0.19-1.44-0.9-1.52-1.75L80.14,7.24H76.4
				c-1.09,0-1.97-0.88-1.97-1.97S75.31,3.3,76.4,3.3h5.54c1.02,0,1.88,0.78,1.97,1.8l1.26,14.45c5.47,1.44,10.62,3.74,15.35,6.85
				l11.5-9.66c0.78-0.66,1.94-0.61,2.66,0.12l11.95,11.95c0.72,0.72,0.77,1.88,0.12,2.66l-10.01,11.92
				c2.76,4.63,4.76,9.61,5.96,14.83l15.69,1.37c1.02,0.09,1.8,0.94,1.8,1.97v16.9c0,1.02-0.78,1.88-1.8,1.97l-15.69,1.37
				c-1.2,5.22-3.2,10.19-5.96,14.82l10.01,11.92c0.66,0.78,0.61,1.94-0.12,2.66l-11.95,11.95c-0.72,0.72-1.88,0.78-2.66,0.12
				l-11.5-9.66c-4.73,3.12-9.88,5.42-15.35,6.86l-1.26,14.45C83.82,135.92,82.97,136.7,81.95,136.7z"/>
		</g>
		<g>
			<path class="st0" d="M79.68,102.04c-0.92,0-1.74-0.64-1.93-1.58c-0.22-1.07,0.47-2.11,1.54-2.33
				c13.29-2.72,22.93-14.55,22.93-28.14c0-13.82-9.84-25.69-23.4-28.23c-1.07-0.2-1.78-1.23-1.58-2.3c0.2-1.07,1.23-1.76,2.3-1.58
				c15.42,2.89,26.62,16.39,26.62,32.11c0,15.45-10.97,28.91-26.08,32C79.95,102.03,79.81,102.04,79.68,102.04z"/>
		</g>
	</g>
</g>
</svg>
