<svg xmlns="http://www.w3.org/2000/svg" xmlns:xlink="http://www.w3.org/1999/xlink" width="1556.473" height="299.155" viewBox="0 0 1556.473 299.155">
  <defs>
    <linearGradient id="linear-gradient" x1="6.945" y1="3.772" x2="8.082" y2="3.772" gradientUnits="objectBoundingBox">
      <stop offset="0" stop-color="#fff"/>
      <stop offset="1" stop-color="#10bae7"/>
    </linearGradient>
    <linearGradient id="linear-gradient-2" x1="-0.111" y1="4.821" x2="1.398" y2="5.129" gradientUnits="objectBoundingBox">
      <stop offset="0" stop-color="#ae4593"/>
      <stop offset="1" stop-color="#10bae7"/>
    </linearGradient>
  </defs>
  <g id="back_ground" data-name="back ground" transform="translate(-172.5 -1290.054)">
    <path id="Path_33" data-name="Path 33" d="M-15.213,85.45S-16.759-68.367,55.952-91.282,94.533-19.887,204.341.736C217.883,3.279,318.9,76.67,374.989,69.123,456.523,58.153,517.5-13.731,597.572-15.09,637.678-15.77,704.413,5.247,760.8,45.349c20.3,14.436,115.824,48.261,230,40.1C1051.2,81.134,1088.081,3,1157-15.09c71.774-18.838,228.729,34.277,278.972,0,62.491-42.633,51.936-128.61,51.936-128.61" transform="translate(218.712 1476.506)" fill="none" stroke="#9688a5" stroke-width="2" stroke-dasharray="10"/>
    <circle id="Ellipse_24" data-name="Ellipse 24" cx="26" cy="26" r="26" transform="translate(172.5 1537.209)" fill="#fff"/>
    <g id="Group_243" data-name="Group 243" transform="matrix(0.883, 0.469, -0.469, 0.883, 7100.859, 4752.935)">
      <g id="Butterfly" transform="translate(-6400 -520)">
        <path id="Path_63" data-name="Path 63" d="M89.319,28.1s9.412,8.916,7.34,25.2c-1.293,10.16-9.551,25.365-35.137,25.123,0,0,9.78-1.343,16.3-5.025,0,0-1.318-2.313-9.175-2.157-10.3.205-8.941-2.429-6.877-7.5,2.9-7.141,5.91-10.789,25.811-3.608,0,0-8.4-5.908-10.669-15.7C75.337,37.621,79.253,27.485,89.319,28.1Z" transform="translate(-58.473 -28.077)" fill="url(#linear-gradient)"/>
        <path id="Path_64" data-name="Path 64" d="M91.412,41.5s5.344,5.314,3.367,20.134C93.128,74,75.807,88.716,57.52,86.537c0,0,11.509-.076,17.525-4.224,0,0-.762-1.8-7.372-.5-8.669,1.709-7.135-.769-4.649-5.454,3.5-6.6,6.558-10.191,22.176-6.951a15.693,15.693,0,0,1-6.613-11.968C78.275,51.793,83.067,42.461,91.412,41.5Z" transform="translate(-56.2 -38.951)" fill="url(#linear-gradient-2)"/>
        <path id="Path_65" data-name="Path 65" d="M87.094,36.852s7.148,9.672,1.861,24.8c-3.3,9.44-16.323,20.476-38.385,22.06,0,0,11.469-2.418,16.353-5.526,0,0-.782-2.363-8.3-3.249-9.856-1.162-8.02-3.475-5.023-8,4.222-6.372,7.826-9.427,25.319-.015,0,0-6.8-6.692-6.966-16.255C71.84,44.009,77.634,34.937,87.094,36.852Z" transform="translate(-50.57 -34.975)" fill="#ae4593" opacity="0.3"/>
      </g>
    </g>
  </g>
</svg>
